<svg width="229" height="53" viewBox="0 0 229 53" fill="none" xmlns="http://www.w3.org/2000/svg">
<path d="M40.5 15.8002V3.2002H45.1C46.1 3.2002 46.8 3.4002 47.3 3.6002C48.6 4.2002 49.2 5.4002 49.2 6.5002C49.2 7.7002 48.7 8.5002 47.7 9.2002C49.1 9.4002 50 10.5002 50 12.0002C50 13.7002 49 15.0002 47.2 15.6002C46.6 15.8002 45.9 15.9002 44.8 15.9002H40.5M46.1 5.3002C45.8 5.2002 45.5 5.1002 44.9 5.1002H42.6V8.4002H44.8C45.5 8.4002 45.9 8.3002 46.2 8.1002C46.7 7.8002 47 7.4002 47 6.8002C47 6.1002 46.7 5.6002 46.1 5.3002ZM46.8 10.6002C46.5 10.5002 46.1 10.4002 45.4 10.4002H42.7V13.9002H45.3C46.1 13.9002 46.5 13.8002 46.9 13.6002C47.5 13.3002 47.8 12.8002 47.8 12.0002C47.8 11.4002 47.4 10.8002 46.8 10.6002Z" fill="#23085A"/>
<path d="M62.6 15.8002V9.5002V3.2002H63.7H64.8V9.5002V15.8002H63.7H62.6Z" fill="#23085A"/>
<path d="M78.4 15.8002V9.5002V3.2002H79.5H80.6V9.5002V15.8002H79.5H78.4Z" fill="#23085A"/>
<path d="M87.6 3C89 3 90.3 3.3 91.1 3.7V5.8C90 5.3 88.9 4.9 87.6 4.9C86.4 4.9 85.4 5.3 85.4 6.3C85.4 8.9 91.9 7.9 91.9 12.1C91.9 14.5 89.9 16 87 16C85 16 83.7 15.4 82.7 14.9L83.6 13.1C84.4 13.6 85.6 14.1 87.1 14.1C88.4 14.1 89.6 13.6 89.6 12.4C89.6 9.7 83.1 10.9 83.1 6.6C83.1 4.3 84.9 3 87.6 3Z" fill="#23085A"/>
<path d="M102.1 15.8002V10.4002H96V15.8002H93.8V3.2002H96V8.3002H102.1V3.2002H104.3V15.8002H102.1Z" fill="#23085A"/>
<path d="M45.3 18C46.7 18 47.7 18.3 48.8 18.7L48.1 20.5C47.5 20.2 46.7 19.9 45.5 19.9C43.1 19.9 41.6 21.9 41.6 24.4C41.6 26.9 43 28.9 45.5 28.9C46.7 28.9 47.5 28.6 48.1 28.3L48.8 30.1C47.7 30.6 46.7 30.8 45.3 30.8C41.5 30.8 39.3 28.2 39.3 24.3C39.3 21 41.5 18 45.3 18Z" fill="#23085A"/>
<path d="M92.7 18C94.1 18 95.1 18.3 96.2 18.7L95.5 20.5C95 20.3 94.2 20 93 20C90.6 20 89.1 22 89.1 24.5C89.1 27 90.5 29 93 29C94.2 29 95 28.7 95.6 28.4L96.3 30.2C95.2 30.7 94.2 30.9 92.8 30.9C89 30.9 86.8 28.3 86.8 24.4C86.8 21 88.9 18 92.7 18Z" fill="#23085A"/>
<path d="M61.2 24.4999C61.2 28.2999 58.8 30.9999 55.2 30.9999C51.6 30.9999 49.2 28.3999 49.2 24.5999C49.2 20.7999 51.6 18.0999 55.2 18.0999C58.8 17.9999 61.2 20.6999 61.2 24.4999ZM58.9 24.4999C58.9 21.6999 57.3 19.9999 55.2 19.9999C53.1 19.9999 51.5 21.7999 51.5 24.5999C51.5 27.3999 53.1 29.0999 55.2 29.0999C57.3 29.0999 58.9 27.2999 58.9 24.4999Z" fill="#23085A"/>
<path d="M62.6 26.0001V18.1001H64.8V26.1001C64.8 28.2001 65.9 29.0001 67.7 29.0001C69.5 29.0001 70.6 28.2001 70.6 26.1001V18.1001H72.8V26.0001C72.8 29.4001 70.8 31.0001 67.7 31.0001C64.6 31.0001 62.6 29.5001 62.6 26.0001Z" fill="#23085A"/>
<path d="M76.9 21.6002C76.9 22.0002 76.9 22.7002 76.9 23.3002V30.8002H74.7V18.2002H77L82.9 26.8002C82.9 26.4002 82.8 25.7002 82.8 25.1002V18.2002H85V30.9002H83.1L76.9 21.6002Z" fill="#23085A"/>
<path d="M97.9 30.8002V24.5002V18.2002H99H100.1V24.5002V30.8002H99H97.9Z" fill="#23085A"/>
<path d="M102.1 30.8002V18.2002H104.3V28.9002H109.2V30.8002H102.1Z" fill="#23085A"/>
<path d="M76.7 3.2002H66.5V5.1002H70.5V15.8002H72.7V5.1002H76.7V3.2002Z" fill="#23085A"/>
<path d="M58.7 15.8002C56.9 12.0002 56.4 10.9002 55.6 10.9002H53.6V15.8002H51.4V3.2002H55.7C59 3.2002 60.2 4.9002 60.2 6.8002C60.2 8.5002 59.2 9.6002 57.9 10.0002C58.5 10.3002 59.1 11.5002 61.2 15.7002H58.7V15.8002ZM55.9 5.1002H53.7V9.0002H55.8C57.4 9.0002 58.1 8.2002 58.1 7.0002C58.1 6.0002 57.4 5.1002 55.9 5.1002Z" fill="#23085A"/>
<path d="M12.0789 16.399C16.0542 16.2996 19.1963 12.9966 19.0969 9.0213C18.9976 5.04604 15.6945 1.90397 11.7193 2.00328C7.74402 2.1026 4.60195 5.40569 4.70126 9.38095C4.80058 13.3562 8.10367 16.4983 12.0789 16.399Z" fill="#23085A"/>
<path d="M27.5792 16.399C31.5544 16.2996 34.6965 12.9966 34.5972 9.0213C34.4979 5.04604 31.1948 1.90397 27.2195 2.00328C23.2443 2.1026 20.1022 5.40569 20.2015 9.38095C20.3008 13.3562 23.6039 16.4983 27.5792 16.399Z" fill="#23085A"/>
<path d="M11.9 31.9C15.8764 31.9 19.1 28.6765 19.1 24.7C19.1 20.7236 15.8764 17.5 11.9 17.5C7.92355 17.5 4.7 20.7236 4.7 24.7C4.7 28.6765 7.92355 31.9 11.9 31.9Z" fill="#23085A"/>
<path d="M27.4 31.9C31.3764 31.9 34.6 28.6765 34.6 24.7C34.6 20.7236 31.3764 17.5 27.4 17.5C23.4235 17.5 20.2 20.7236 20.2 24.7C20.2 28.6765 23.4235 31.9 27.4 31.9Z" fill="#23085A"/>
<path d="M123.5 2.7998H127.2H130.8V16.9998V31.1998H127.2H123.5V16.9998V2.7998Z" fill="#23085A"/>
<path d="M133.8 2.7998H155.8V8.5998H141.1V13.7998H155.7V19.4998H141.1V25.3998H155.9V31.1998H133.8V2.7998Z" fill="#23085A"/>
<path d="M158.6 2.7998H165.9V24.9998H179.3V31.1998H158.6V2.7998Z" fill="#23085A"/>
<path d="M182 8.5998H173.9V2.7998H197.5V8.5998H189.3V31.1998H182V8.5998Z" fill="#23085A"/>
<path d="M204.7 21.8C204.8 25 206.6 26.7 210.1 26.7C213.1 26.7 214.8 25.6 214.8 23.9C214.8 23 214.4 22.2 213.7 21.9C212 21 208.8 20.5 204.6 18.8C200.5 17.2 198.4 14.5 198.4 10.9C198.4 5.6 202.6 2 209.7 2C216.6 2 220.8 5.7 220.8 11.4H214C213.7 8.8 212.1 7.5 209.2 7.5C206.7 7.5 205.2 8.6 205.2 10.1C205.2 12.2 207.4 12.7 211.9 14.1C215.2 15.2 217.6 15.9 218.9 17C220.8 18.5 221.7 20.6 221.7 23C221.7 28.5 217.3 32 209.3 32C201.9 32 198.1 28.6 197.6 21.8H204.7Z" fill="#23085A"/>
<path d="M220.5 3.3002H219.5V2.7002H222.1V3.3002H221.1V5.9002H220.5V3.3002Z" fill="#23085A"/>
<path d="M222.5 2.7002H223.5L224.1 5.2002L224.7 2.7002H225.7V5.9002H225.1V3.3002L224.4 5.9002H223.8L223.1 3.3002V5.9002H222.5V2.7002Z" fill="#23085A"/>
<path d="M221.8 37.8999H123.5V38.5999H221.8V37.8999Z" fill="#23085A"/>
<path d="M149.82 46.8789V40.4413H147.62V39.6474H152.974V40.4413H150.764V46.8789H149.82ZM157.156 44.4541H153.508C153.53 45.7309 154.345 46.2566 155.289 46.2566C155.965 46.2566 156.373 46.1386 156.727 45.9884L156.888 46.6643C156.555 46.8145 155.987 46.9862 155.161 46.9862C153.562 46.9862 152.607 45.9347 152.607 44.3683C152.607 42.8018 153.53 41.5679 155.043 41.5679C156.738 41.5679 157.188 43.0593 157.188 44.0142C157.188 44.2073 157.167 44.3575 157.156 44.4541ZM153.519 43.7781H156.276C156.287 43.1773 156.03 42.2438 154.967 42.2438C154.012 42.2438 153.594 43.1237 153.519 43.7781ZM157.993 46.6321L158.229 45.9133C158.508 46.0957 159.001 46.2888 159.473 46.2888C160.16 46.2888 160.482 45.9455 160.482 45.5163C160.482 45.0657 160.214 44.8189 159.516 44.5614C158.583 44.2288 158.143 43.7138 158.143 43.0915C158.143 42.2546 158.819 41.5679 159.935 41.5679C160.461 41.5679 160.922 41.7181 161.212 41.8898L160.976 42.5765C160.772 42.4477 160.396 42.276 159.913 42.276C159.355 42.276 159.044 42.5979 159.044 42.9842C159.044 43.4133 159.355 43.6065 160.031 43.864C160.933 44.2073 161.394 44.6579 161.394 45.4305C161.394 46.3424 160.686 46.9862 159.452 46.9862C158.883 46.9862 158.358 46.8467 157.993 46.6321ZM162.826 40.4413L163.749 40.1946V41.6859H165.101V42.4048H163.749V45.2051C163.749 45.8489 163.931 46.2137 164.457 46.2137C164.704 46.2137 164.886 46.1815 165.004 46.1493L165.047 46.8574C164.865 46.9326 164.575 46.9862 164.21 46.9862C163.77 46.9862 163.416 46.8467 163.191 46.5892C162.923 46.3103 162.826 45.8489 162.826 45.2373V42.4048H162.021V41.6859H162.826V40.4413ZM170.7 46.8789H169.67L167.309 39.6474H168.318L169.444 43.2095C169.756 44.1859 170.024 45.0657 170.217 45.9133H170.238C170.442 45.0764 170.743 44.1644 171.065 43.2202L172.288 39.6474H173.285L170.7 46.8789ZM177.85 44.4541H174.202C174.223 45.7309 175.039 46.2566 175.983 46.2566C176.659 46.2566 177.067 46.1386 177.421 45.9884L177.582 46.6643C177.249 46.8145 176.68 46.9862 175.854 46.9862C174.256 46.9862 173.301 45.9347 173.301 44.3683C173.301 42.8018 174.223 41.5679 175.736 41.5679C177.431 41.5679 177.882 43.0593 177.882 44.0142C177.882 44.2073 177.861 44.3575 177.85 44.4541ZM174.213 43.7781H176.97C176.981 43.1773 176.723 42.2438 175.661 42.2438C174.706 42.2438 174.288 43.1237 174.213 43.7781ZM179.051 46.8789V43.0915C179.051 42.555 179.041 42.1151 179.008 41.6859H179.845L179.899 42.5443H179.92C180.178 42.0507 180.779 41.5679 181.637 41.5679C182.356 41.5679 183.472 41.9971 183.472 43.7781V46.8789H182.528V43.8854C182.528 43.0485 182.216 42.3511 181.326 42.3511C180.704 42.3511 180.221 42.791 180.06 43.3168C180.017 43.4348 179.996 43.5957 179.996 43.7567V46.8789H179.051ZM189.348 41.6859V45.4626C189.348 45.9991 189.359 46.4712 189.391 46.8789H188.554L188.5 46.0313H188.479C188.232 46.4497 187.685 46.9969 186.762 46.9969C185.947 46.9969 184.971 46.5463 184.971 44.7223V41.6859H185.915V44.5614C185.915 45.5485 186.215 46.2137 187.073 46.2137C187.707 46.2137 188.146 45.7738 188.318 45.3553C188.372 45.2159 188.404 45.0442 188.404 44.8725V41.6859H189.348ZM195.086 44.4541H191.438C191.459 45.7309 192.275 46.2566 193.219 46.2566C193.895 46.2566 194.303 46.1386 194.657 45.9884L194.818 46.6643C194.485 46.8145 193.916 46.9862 193.09 46.9862C191.492 46.9862 190.537 45.9347 190.537 44.3683C190.537 42.8018 191.459 41.5679 192.972 41.5679C194.667 41.5679 195.118 43.0593 195.118 44.0142C195.118 44.2073 195.097 44.3575 195.086 44.4541ZM191.449 43.7781H194.206C194.217 43.1773 193.959 42.2438 192.897 42.2438C191.942 42.2438 191.524 43.1237 191.449 43.7781Z" fill="#23085A"/>
<path d="M149.82 46.8789H149.695V47.0039H149.82V46.8789ZM149.82 40.4413H149.945V40.3163H149.82V40.4413ZM147.62 40.4413H147.495V40.5663H147.62V40.4413ZM147.62 39.6474V39.5224H147.495V39.6474H147.62ZM152.974 39.6474H153.099V39.5224H152.974V39.6474ZM152.974 40.4413V40.5663H153.099V40.4413H152.974ZM150.764 40.4413V40.3163H150.639V40.4413H150.764ZM150.764 46.8789V47.0039H150.889V46.8789H150.764ZM149.945 46.8789V40.4413H149.695V46.8789H149.945ZM149.82 40.3163H147.62V40.5663H149.82V40.3163ZM147.745 40.4413V39.6474H147.495V40.4413H147.745ZM147.62 39.7724H152.974V39.5224H147.62V39.7724ZM152.849 39.6474V40.4413H153.099V39.6474H152.849ZM152.974 40.3163H150.764V40.5663H152.974V40.3163ZM150.639 40.4413V46.8789H150.889V40.4413H150.639ZM150.764 46.7539H149.82V47.0039H150.764V46.7539ZM157.156 44.4541V44.5791H157.268L157.28 44.4679L157.156 44.4541ZM153.508 44.4541V44.3291H153.381L153.383 44.4562L153.508 44.4541ZM156.727 45.9884L156.849 45.9594L156.814 45.8155L156.678 45.8733L156.727 45.9884ZM156.888 46.6643L156.939 46.7782L157.033 46.7358L157.01 46.6354L156.888 46.6643ZM153.519 43.7781L153.395 43.7639L153.379 43.9031H153.519V43.7781ZM156.276 43.7781V43.9031H156.399L156.401 43.7804L156.276 43.7781ZM157.156 44.3291H153.508V44.5791H157.156V44.3291ZM153.383 44.4562C153.394 45.1222 153.614 45.6086 153.969 45.9272C154.323 46.244 154.795 46.3816 155.289 46.3816V46.1316C154.839 46.1316 154.432 46.0064 154.136 45.7411C153.842 45.4776 153.643 45.0628 153.633 44.452L153.383 44.4562ZM155.289 46.3816C155.983 46.3816 156.407 46.2598 156.776 46.1034L156.678 45.8733C156.339 46.0173 155.947 46.1316 155.289 46.1316V46.3816ZM156.605 46.0173L156.766 46.6933L157.01 46.6354L156.849 45.9594L156.605 46.0173ZM156.836 46.5504C156.52 46.6933 155.969 46.8612 155.161 46.8612V47.1112C156.004 47.1112 156.591 46.9358 156.939 46.7782L156.836 46.5504ZM155.161 46.8612C154.39 46.8612 153.786 46.6084 153.375 46.1783C152.963 45.7474 152.732 45.1262 152.732 44.3682H152.482C152.482 45.1768 152.729 45.8646 153.194 46.351C153.66 46.8383 154.333 47.1112 155.161 47.1112V46.8612ZM152.732 44.3682C152.732 43.6086 152.956 42.9385 153.353 42.4606C153.749 41.9849 154.323 41.6929 155.043 41.6929V41.4429C154.249 41.4429 153.605 41.7678 153.161 42.3007C152.72 42.8314 152.482 43.5614 152.482 44.3682H152.732ZM155.043 41.6929C155.846 41.6929 156.344 42.043 156.647 42.5018C156.954 42.9674 157.063 43.5526 157.063 44.0142H157.313C157.313 43.5208 157.198 42.8829 156.856 42.3641C156.509 41.8384 155.934 41.4429 155.043 41.4429V41.6929ZM157.063 44.0142C157.063 44.1987 157.043 44.3406 157.032 44.4403L157.28 44.4679C157.291 44.3745 157.313 44.2159 157.313 44.0142H157.063ZM153.519 43.9031H156.276V43.6531H153.519V43.9031ZM156.401 43.7804C156.407 43.4648 156.343 43.0545 156.13 42.7187C155.912 42.3752 155.543 42.1188 154.967 42.1188V42.3688C155.454 42.3688 155.745 42.5792 155.919 42.8527C156.097 43.1338 156.156 43.4906 156.151 43.7759L156.401 43.7804ZM154.967 42.1188C154.446 42.1188 154.068 42.3615 153.814 42.6891C153.564 43.0129 153.434 43.4196 153.395 43.7639L153.643 43.7924C153.679 43.4821 153.796 43.1217 154.012 42.842C154.226 42.5661 154.534 42.3688 154.967 42.3688V42.1188ZM157.993 46.6321L157.874 46.5931L157.843 46.6888L157.929 46.7399L157.993 46.6321ZM158.229 45.9133L158.297 45.8086L158.161 45.7195L158.11 45.8743L158.229 45.9133ZM159.516 44.5614L159.56 44.4441L159.558 44.4436L159.516 44.5614ZM161.212 41.8898L161.33 41.9304L161.363 41.8341L161.275 41.7822L161.212 41.8898ZM160.976 42.5765L160.909 42.6821L161.042 42.7665L161.094 42.6171L160.976 42.5765ZM160.031 43.864L160.076 43.7472H160.076L160.031 43.864ZM158.112 46.6711L158.348 45.9523L158.11 45.8743L157.874 46.5931L158.112 46.6711ZM158.16 46.0179C158.456 46.2109 158.973 46.4138 159.473 46.4138V46.1638C159.03 46.1638 158.56 45.9804 158.297 45.8086L158.16 46.0179ZM159.473 46.4138C159.836 46.4138 160.12 46.323 160.316 46.1593C160.513 45.9937 160.607 45.764 160.607 45.5163H160.357C160.357 45.6977 160.29 45.8543 160.155 45.9677C160.018 46.0829 159.797 46.1638 159.473 46.1638V46.4138ZM160.607 45.5163C160.607 45.261 160.529 45.0531 160.348 44.8769C160.174 44.7076 159.912 44.5742 159.56 44.4441L159.473 44.6786C159.818 44.806 160.039 44.9248 160.174 45.056C160.301 45.1801 160.357 45.3209 160.357 45.5163H160.607ZM159.558 44.4436C158.648 44.1194 158.268 43.6376 158.268 43.0915H158.018C158.018 43.79 158.517 44.3381 159.474 44.6791L159.558 44.4436ZM158.268 43.0915C158.268 42.3362 158.875 41.6929 159.935 41.6929V41.4429C158.763 41.4429 158.018 42.1729 158.018 43.0915H158.268ZM159.935 41.6929C160.439 41.6929 160.878 41.8373 161.148 41.9973L161.275 41.7822C160.966 41.5989 160.483 41.4429 159.935 41.4429V41.6929ZM161.093 41.8491L160.857 42.5358L161.094 42.6171L161.33 41.9304L161.093 41.8491ZM161.042 42.4708C160.824 42.3329 160.426 42.151 159.913 42.151V42.401C160.367 42.401 160.719 42.5625 160.909 42.6821L161.042 42.4708ZM159.913 42.151C159.611 42.151 159.362 42.2386 159.187 42.3911C159.012 42.5442 158.919 42.7559 158.919 42.9842H159.169C159.169 42.8262 159.232 42.6838 159.352 42.5794C159.472 42.4744 159.658 42.401 159.913 42.401V42.151ZM158.919 42.9842C158.919 43.2376 159.015 43.428 159.205 43.5848C159.385 43.7336 159.65 43.8523 159.987 43.9808L160.076 43.7472C159.737 43.6181 159.509 43.5115 159.364 43.3921C159.229 43.2807 159.169 43.1599 159.169 42.9842H158.919ZM159.987 43.9808C160.429 44.1493 160.749 44.339 160.958 44.5701C161.163 44.7972 161.269 45.0723 161.269 45.4305H161.519C161.519 45.0161 161.394 44.6796 161.143 44.4024C160.896 44.1293 160.535 43.922 160.076 43.7472L159.987 43.9808ZM161.269 45.4305C161.269 45.8516 161.107 46.2044 160.806 46.4541C160.503 46.7057 160.048 46.8612 159.452 46.8612V47.1112C160.09 47.1112 160.606 46.9448 160.966 46.6465C161.327 46.3464 161.519 45.9213 161.519 45.4305H161.269ZM159.452 46.8612C158.902 46.8612 158.399 46.7258 158.056 46.5244L157.929 46.7399C158.317 46.9676 158.865 47.1112 159.452 47.1112V46.8612ZM162.826 40.4413L162.794 40.3206L162.701 40.3454V40.4413H162.826ZM163.749 40.1946H163.874V40.0317L163.717 40.0738L163.749 40.1946ZM163.749 41.6859H163.624V41.8109H163.749V41.6859ZM165.101 41.6859H165.226V41.5609H165.101V41.6859ZM165.101 42.4048V42.5298H165.226V42.4048H165.101ZM163.749 42.4048V42.2798H163.624V42.4048H163.749ZM165.004 46.1493L165.129 46.1418L165.12 45.9883L164.971 46.0287L165.004 46.1493ZM165.047 46.8574L165.095 46.973L165.177 46.939L165.172 46.8499L165.047 46.8574ZM163.191 46.5892L163.285 46.5068L163.281 46.5026L163.191 46.5892ZM162.826 42.4048H162.951V42.2798H162.826V42.4048ZM162.021 42.4048H161.896V42.5298H162.021V42.4048ZM162.021 41.6859V41.5609H161.896V41.6859H162.021ZM162.826 41.6859V41.8109H162.951V41.6859H162.826ZM162.858 40.5621L163.781 40.3153L163.717 40.0738L162.794 40.3206L162.858 40.5621ZM163.624 40.1946V41.6859H163.874V40.1946H163.624ZM163.749 41.8109H165.101V41.5609H163.749V41.8109ZM164.976 41.6859V42.4048H165.226V41.6859H164.976ZM165.101 42.2798H163.749V42.5298H165.101V42.2798ZM163.624 42.4048V45.2051H163.874V42.4048H163.624ZM163.624 45.2051C163.624 45.5337 163.669 45.8161 163.801 46.0188C163.94 46.2329 164.161 46.3387 164.457 46.3387V46.0887C164.228 46.0887 164.095 46.012 164.011 45.8828C163.92 45.7422 163.874 45.5203 163.874 45.2051H163.624ZM164.457 46.3387C164.715 46.3387 164.908 46.3051 165.037 46.2699L164.971 46.0287C164.864 46.0579 164.693 46.0887 164.457 46.0887V46.3387ZM164.879 46.1569L164.922 46.865L165.172 46.8499L165.129 46.1418L164.879 46.1569ZM165 46.7419C164.837 46.8087 164.565 46.8612 164.21 46.8612V47.1112C164.585 47.1112 164.892 47.0564 165.095 46.973L165 46.7419ZM164.21 46.8612C163.796 46.8612 163.481 46.7303 163.285 46.5069L163.097 46.6715C163.352 46.9631 163.745 47.1112 164.21 47.1112V46.8612ZM163.281 46.5026C163.049 46.2613 162.951 45.8445 162.951 45.2373H162.701C162.701 45.8533 162.796 46.3592 163.101 46.6759L163.281 46.5026ZM162.951 45.2373V42.4048H162.701V45.2373H162.951ZM162.826 42.2798H162.021V42.5298H162.826V42.2798ZM162.146 42.4048V41.6859H161.896V42.4048H162.146ZM162.021 41.8109H162.826V41.5609H162.021V41.8109ZM162.951 41.6859V40.4413H162.701V41.6859H162.951ZM170.7 46.8789V47.0039H170.788L170.817 46.921L170.7 46.8789ZM169.67 46.8789L169.551 46.9177L169.579 47.0039H169.67V46.8789ZM167.309 39.6474V39.5224H167.137L167.19 39.6861L167.309 39.6474ZM168.318 39.6474L168.437 39.6097L168.409 39.5224H168.318V39.6474ZM169.444 43.2095L169.325 43.2472L169.325 43.2474L169.444 43.2095ZM170.217 45.9133L170.095 45.941L170.117 46.0383H170.217V45.9133ZM170.238 45.9133V46.0383H170.337L170.36 45.9429L170.238 45.9133ZM171.065 43.2202L170.946 43.1797L170.946 43.1799L171.065 43.2202ZM172.288 39.6474V39.5224H172.198L172.169 39.6069L172.288 39.6474ZM173.285 39.6474L173.403 39.6894L173.463 39.5224H173.285V39.6474ZM170.7 46.7539H169.67V47.0039H170.7V46.7539ZM169.789 46.8401L167.428 39.6086L167.19 39.6861L169.551 46.9177L169.789 46.8401ZM167.309 39.7724H168.318V39.5224H167.309V39.7724ZM168.199 39.6851L169.325 43.2472L169.564 43.1718L168.437 39.6097L168.199 39.6851ZM169.325 43.2474C169.636 44.2236 169.903 45.099 170.095 45.941L170.339 45.8855C170.144 45.0323 169.875 44.1481 169.564 43.1715L169.325 43.2474ZM170.217 46.0383H170.238V45.7883H170.217V46.0383ZM170.36 45.9429C170.562 45.112 170.861 44.2049 171.183 43.2605L170.946 43.1799C170.624 44.1239 170.322 45.0407 170.117 45.8837L170.36 45.9429ZM171.183 43.2607L172.406 39.6878L172.169 39.6069L170.946 43.1797L171.183 43.2607ZM172.288 39.7724H173.285V39.5224H172.288V39.7724ZM173.168 39.6053L170.582 46.8368L170.817 46.921L173.403 39.6894L173.168 39.6053ZM177.85 44.4541V44.5791H177.962L177.974 44.4679L177.85 44.4541ZM174.202 44.4541V44.3291H174.075L174.077 44.4562L174.202 44.4541ZM177.421 45.9884L177.542 45.9594L177.508 45.8155L177.372 45.8733L177.421 45.9884ZM177.582 46.6643L177.633 46.7782L177.727 46.7358L177.703 46.6354L177.582 46.6643ZM174.213 43.7781L174.088 43.7639L174.072 43.9031H174.213V43.7781ZM176.97 43.7781V43.9031H177.093L177.095 43.7804L176.97 43.7781ZM177.85 44.3291H174.202V44.5791H177.85V44.3291ZM174.077 44.4562C174.088 45.1222 174.308 45.6086 174.663 45.9272C175.016 46.244 175.489 46.3816 175.983 46.3816V46.1316C175.533 46.1316 175.126 46.0064 174.83 45.7411C174.536 45.4776 174.337 45.0628 174.327 44.452L174.077 44.4562ZM175.983 46.3816C176.677 46.3816 177.101 46.2598 177.47 46.1034L177.372 45.8733C177.032 46.0173 176.641 46.1316 175.983 46.1316V46.3816ZM177.299 46.0173L177.46 46.6933L177.703 46.6354L177.542 45.9594L177.299 46.0173ZM177.53 46.5504C177.214 46.6933 176.663 46.8612 175.854 46.8612V47.1112C176.698 47.1112 177.284 46.9358 177.633 46.7782L177.53 46.5504ZM175.854 46.8612C175.083 46.8612 174.48 46.6084 174.068 46.1783C173.656 45.7474 173.426 45.1262 173.426 44.3682H173.176C173.176 45.1768 173.422 45.8646 173.888 46.351C174.353 46.8383 175.027 47.1112 175.854 47.1112V46.8612ZM173.426 44.3682C173.426 43.6086 173.649 42.9385 174.047 42.4606C174.443 41.9849 175.017 41.6929 175.736 41.6929V41.4429C174.943 41.4429 174.299 41.7678 173.855 42.3007C173.413 42.8314 173.176 43.5614 173.176 44.3682H173.426ZM175.736 41.6929C176.54 41.6929 177.038 42.043 177.341 42.5018C177.648 42.9674 177.757 43.5526 177.757 44.0142H178.007C178.007 43.5208 177.891 42.8829 177.549 42.3641C177.203 41.8384 176.628 41.4429 175.736 41.4429V41.6929ZM177.757 44.0142C177.757 44.1987 177.737 44.3406 177.726 44.4403L177.974 44.4679C177.985 44.3745 178.007 44.2159 178.007 44.0142H177.757ZM174.213 43.9031H176.97V43.6531H174.213V43.9031ZM177.095 43.7804C177.101 43.4648 177.037 43.0545 176.823 42.7187C176.605 42.3752 176.236 42.1188 175.661 42.1188V42.3688C176.148 42.3688 176.439 42.5792 176.612 42.8527C176.791 43.1338 176.85 43.4906 176.845 43.7759L177.095 43.7804ZM175.661 42.1188C175.139 42.1188 174.761 42.3615 174.508 42.6891C174.258 43.0129 174.128 43.4196 174.088 43.7639L174.337 43.7924C174.372 43.4821 174.49 43.1217 174.706 42.842C174.919 42.5661 175.228 42.3688 175.661 42.3688V42.1188ZM179.051 46.8789H178.926V47.0039H179.051V46.8789ZM179.008 41.6859V41.5609H178.874L178.884 41.6953L179.008 41.6859ZM179.845 41.6859L179.97 41.6781L179.963 41.5609H179.845V41.6859ZM179.899 42.5443L179.774 42.5521L179.782 42.6693H179.899V42.5443ZM179.92 42.5443V42.6693H179.996L180.031 42.6021L179.92 42.5443ZM183.472 46.8789V47.0039H183.597V46.8789H183.472ZM182.528 46.8789H182.403V47.0039H182.528V46.8789ZM180.06 43.3168L180.178 43.3596L180.179 43.3534L180.06 43.3168ZM179.996 46.8789V47.0039H180.121V46.8789H179.996ZM179.176 46.8789V43.0915H178.926V46.8789H179.176ZM179.176 43.0915C179.176 42.5534 179.166 42.1101 179.133 41.6766L178.884 41.6953C178.916 42.1201 178.926 42.5566 178.926 43.0915H179.176ZM179.008 41.8109H179.845V41.5609H179.008V41.8109ZM179.721 41.6937L179.774 42.5521L180.024 42.5365L179.97 41.6781L179.721 41.6937ZM179.899 42.6693H179.92V42.4193H179.899V42.6693ZM180.031 42.6021C180.269 42.1469 180.829 41.6929 181.637 41.6929V41.4429C180.729 41.4429 180.087 41.9546 179.81 42.4864L180.031 42.6021ZM181.637 41.6929C181.974 41.6929 182.4 41.7939 182.741 42.0983C183.078 42.3997 183.347 42.9153 183.347 43.7781H183.597C183.597 42.8599 183.308 42.2704 182.907 41.912C182.51 41.5565 182.019 41.4429 181.637 41.4429V41.6929ZM183.347 43.7781V46.8789H183.597V43.7781H183.347ZM183.472 46.7539H182.528V47.0039H183.472V46.7539ZM182.653 46.8789V43.8854H182.403V46.8789H182.653ZM182.653 43.8854C182.653 43.4549 182.573 43.0426 182.364 42.7343C182.15 42.4184 181.809 42.2261 181.326 42.2261V42.4761C181.733 42.4761 181.993 42.6326 182.157 42.8746C182.327 43.1243 182.403 43.4791 182.403 43.8854H182.653ZM181.326 42.2261C180.641 42.2261 180.115 42.7101 179.94 43.2802L180.179 43.3534C180.327 42.872 180.767 42.4761 181.326 42.4761V42.2261ZM179.942 43.2741C179.893 43.4105 179.871 43.5872 179.871 43.7567H180.121C180.121 43.6043 180.141 43.4591 180.177 43.3595L179.942 43.2741ZM179.871 43.7567V46.8789H180.121V43.7567H179.871ZM179.996 46.7539H179.051V47.0039H179.996V46.7539ZM189.348 41.6859H189.473V41.5609H189.348V41.6859ZM189.391 46.8789V47.0039H189.526L189.516 46.8691L189.391 46.8789ZM188.554 46.8789L188.429 46.8868L188.437 47.0039H188.554V46.8789ZM188.5 46.0313L188.625 46.0234L188.618 45.9063H188.5V46.0313ZM188.479 46.0313V45.9063H188.408L188.371 45.9678L188.479 46.0313ZM184.971 41.6859V41.5609H184.846V41.6859H184.971ZM185.915 41.6859H186.04V41.5609H185.915V41.6859ZM188.318 45.3553L188.434 45.4028L188.435 45.4002L188.318 45.3553ZM188.404 41.6859V41.5609H188.279V41.6859H188.404ZM189.223 41.6859V45.4626H189.473V41.6859H189.223ZM189.223 45.4626C189.223 46.0003 189.234 46.4762 189.266 46.8887L189.516 46.8691C189.484 46.4662 189.473 45.9979 189.473 45.4626H189.223ZM189.391 46.7539H188.554V47.0039H189.391V46.7539ZM188.679 46.871L188.625 46.0234L188.376 46.0392L188.429 46.8868L188.679 46.871ZM188.5 45.9063H188.479V46.1563H188.5V45.9063ZM188.371 45.9678C188.14 46.3604 187.628 46.8719 186.762 46.8719V47.1219C187.742 47.1219 188.325 46.539 188.587 46.0948L188.371 45.9678ZM186.762 46.8719C186.376 46.8719 185.964 46.7653 185.648 46.4545C185.333 46.1445 185.096 45.6126 185.096 44.7223H184.846C184.846 45.656 185.096 46.2614 185.473 46.6327C185.849 47.0032 186.333 47.1219 186.762 47.1219V46.8719ZM185.096 44.7223V41.6859H184.846V44.7223H185.096ZM184.971 41.8109H185.915V41.5609H184.971V41.8109ZM185.79 41.6859V44.5614H186.04V41.6859H185.79ZM185.79 44.5614C185.79 45.0633 185.865 45.5049 186.066 45.8243C186.274 46.154 186.606 46.3387 187.073 46.3387V46.0887C186.683 46.0887 186.435 45.9408 186.278 45.6911C186.114 45.4311 186.04 45.0465 186.04 44.5614H185.79ZM187.073 46.3387C187.77 46.3387 188.248 45.8553 188.434 45.4028L188.202 45.3079C188.045 45.6922 187.643 46.0887 187.073 46.0887V46.3387ZM188.435 45.4002C188.494 45.2456 188.529 45.0586 188.529 44.8725H188.279C188.279 45.0297 188.249 45.1861 188.201 45.3105L188.435 45.4002ZM188.529 44.8725V41.6859H188.279V44.8725H188.529ZM188.404 41.8109H189.348V41.5609H188.404V41.8109ZM195.086 44.4541V44.5791H195.198L195.21 44.4679L195.086 44.4541ZM191.438 44.4541V44.3291H191.311L191.313 44.4562L191.438 44.4541ZM194.657 45.9884L194.778 45.9594L194.744 45.8155L194.608 45.8733L194.657 45.9884ZM194.818 46.6643L194.869 46.7782L194.963 46.7358L194.939 46.6354L194.818 46.6643ZM191.449 43.7781L191.325 43.7639L191.309 43.9031H191.449V43.7781ZM194.206 43.7781V43.9031H194.329L194.331 43.7804L194.206 43.7781ZM195.086 44.3291H191.438V44.5791H195.086V44.3291ZM191.313 44.4562C191.324 45.1222 191.544 45.6086 191.899 45.9272C192.252 46.244 192.725 46.3816 193.219 46.3816V46.1316C192.769 46.1316 192.362 46.0064 192.066 45.7411C191.772 45.4776 191.573 45.0628 191.563 44.452L191.313 44.4562ZM193.219 46.3816C193.913 46.3816 194.337 46.2598 194.706 46.1034L194.608 45.8733C194.268 46.0173 193.877 46.1316 193.219 46.1316V46.3816ZM194.535 46.0173L194.696 46.6933L194.939 46.6354L194.778 45.9594L194.535 46.0173ZM194.766 46.5504C194.45 46.6933 193.899 46.8612 193.09 46.8612V47.1112C193.934 47.1112 194.52 46.9358 194.869 46.7782L194.766 46.5504ZM193.09 46.8612C192.319 46.8612 191.716 46.6084 191.304 46.1783C190.892 45.7474 190.662 45.1262 190.662 44.3682H190.412C190.412 45.1768 190.658 45.8646 191.124 46.351C191.59 46.8383 192.263 47.1112 193.09 47.1112V46.8612ZM190.662 44.3682C190.662 43.6086 190.885 42.9385 191.283 42.4606C191.679 41.9849 192.253 41.6929 192.972 41.6929V41.4429C192.179 41.4429 191.535 41.7678 191.091 42.3007C190.649 42.8314 190.412 43.5614 190.412 44.3682H190.662ZM192.972 41.6929C193.776 41.6929 194.274 42.043 194.577 42.5018C194.884 42.9674 194.993 43.5526 194.993 44.0142H195.243C195.243 43.5208 195.127 42.8829 194.785 42.3641C194.439 41.8384 193.864 41.4429 192.972 41.4429V41.6929ZM194.993 44.0142C194.993 44.1987 194.973 44.3406 194.962 44.4403L195.21 44.4679C195.221 44.3745 195.243 44.2159 195.243 44.0142H194.993ZM191.449 43.9031H194.206V43.6531H191.449V43.9031ZM194.331 43.7804C194.337 43.4648 194.273 43.0545 194.06 42.7187C193.842 42.3752 193.472 42.1188 192.897 42.1188V42.3688C193.384 42.3688 193.675 42.5792 193.848 42.8527C194.027 43.1338 194.086 43.4906 194.081 43.7759L194.331 43.7804ZM192.897 42.1188C192.375 42.1188 191.997 42.3615 191.744 42.6891C191.494 43.0129 191.364 43.4196 191.325 43.7639L191.573 43.7924C191.608 43.4821 191.726 43.1217 191.942 42.842C192.155 42.5661 192.464 42.3688 192.897 42.3688V42.1188Z" fill="#23085A"/>
</svg>
