<?xml version="1.0" encoding="UTF-8"?>
<svg id="katman_2" data-name="katman 2" xmlns="http://www.w3.org/2000/svg" viewBox="0 0 617.15 185.8">
  <g id="katman_1" data-name="katman 1">
    <g>
      <g>
        <path d="M253.71,68.22v16.33c-2.5,1.64-7.56,4.63-16.21,4.63-13.04,0-22.73-9.38-22.73-21.94s9.69-22,22.91-22c8.17,0,12.67,2.93,14.26,4.02l-2.86,5c-1.16-.91-4.87-3.17-11.03-3.17-9.44,0-16.82,6.64-16.82,16.15s7.56,16.27,16.57,16.27c4.2,0,7.56-.97,9.87-2.07v-13.22h6.03Z" fill="#000"/>
        <path d="M261.27,45.12h6.09v43.51h-6.09v-43.51Z" fill="#000"/>
        <path d="M274.13,74.68c0-8.35,6.7-14.56,14.93-14.56s14.87,6.22,14.87,14.56-6.7,14.5-14.87,14.5-14.93-6.22-14.93-14.5ZM297.77,74.68c0-5.12-3.9-9.08-8.71-9.08s-8.77,3.96-8.77,9.08,3.9,8.96,8.77,8.96,8.71-3.96,8.71-8.96Z" fill="#000"/>
        <path d="M339.88,74.62c0,8.35-5.97,14.56-13.65,14.56-4.69,0-8.1-2.07-10.3-4.87l-.24,4.33h-5.12v-43.51h6.03v19.44c2.07-2.56,5.36-4.51,9.81-4.51,7.68,0,13.47,6.21,13.47,14.56ZM333.79,74.62c0-5.18-3.84-9.02-8.65-9.02-5.24,0-8.77,3.84-8.77,9.02s3.53,9.02,8.77,9.02c4.81,0,8.65-3.84,8.65-9.02Z" fill="#000"/>
        <path d="M374.19,60.6v28.03h-5.36l-.24-4.45c-2.07,2.86-5.48,5-10.18,5-7.68,0-13.53-6.22-13.53-14.56s5.91-14.56,13.59-14.56c4.51,0,7.86,1.83,9.99,4.26l.24-3.72h5.48ZM368.4,74.62c-.06-5.18-3.53-9.02-8.77-9.02-4.81,0-8.65,3.84-8.65,9.02s3.84,9.02,8.65,9.02c5.24,0,8.77-3.84,8.77-9.02Z" fill="#000"/>
        <path d="M382.72,45.12h6.09v43.51h-6.09v-43.51Z" fill="#000"/>
        <path d="M409.72,84.43l3.23-5.12c3.47,2.74,7.92,4.33,12.61,4.33,4.94,0,8.41-2.32,8.41-6.58s-2.68-6.15-9.63-7.86c-7.86-2.01-12.92-5.06-12.92-12.13s6.03-11.82,14.5-11.82c6.34,0,10.6,1.65,13.65,4.14l-2.99,4.75c-2.99-2.19-5.97-3.35-10.66-3.35s-8.17,2.13-8.17,5.97,3.11,5.24,9.2,6.82c8.35,2.19,13.34,5.42,13.34,12.98,0,7.98-6.34,12.61-14.69,12.61-6.58,0-11.88-1.71-15.9-4.75Z" fill="#000"/>
        <path d="M445.31,74.68c0-8.29,6.64-14.62,15.23-14.62,5.12,0,8.04,1.65,9.93,3.05l-2.62,4.51c-1.52-1.04-3.66-2.01-6.64-2.01-5.79,0-9.69,3.84-9.69,9.08s3.9,8.96,9.45,8.96c3.29,0,5.3-.97,6.89-1.95l2.5,4.57c-1.95,1.22-4.69,2.92-9.81,2.92-9.02,0-15.23-6.34-15.23-14.5Z" fill="#000"/>
        <path d="M503.93,73.09v15.54h-6.09v-14.68c0-5.06-3.05-8.41-7.5-8.41-5.06,0-7.74,4.02-7.8,7.86v15.23h-6.09v-43.51h6.03v19.01c1.77-2.32,4.81-4.08,9.02-4.08,7.37,0,12.43,5.18,12.43,13.04Z" fill="#000"/>
        <path d="M510.15,74.68c0-8.35,6.7-14.56,14.93-14.56s14.87,6.22,14.87,14.56-6.7,14.5-14.87,14.5-14.93-6.22-14.93-14.5ZM533.79,74.68c0-5.12-3.9-9.08-8.71-9.08s-8.77,3.96-8.77,9.08,3.9,8.96,8.77,8.96,8.71-3.96,8.71-8.96Z" fill="#000"/>
        <path d="M544.82,74.68c0-8.35,6.7-14.56,14.93-14.56s14.87,6.22,14.87,14.56-6.7,14.5-14.87,14.5-14.93-6.22-14.93-14.5ZM568.46,74.68c0-5.12-3.9-9.08-8.71-9.08s-8.77,3.96-8.77,9.08,3.9,8.96,8.77,8.96,8.71-3.96,8.71-8.96Z" fill="#000"/>
        <path d="M581.38,45.12h6.09v43.51h-6.09v-43.51Z" fill="#000"/>
        <path d="M593.88,85.71l2.68-4.63c2.19,1.65,5.42,3.11,9.45,3.11,3.11,0,5-1.16,5-3.29,0-1.95-1.46-2.92-5.91-4.02-5.48-1.34-9.99-3.47-9.99-8.47s4.39-8.29,10.97-8.29c4.69,0,8.35,1.34,10.72,3.05l-2.5,4.51c-2.74-1.65-5.24-2.56-8.53-2.56-2.62,0-4.51.91-4.51,2.99,0,1.83,1.71,2.56,6.46,3.72,5.91,1.52,9.45,3.53,9.45,8.77s-4.39,8.59-11.52,8.59c-4.81,0-8.65-1.4-11.76-3.47Z" fill="#000"/>
      </g>
      <g>
        <path d="M242.08,111.68c0,7.01-5.29,10.9-12.75,10.9l-5.97.05v9.81h-4.66v-31.8h10.81c7.33,0,12.57,4.07,12.57,11.04ZM237.24,111.64c0-4.12-3.17-6.83-7.96-6.83h-5.92v13.61h5.92c4.84,0,7.96-2.67,7.96-6.78Z" fill="#000"/>
        <path d="M259.27,111.37l-.36,4.52c-.59-.23-1.13-.36-1.99-.36-3.89,0-5.88,2.89-5.92,5.83v11.08h-4.52v-20.81h3.84l.18,4.07c.86-2.44,3.35-4.48,7.06-4.48.63,0,1.22.05,1.72.14Z" fill="#000"/>
        <path d="M260.77,122.09c0-6.2,4.97-10.81,11.08-10.81s11.04,4.61,11.04,10.81-4.97,10.76-11.04,10.76-11.08-4.61-11.08-10.76ZM278.32,122.09c0-3.8-2.89-6.74-6.47-6.74s-6.51,2.94-6.51,6.74,2.89,6.65,6.51,6.65,6.47-2.94,6.47-6.65Z" fill="#000"/>
        <path d="M308.21,111.68v19.54c0,5.97-3.94,10.45-11.17,10.45-4.61,0-7.51-1.22-9.5-2.67l1.94-3.3c1.67,1.04,4.12,2.08,7.28,2.08,4.3,0,6.97-2.58,6.97-6.01v-2.17c-1.58,1.85-3.94,3.26-7.15,3.26-5.7,0-10.04-4.61-10.04-10.81s4.39-10.81,10.09-10.81c3.57,0,6.15,1.58,7.69,3.57l.14-3.12h3.75ZM304.01,122.04c-.05-3.84-2.62-6.69-6.51-6.69-3.57,0-6.42,2.85-6.42,6.69s2.85,6.69,6.42,6.69c3.89,0,6.51-2.85,6.51-6.69Z" fill="#000"/>
        <path d="M327.3,111.37l-.36,4.52c-.59-.23-1.13-.36-1.99-.36-3.89,0-5.88,2.89-5.92,5.83v11.08h-4.52v-20.81h3.84l.18,4.07c.86-2.44,3.35-4.48,7.06-4.48.63,0,1.22.05,1.72.14Z" fill="#000"/>
        <path d="M350.6,111.64v20.81h-3.98l-.18-3.3c-1.54,2.13-4.07,3.71-7.55,3.71-5.7,0-10.04-4.61-10.04-10.81s4.39-10.81,10.09-10.81c3.35,0,5.83,1.36,7.42,3.17l.18-2.76h4.07ZM346.3,122.04c-.05-3.84-2.62-6.69-6.51-6.69-3.57,0-6.42,2.85-6.42,6.69s2.85,6.69,6.42,6.69c3.89,0,6.51-2.85,6.51-6.69Z" fill="#000"/>
        <path d="M391.31,120.91v11.53h-4.48v-10.95c0-3.75-1.9-6.2-5.07-6.2s-5.38,2.71-5.38,6.06v11.08h-4.52v-10.95c0-3.75-1.99-6.2-5.07-6.2-3.26,0-5.11,2.53-5.38,5.25l-.05,11.9h-4.52v-20.81h3.44l.18,3.71c1.18-2.26,3.8-4.12,7.06-4.12,3.48,0,6.15,1.63,7.6,4.21,1.22-2.26,3.8-4.21,7.1-4.21,5.43,0,9.09,3.84,9.09,9.68Z" fill="#000"/>
      </g>
      <g>
        <g>
          <path d="M94.28.03l.26,17.46c19.38.66,36.91,8.63,49.91,21.23l11-13.62C139.36,10.03,117.92.62,94.28.03Z" fill="#4c9f38"/>
          <path d="M155.44,25.11l-11,13.62c11.09,10.75,18.9,24.88,21.75,40.73h17.67c-3.09-21.32-13.42-40.3-28.41-54.35Z" fill="#c5192d"/>
          <path d="M137.89,152.75c-11.83,9.1-26.45,14.77-42.35,15.52v17.46c20.02-.77,38.42-7.87,53.24-19.37l-10.9-13.62Z" fill="#26bde2"/>
          <path d="M91.93,168.36c-15.1,0-29.15-4.44-40.95-12.07l-10.82,13.76c14.79,9.95,32.6,15.75,51.77,15.75,1.21,0,2.42-.03,3.62-.07v-17.46c-1.2.06-2.41.09-3.62.09Z" fill="#fcc30b"/>
          <path d="M46.98,32.29l-10.7-13.78C17.05,32.91,3.61,54.59,0,79.46h17.67c3.46-19.24,14.22-35.95,29.31-47.16Z" fill="#e8203a"/>
          <path d="M17.71,106.52H.03c3.88,26.44,18.89,49.25,40.13,63.53l10.82-13.76c-17.13-11.09-29.48-28.94-33.27-49.77Z" fill="#a21942"/>
          <path d="M183.84,106.52h-17.68c-3.42,18.74-13.75,35.06-28.27,46.23l10.9,13.62c18.53-14.36,31.48-35.58,35.04-59.85Z" fill="#ff3a21"/>
          <path d="M91.93,17.44c.87,0,1.74.02,2.6.05L94.28.03c-.78-.02-1.56-.03-2.35-.03-20.88,0-40.14,6.89-55.66,18.51l10.7,13.78c12.56-9.33,28.11-14.85,44.95-14.85Z" fill="#dda63a"/>
        </g>
        <g>
          <path d="M135.34,42.03l-8.26,9.45c-7.8-6.62-17.17-10.78-26.97-12.27-12.9-1.96-26.49.69-38.14,8.39l-7.44-10.13c14.11-9.53,30.62-12.96,46.34-10.84,12.53,1.69,24.55,6.92,34.47,15.4Z" fill="#dd1268"/>
          <path d="M155.95,112.23c-3.89,12.93-11.71,24.78-23.13,33.59l-7.29-10.24c9.01-7.08,15.21-16.5,18.35-26.78,3.45-11.31,3.19-23.66-1.12-35.05l11.32-5.56c5.68,14.25,6.16,29.8,1.87,44.04Z" fill="#ff9f24"/>
          <path d="M132.82,145.82c-.69.53-1.38,1.05-2.09,1.55-11.24,8-24.11,12.04-36.93,12.39-16.46.44-32.85-5.2-45.66-16.32l9.12-8.76c10.52,8.74,23.82,13.07,37.14,12.48,10.1-.44,20.2-3.72,29.05-10.02.71-.5,1.4-1.03,2.08-1.57l7.29,10.24Z" fill="#bf8b2e"/>
          <path d="M61.96,47.6c-.52.34-1.03.69-1.54,1.06-9.87,7.04-16.69,16.77-20.15,27.48-3.81,11.74-3.56,24.66,1.06,36.5l-12.15,3.37c-5.22-14.16-5.41-29.49-.95-43.47,4.24-13.29,12.66-25.38,24.9-34.1.46-.33.92-.65,1.38-.96l7.44,10.13Z" fill="#ff6924"/>
        </g>
        <g>
          <path d="M48.29,78.46l8.16,2.81c-2.19,6.68-2.41,13.73-.82,20.35,2.1,8.72,7.31,16.69,15.23,22.1l-4.52,7.36c-9.73-6.51-16.19-16.13-18.92-26.69-2.17-8.41-1.96-17.42.86-25.94Z" fill="#0a97d9"/>
          <path d="M87.64,47.14c9.24-.87,18.81,1.03,27.38,6.02l-4.63,7.3c-6.84-3.9-14.45-5.4-21.81-4.74-8.1.74-15.89,4.11-22.02,9.8l-6.47-5.77c7.6-7.31,17.38-11.65,27.55-12.61Z" fill="#56c22b"/>
          <path d="M115.02,53.15c.52.3,1.03.61,1.53.93,8.01,5.08,13.91,12.22,17.46,20.3,4.55,10.37,5.21,22.26,1.45,33.3l-7.94-3.53c2.84-8.96,2.14-18.56-1.69-26.88-2.9-6.32-7.6-11.89-13.91-15.89-.5-.32-1.02-.63-1.54-.92l4.63-7.3Z" fill="#00689d"/>
          <path d="M70.86,123.73c.35.24.71.48,1.07.71,7.04,4.46,15,6.27,22.72,5.7,8.46-.62,16.62-4.13,22.96-10.14l5.3,6.86c-7.66,7-17.37,11.09-27.43,11.88-9.56.75-19.44-1.48-28.16-7.01-.33-.21-.65-.41-.97-.63l4.52-7.36Z" fill="#3f7e44"/>
        </g>
        <path d="M72.68,74.77c-4.3,4.57-7,10.67-7.18,17.4l4.97-.06c.2-5.52,2.48-10.5,6.08-14.2,2.37-2.43,5.31-4.3,8.61-5.39v-5.17c-4.84,1.28-9.14,3.88-12.48,7.42Z" fill="#19486a"/>
        <path d="M112.89,76.77c-3.53-4.58-8.53-7.96-14.3-9.46v5.19c4.18,1.36,7.8,3.95,10.41,7.36,2.58,3.38,4.18,7.54,4.39,12.07h4.97c-.2-5.69-2.21-10.93-5.47-15.16Z" fill="#19486a"/>
        <path d="M118.36,91.94h-4.97c.02.33.03.67.02,1.02-.01,4.3-1.28,8.3-3.47,11.65-2.65,4.07-6.65,7.18-11.36,8.71v5.18c6.31-1.64,11.71-5.54,15.27-10.8,2.84-4.21,4.51-9.27,4.52-14.73,0-.34,0-.69-.02-1.03Z" fill="#19486a"/>
        <path d="M74.64,105.66c-2.65-3.58-4.21-8.01-4.19-12.81,0-.25,0-.5.02-.74l-4.97.06c0,.22,0,.44,0,.67-.02,5.95,1.93,11.43,5.23,15.86,3.47,4.66,8.44,8.13,14.2,9.71l.24-.66v-4.46c-4.25-1.41-7.91-4.09-10.51-7.62Z" fill="#19486a"/>
      </g>
    </g>
  </g>
</svg>
