<svg width="151" height="27" viewBox="0 0 151 27" fill="none" xmlns="http://www.w3.org/2000/svg">
<path d="M1.27292 20.0117V0.635254H3.65964V17.7882H13.5248V20.0117H1.27292Z" fill="#000"/>
<path d="M20.0485 6.03516C20.6849 6.03516 21.4805 6.03516 22.117 6.19398C22.7534 6.3528 23.3899 6.51163 23.8672 6.82927C24.3446 7.14692 24.8219 7.62339 25.1402 8.25869C25.4584 8.89398 25.6175 9.6881 25.6175 10.4822V20.0116H23.3899V18.8999C23.0717 19.3763 22.5943 19.694 21.9579 19.8528C21.1623 20.1705 20.3667 20.3293 19.5711 20.1704C18.2982 20.3293 17.0253 19.8528 15.9115 19.0587C15.1159 18.2646 14.6386 17.3116 14.6386 16.1999C14.6386 15.7234 14.7977 15.0881 14.9568 14.6116C15.1159 14.1352 15.4342 13.6587 15.7524 13.341C16.0706 13.0234 16.548 12.7057 17.1844 12.3881C17.8209 12.2293 18.4573 12.0705 19.0938 12.0705H23.3899V10.4822C23.3899 9.84692 23.2308 9.21163 22.5943 8.73516C21.7987 8.25869 21.0032 8.09986 20.2076 8.25869C19.5711 8.25869 18.7756 8.41751 18.1391 8.57633C17.6618 8.73516 17.1844 9.0528 16.8662 9.52927L15.4342 7.94104C15.9115 7.30574 16.7071 6.82927 17.5026 6.51163C18.2982 6.19398 19.2529 6.03516 20.0485 6.03516ZM16.7071 16.041C16.7071 16.6763 17.0253 17.1528 17.5026 17.6293C18.1391 18.1057 18.9347 18.2646 19.7303 18.2646C20.2076 18.2646 20.5258 18.2646 21.0032 18.1057C21.4805 18.1057 21.7987 17.9469 22.117 17.6293C22.9126 17.1528 23.2308 16.3587 23.2308 15.5646V13.9763H19.412C18.7756 13.9763 17.98 14.1352 17.3435 14.4528C17.0253 14.7705 16.7071 15.4057 16.7071 16.041Z" fill="#000"/>
<path d="M36.5964 20.0116V11.7528C36.5964 10.7999 36.4373 10.0057 35.96 9.21163C35.4826 8.57633 34.687 8.25869 33.4141 8.25869C32.6185 8.25869 31.6639 8.57633 31.1865 9.21163C30.55 9.84692 30.2318 10.7999 30.2318 11.7528V20.0116H28.0042V6.19398H30.2318V7.94104H30.3909C30.8683 7.30574 31.5047 6.82927 32.1412 6.51163C32.7777 6.19398 33.5732 6.03516 34.3688 6.03516C35.0053 6.03516 35.6417 6.19398 36.2782 6.3528C36.7555 6.51163 37.392 6.82927 37.7102 7.30574C38.1876 7.78222 38.5058 8.25869 38.6649 8.73516C38.9831 9.37045 38.9831 10.1646 38.9831 10.7999V19.8528L36.5964 20.0116Z" fill="#000"/>
<path d="M52.0306 19.6939C52.0306 20.6468 51.8715 21.5998 51.5532 22.3939C51.235 23.0292 50.7576 23.6645 50.2803 24.2998C49.803 24.7762 49.0074 25.0939 48.3709 25.4115C47.5754 25.5704 46.9389 25.7292 46.1433 25.7292C45.3477 25.7292 44.5522 25.5704 43.7566 25.4115C42.961 25.0939 42.3246 24.7762 41.6881 24.1409L42.961 22.2351C43.4384 22.5527 43.9157 22.8704 44.3931 23.0292C44.8704 23.3468 45.5069 23.3468 46.1433 23.3468C47.098 23.3468 48.0527 23.0292 48.6892 22.3939C49.3256 21.7586 49.803 20.8057 49.803 19.8527V18.2645C49.3256 18.8998 48.6892 19.3762 48.0527 19.6939C47.4162 20.0115 46.7798 20.0115 46.1433 20.0115C45.3477 20.0115 44.3931 19.8527 43.7566 19.3762C43.1201 19.0586 42.6428 18.4233 42.3246 17.788C42.0063 17.1527 41.6881 16.3586 41.529 15.5645C41.3699 14.7704 41.3699 13.9762 41.3699 13.0233C41.3699 12.0704 41.3699 11.2762 41.529 10.3233C41.6881 9.52918 41.8472 8.73506 42.3246 7.94095C42.6428 7.30565 43.2793 6.67036 43.9157 6.19389C44.7113 5.71742 45.666 5.55859 46.6207 5.55859C47.2571 5.55859 48.0527 5.71742 48.6892 6.03506C49.3256 6.35271 49.803 6.67036 50.2803 7.30565V5.71742H52.5079L52.0306 19.6939ZM43.4384 13.1821C43.4384 13.8174 43.4384 14.4527 43.5975 14.9292C43.5975 15.4057 43.7566 16.0409 44.0748 16.5174C44.2339 16.9939 44.5522 17.3115 45.0295 17.6292C45.5069 17.9468 46.1433 18.1057 46.7798 17.9468C47.4162 17.9468 47.8936 17.788 48.53 17.4704C49.0074 17.1527 49.3256 16.8351 49.4847 16.3586C49.6438 15.8821 49.803 15.4057 49.9621 14.7704C49.9621 14.2939 50.1212 13.6586 50.1212 13.1821C50.1212 12.7057 50.1212 12.2292 50.1212 11.5939C50.1212 11.1174 49.9621 10.4821 49.803 10.0057C49.6438 9.52918 49.3256 9.05271 48.8483 8.73506C48.3709 8.41742 47.7345 8.25859 47.098 8.25859C46.4615 8.25859 45.8251 8.41742 45.3477 8.73506C44.5522 9.05271 44.2339 9.52918 43.9157 9.84683C43.7566 10.3233 43.5975 10.7998 43.4384 11.4351C43.4384 12.0704 43.4384 12.5468 43.4384 13.1821Z" fill="#000"/>
<path d="M63.4868 20.0115V18.4233H63.3277C62.8504 19.0586 62.2139 19.3762 61.5774 19.6938C60.941 20.0115 60.1454 20.1703 59.5089 20.1703C58.8725 20.1703 58.236 20.0115 57.5996 19.8527C56.9631 19.6938 56.4858 19.3762 56.0084 19.0586C55.5311 18.5821 55.2128 18.1056 55.0537 17.6291C54.7355 16.9938 54.7355 16.1997 54.7355 15.4056V6.19385H56.9631V14.4527C56.9631 14.9291 56.9631 15.5644 57.1222 16.0409C57.1222 16.5174 57.4405 16.835 57.5996 17.1527C57.9178 17.4703 58.236 17.6291 58.5543 17.788C59.0316 17.9468 59.5089 17.9468 60.1454 17.9468C60.941 17.9468 61.8957 17.6291 62.373 16.9938C63.0095 16.3586 63.3277 15.4056 63.3277 14.4527V6.19385H65.5553V20.0115H63.4868Z" fill="#000"/>
<path d="M73.3519 6.03516C73.9884 6.03516 74.784 6.03516 75.4204 6.19398C76.0569 6.3528 76.6934 6.51163 77.1707 6.82927C77.6481 7.14692 78.1254 7.62339 78.4436 8.25869C78.7619 8.89398 78.921 9.6881 78.921 10.4822V20.0116H76.6934V18.8999C76.3751 19.3763 75.8978 19.694 75.2613 19.8528C74.4658 20.1705 73.6702 20.3293 72.8746 20.1704C71.6017 20.3293 70.3288 19.8528 69.215 19.0587C68.4194 18.2646 67.942 17.3116 67.942 16.1999C67.942 15.7234 68.1012 15.0881 68.2603 14.6116C68.4194 14.1352 68.7376 13.6587 69.0559 13.341C69.3741 13.0234 69.8514 12.7057 70.3288 12.3881C70.9652 12.2293 71.6017 12.0705 72.2381 12.0705H76.5342V10.4822C76.5342 9.84692 76.3751 9.21163 75.7387 8.73516C74.9431 8.25869 74.1475 8.09986 73.3519 8.25869C72.7155 8.25869 71.9199 8.41751 71.2835 8.57633C70.8061 8.73516 70.3288 9.0528 70.0105 9.52927L68.5785 7.94104C69.0558 7.30574 69.8514 6.82927 70.647 6.51163C71.6017 6.19398 72.5564 6.03516 73.3519 6.03516ZM70.1697 16.041C70.1697 16.6763 70.4879 17.1528 70.9652 17.6293C71.6017 18.1057 72.3973 18.2646 73.1928 18.2646C73.6702 18.2646 73.9884 18.2646 74.4658 18.1057C74.9431 18.1057 75.2613 17.9469 75.5796 17.6293C76.3751 17.1528 76.6934 16.3587 76.6934 15.5646V13.9763H72.8746C72.2381 13.9763 71.4426 14.1352 70.8061 14.4528C70.3288 14.7705 70.1697 15.4057 70.1697 16.041Z" fill="#000"/>
<path d="M91.9684 19.6939C91.9684 20.6468 91.8093 21.5998 91.491 22.3939C90.8546 23.8233 89.7408 24.9351 88.3087 25.2527C87.5132 25.4115 86.8767 25.5704 86.0811 25.5704C85.2855 25.5704 84.49 25.4115 83.6944 25.2527C82.8988 24.9351 82.2624 24.6174 81.6259 23.9821L83.0579 22.0762C83.5353 22.3939 84.0126 22.7115 84.49 22.8704C84.9673 23.188 85.6038 23.188 86.2402 23.188C87.1949 23.188 88.1496 22.8704 88.7861 22.2351C89.4225 21.5998 89.8999 20.6468 89.7408 19.6939V18.1057C89.2634 18.7409 88.627 19.2174 87.9905 19.5351C87.354 19.6939 86.7176 19.8527 86.0811 19.8527C85.2855 19.8527 84.3309 19.6939 83.6944 19.2174C83.0579 18.8998 82.5806 18.2645 82.2624 17.6292C81.9441 16.9939 81.6259 16.1998 81.4668 15.4057C81.3077 14.6115 81.3077 13.8174 81.3077 12.8645C81.3077 11.9115 81.3077 11.1174 81.4668 10.1645C81.6259 9.37036 81.785 8.57624 82.2624 7.78213C82.5806 7.14683 83.2171 6.51154 83.8535 6.03507C85.2856 5.24095 87.0358 5.24095 88.4678 5.87624C89.1043 6.19389 89.5817 6.51154 90.059 7.14683V5.5586H92.2866L91.9684 19.6939ZM83.3762 13.1821C83.3762 13.8174 83.3762 14.4527 83.5353 14.9292C83.5353 15.4057 83.6944 16.0409 84.0126 16.5174C84.1717 16.9939 84.49 17.3115 84.9673 17.6292C85.4447 17.9468 86.0811 18.1057 86.7176 17.9468C87.354 17.9468 87.8314 17.788 88.4678 17.4704C88.9452 17.1527 89.2634 16.8351 89.4225 16.3586C89.7408 15.8821 89.7408 15.4057 89.8999 14.7704C89.8999 14.2939 90.059 13.6586 90.059 13.1821C90.059 12.7057 90.059 12.2292 90.059 11.5939C90.059 11.1174 89.8999 10.4821 89.7408 10.0057C89.1043 9.52919 88.7861 9.05271 88.3087 8.73507C87.8314 8.41742 87.1949 8.2586 86.5585 8.2586C85.922 8.2586 85.2856 8.41742 84.8082 8.73507C84.3309 9.05271 84.0126 9.37036 83.8535 9.84683C83.6944 10.3233 83.5353 10.7998 83.3762 11.4351C83.3762 12.0704 83.3762 12.5468 83.3762 13.1821Z" fill="#000"/>
<path d="M96.7418 13.9766V14.1354C96.7418 14.6118 96.7418 15.2471 96.9009 15.7236C97.0601 16.2001 97.2192 16.6766 97.5374 16.9942C97.8556 17.3119 98.1739 17.6295 98.6512 17.7883C99.1285 17.9471 99.6059 18.106 100.242 18.106C100.72 18.106 101.356 17.9471 101.834 17.7883C102.47 17.6295 102.947 17.3119 103.425 16.8354L104.857 18.4236C104.22 19.0589 103.425 19.5354 102.629 19.853C101.197 20.3295 99.6059 20.3295 98.0147 20.0119C97.3783 19.853 96.7418 19.3766 96.1054 18.9001C95.4689 18.2648 94.9916 17.6295 94.8324 16.8354C94.5142 15.7236 94.3551 14.453 94.3551 13.3413C94.3551 12.2295 94.5142 11.1177 94.8324 10.006C95.1507 9.21185 95.628 8.41773 96.1054 7.78244C96.5827 7.30597 97.2192 6.8295 98.0147 6.67067C98.6512 6.51185 99.2877 6.35303 100.083 6.35303C100.879 6.35303 101.515 6.51185 102.152 6.8295C102.788 7.14715 103.425 7.46479 103.902 7.94126C104.538 8.25891 105.016 8.8942 105.175 9.5295C105.493 10.3236 105.652 11.2766 105.652 12.0707V13.8177L96.7418 13.9766ZM99.9241 8.25891C99.1285 8.25891 98.1739 8.57656 97.6965 9.21185C97.0601 10.006 96.7418 10.9589 96.7418 11.9119H103.266C103.266 10.9589 102.947 9.84714 102.311 9.05303C101.674 8.57656 100.879 8.25891 99.9241 8.25891Z" fill="#000"/>
<path d="M120.291 16.2C119.813 17.4705 119.018 18.4235 117.904 19.2176C116.631 20.0117 115.358 20.3294 113.926 20.1705C112.812 20.1705 111.858 20.0117 110.903 19.5353C109.312 18.9 108.039 17.4705 107.403 15.7235C107.084 14.7705 106.925 13.9764 106.925 13.0235V7.78231C106.925 6.82937 107.084 5.87643 107.403 5.08231C107.721 4.2882 108.039 3.49408 108.675 2.85878C109.312 2.22349 109.948 1.5882 110.903 1.27055C111.858 0.794077 112.812 0.635254 113.926 0.635254C115.358 0.635254 116.79 0.952901 117.904 1.74702C119.018 2.54114 119.813 3.49408 120.291 4.76467L118.063 5.71761C117.745 4.92349 117.268 4.12937 116.631 3.6529C115.836 3.17643 115.04 2.85878 114.085 2.85878C113.449 2.85878 112.653 3.01761 112.176 3.33525C111.699 3.6529 111.221 3.97055 110.744 4.44702C110.426 4.92349 110.107 5.39996 109.948 6.03525C109.789 6.67055 109.63 7.30584 109.63 7.78231V12.8647C109.63 13.5 109.789 14.1353 109.948 14.7705C110.107 15.4058 110.426 15.8823 110.744 16.3588C111.062 16.8353 111.54 17.1529 112.176 17.4705C112.812 17.7882 113.449 17.947 114.085 17.947C115.04 17.947 115.836 17.6294 116.631 17.1529C117.268 16.6764 117.904 15.8823 118.222 15.0882L120.291 16.2Z" fill="#ff3200"/>
<path d="M123.473 13.9764V14.2941C123.473 14.7705 123.632 15.4058 123.632 15.8823C123.791 16.3588 123.95 16.8352 124.269 17.1529C124.587 17.4705 124.905 17.7882 125.382 17.947C125.86 18.1058 126.337 18.2647 126.974 18.2647C127.451 18.2647 128.087 18.1058 128.565 17.947C129.201 17.7882 129.679 17.3117 130.156 16.9941L131.588 18.5823C130.952 19.2176 130.156 19.6941 129.36 20.0117C128.565 20.3294 127.769 20.4882 126.815 20.4882C126.178 20.4882 125.382 20.3294 124.746 20.1705C124.11 20.0117 123.473 19.5352 122.837 19.0588C122.2 18.4235 121.723 17.7882 121.405 16.9941C121.086 15.8823 120.927 14.6117 120.927 13.5C120.927 12.3882 121.086 11.2764 121.405 10.1647C121.723 9.37054 122.2 8.57642 122.837 7.94113C123.314 7.46466 123.95 6.98819 124.746 6.82937C125.382 6.67054 126.019 6.51172 126.815 6.51172C127.61 6.51172 128.247 6.67054 128.883 6.98819C129.519 7.30584 130.156 7.62348 130.633 8.09995C131.111 8.57642 131.588 9.37054 131.747 10.0058C132.065 10.8 132.224 11.7529 132.224 12.547V14.2941L123.473 13.9764ZM126.655 8.4176C125.86 8.4176 124.905 8.73525 124.428 9.37054C123.791 10.1647 123.473 11.1176 123.473 12.0705H129.997C129.997 11.1176 129.679 10.0058 129.042 9.21172C128.406 8.73525 127.61 8.4176 126.655 8.4176Z" fill="#ff3200"/>
<path d="M141.93 9.05267C141.294 8.73502 140.658 8.5762 140.021 8.5762C139.225 8.5762 138.43 8.89385 137.793 9.37032C137.157 10.0056 136.839 10.9586 136.839 11.9115V20.1703H134.611V6.35267H136.839V8.09973H136.998C137.316 7.46444 137.953 6.98796 138.589 6.67032C139.225 6.35267 139.862 6.19385 140.658 6.19385C141.135 6.19385 141.612 6.19385 142.09 6.35267C142.408 6.35267 142.726 6.51149 143.044 6.82914L141.93 9.05267Z" fill="#ff3200"/>
<path d="M147.977 20.1705C147.181 20.1705 146.227 19.8529 145.59 19.3764C144.954 18.7411 144.635 17.7882 144.635 16.9941V8.41758H143.044V6.35287H144.635V3.01758H146.863V6.35287H148.931V8.25875H146.863V16.1999C146.863 16.6764 147.022 16.994 147.181 17.3117C147.34 17.6293 147.818 17.947 148.295 17.7882H149.568V19.8529H147.977V20.1705Z" fill="#ff3200"/>
</svg>
