<?xml version="1.0" encoding="UTF-8"?>
<svg id="katman_2" data-name="katman 2" xmlns="http://www.w3.org/2000/svg" xmlns:xlink="http://www.w3.org/1999/xlink" viewBox="0 0 114.57 114.57">
  <defs>
    <clipPath id="clippath">
      <rect width="114.57" height="114.57" fill="none"/>
    </clipPath>
  </defs>
  <g id="katman_1" data-name="katman 1">
    <g id="g1548">
      <g id="g1550">
        <g clip-path="url(#clippath)">
          <g id="g1552">
            <g id="g1558">
              <path id="path1560" d="M59.53,45.77c2.36-1.39,3.95-3.96,3.95-6.91,0-4.42-3.59-8.01-8.01-8.01s-8.01,3.59-8.01,8.01c0,2.63,1.26,4.96,3.22,6.42" fill="none" stroke="#000" stroke-linecap="round" stroke-linejoin="round" stroke-width="4.48"/>
            </g>
            <g id="g1562">
              <path id="path1564" d="M61.13,58.68c8.62-2.46,14.94-10.4,14.94-19.81,0-11.38-9.22-20.6-20.6-20.6s-20.6,9.22-20.6,20.6c0,9.24,6.09,17.07,14.47,19.67" fill="none" stroke="#000" stroke-linecap="round" stroke-linejoin="round" stroke-width="4.48"/>
            </g>
            <g id="g1566">
              <path id="path1568" d="M84.39,16c-2.45,2.45-6.41,2.45-8.86,0-2.45-2.45-2.45-6.41,0-8.86,2.45-2.45,6.41-2.45,8.86,0,2.45,2.45,2.45,6.41,0,8.86Z" fill="none" stroke="#000" stroke-linecap="round" stroke-linejoin="round" stroke-width="4.48"/>
            </g>
            <g id="g1570">
              <path id="path1572" d="M35.4,70.6c-2.45,2.45-6.41,2.45-8.86,0-2.45-2.45-2.45-6.41,0-8.86,2.45-2.45,6.41-2.45,8.86,0,2.45,2.45,2.45,6.41,0,8.86Z" fill="none" stroke="#000" stroke-linecap="round" stroke-linejoin="round" stroke-width="4.48"/>
            </g>
            <g id="g1574">
              <path id="path1576" d="M61.13,75.06c17.54-2.72,30.96-17.89,30.96-36.19,0-8.3-2.76-15.95-7.41-22.09" fill="none" stroke="#000" stroke-linecap="round" stroke-linejoin="round" stroke-width="4.48"/>
            </g>
            <g id="g1578">
              <path id="path1580" d="M53.32,2.31c-19.23,1.11-34.48,17.06-34.48,36.56,0,8.36,2.8,16.07,7.52,22.23" fill="none" stroke="#000" stroke-linecap="round" stroke-linejoin="round" stroke-width="4.48"/>
            </g>
            <g id="g1582">
              <path id="path1584" d="M95.73,112.33v-26.73c0-3.19-2.58-5.77-5.77-5.77s-5.77,2.58-5.77,5.77v-4.59c0-3.19-2.58-5.77-5.77-5.77s-5.77,2.58-5.77,5.77c0-3.19-2.58-5.77-5.77-5.77s-5.77,2.58-5.77,5.77v-31.25c0-3.19-2.58-5.77-5.77-5.77s-5.77,2.58-5.77,5.77v51.34l-6.96-11.42c-1.71-2.81-5.35-3.74-8.2-2.09h0c-2.75,1.59-3.8,5.02-2.42,7.88l8.35,16.86" fill="none" stroke="#000" stroke-linecap="round" stroke-linejoin="round" stroke-width="4.48"/>
            </g>
            <g id="g1586">
              <path id="path1588" d="M61.13,81.01v11.25" fill="none" stroke="#000" stroke-linecap="round" stroke-linejoin="round" stroke-width="4.48"/>
            </g>
            <g id="g1590">
              <path id="path1592" d="M72.66,81.01v12.06" fill="none" stroke="#000" stroke-linecap="round" stroke-linejoin="round" stroke-width="4.48"/>
            </g>
            <g id="g1594">
              <path id="path1596" d="M84.2,85.6v7.62" fill="none" stroke="#000" stroke-linecap="round" stroke-linejoin="round" stroke-width="4.48"/>
            </g>
            <g id="g1598">
              <path id="path1600" d="M63.39,3.1h0" fill="none" stroke="#000" stroke-linecap="round" stroke-linejoin="round" stroke-width="4.48"/>
            </g>
          </g>
        </g>
      </g>
    </g>
  </g>
</svg>