<?xml version="1.0" encoding="UTF-8"?>
<svg id="katman_2" data-name="katman 2" xmlns="http://www.w3.org/2000/svg" viewBox="0 0 70.95 69.59">
  <g id="katman_1" data-name="katman 1">
    <path d="M65.85,46.71c-.55-.19-1.11-.36-1.67-.51v-13.85c1.92-.25,3.4-1.9,3.4-3.88v-7.82c0-1.53-.88-2.86-2.17-3.5v-2.18c0-8.26-6.72-14.97-14.97-14.97h-4.12c-8.26,0-14.97,6.72-14.97,14.97v1.76c-2.14.02-3.88,1.77-3.88,3.91v7.82c0,1.72,1.12,3.19,2.67,3.71v.99c0,1.72,1,3.2,2.45,3.91v6.41H13.96c-1.42,0-2.57,1.15-2.57,2.57v20.97c0,1.42,1.15,2.57,2.57,2.57h55.75c.69,0,1.24-.56,1.24-1.24v-14.42c0-3.29-2-6.12-5.1-7.22ZM59.49,45.56l-2.17-1.59c-.99-.73-1.51-1.76-1.52-2.99v-1.52c.48-.27.96-.56,1.43-.88,1.82-1.26,3.34-2.87,4.47-4.74v11.88c-.73-.09-1.47-.15-2.21-.17ZM65.1,28.47c0,.79-.65,1.43-1.44,1.43h-1.24c-.79,0-1.43-.64-1.43-1.43v-7.82c0-.79.64-1.43,1.43-1.43h1.24c.79,0,1.44.64,1.44,1.43v7.82ZM46.33,2.48h4.12c6.89,0,12.49,5.6,12.49,12.49v1.76h-.51c-2.06,0-3.76,1.6-3.9,3.63-3.36-.42-6.39-2.17-8.46-4.94-.2-.27-.51-.45-.85-.49-.34-.04-.68.06-.94.28-2.25,1.87-5.08,2.91-7.99,2.91h-1.59c-.69,0-1.24.56-1.24,1.24s.56,1.24,1.24,1.24h1.59c3.07,0,6.07-.96,8.58-2.72,2.5,2.82,5.92,4.59,9.65,4.97v5.61c0,1.29.63,2.43,1.59,3.15-2.21,4.38-6.78,7.25-11.71,7.25-2.06,0-4.02-.48-5.78-1.34h2.5c.69,0,1.24-.56,1.24-1.24s-.56-1.24-1.24-1.24h-5.98c-1.32-1.32-2.37-2.92-3.04-4.75.29-.55.45-1.17.45-1.83v-7.82c0-1.74-1.14-3.21-2.71-3.72v-1.96c0-6.89,5.6-12.49,12.49-12.49h0ZM34.5,35.04c-1.03,0-1.87-.84-1.87-1.87v-.79c.54,0,1.05-.11,1.52-.31.47,1.05,1.06,2.04,1.75,2.96h-1.39ZM29.96,20.65c0-.79.65-1.43,1.44-1.43h1.23c.79,0,1.44.64,1.44,1.43v7.82c0,.79-.65,1.43-1.44,1.43h-1.23c-.79,0-1.44-.64-1.44-1.43v-7.82ZM35.08,37.52h3.11c.3.26.61.51.94.75.48.36.98.68,1.49.98v1.72c-.02.99-.35,1.84-.99,2.51h-4.55v-5.97h0ZM13.96,67.11s-.09-.04-.09-.09v-20.97s.04-.09.09-.09h32.51s.09.04.09.09v20.97s-.04.09-.09.09H13.96ZM49.03,67.11s0-.06,0-.09v-4.09h12.5v2.08c0,1.15-.93,2.09-2.08,2.09h-10.42ZM68.47,67.11h-4.96c.32-.63.51-1.34.51-2.09v-3.32c0-.69-.56-1.24-1.24-1.24h-13.74v-14.4c0-1.42-1.15-2.57-2.57-2.57h-3.91c.34-.77.52-1.61.53-2.5v-.58c1.69.61,3.47.93,5.3.93,1.69,0,3.35-.28,4.93-.8v.45c.01,2.02.91,3.78,2.54,4.97l1.87,1.37c-.79,3.5-3.43,6.35-6.91,7.36-.66.19-1.04.88-.84,1.54.16.54.65.89,1.19.89.12,0,.23-.02.35-.05,4.29-1.25,7.56-4.73,8.59-9.01,1.68.1,3.34.42,4.93.99,2.12.75,3.44,2.63,3.44,4.88v13.18h0ZM39.86,27.56v-1.89c0-.69.56-1.24,1.24-1.24s1.24.56,1.24,1.24v1.89c0,.69-.56,1.24-1.24,1.24s-1.24-.56-1.24-1.24ZM54.43,27.56v-1.89c0-.69.56-1.24,1.24-1.24s1.24.56,1.24,1.24v1.89c0,.69-.56,1.24-1.24,1.24s-1.24-.56-1.24-1.24ZM44.04,32.01c.38-.57,1.15-.72,1.72-.34.81.54,1.63.83,2.44.87.81-.03,1.63-.33,2.44-.87.57-.38,1.34-.23,1.72.34.38.57.23,1.34-.34,1.72-1.21.81-2.49,1.24-3.78,1.28-.01,0-.03,0-.04,0s-.03,0-.04,0c-1.29-.04-2.56-.47-3.78-1.28-.57-.38-.72-1.15-.34-1.72ZM16.31,23.84c.24.27.58.41.92.41.15,0,.3-.03.45-.08.48-.18.79-.64.79-1.16v-3.57h5.69c1.95,0,3.53-1.75,3.53-3.9V6.25c0-2.15-1.59-3.9-3.53-3.9H3.53c-1.95,0-3.53,1.75-3.53,3.9v9.29c0,2.15,1.58,3.9,3.53,3.9h8.8l3.98,4.4ZM2.48,15.54V6.25c0-.76.49-1.42,1.05-1.42h20.63c.56,0,1.05.66,1.05,1.42v9.29c0,.76-.49,1.42-1.05,1.42h-6.93c-.69,0-1.24.56-1.24,1.24v1.59l-2.19-2.42c-.24-.26-.57-.41-.92-.41H3.53c-.56,0-1.05-.66-1.05-1.42ZM4.93,8.39c0-.69.56-1.24,1.24-1.24h15.23c.69,0,1.24.56,1.24,1.24s-.56,1.24-1.24,1.24H6.17c-.69,0-1.24-.56-1.24-1.24ZM21.32,14.64H6.09c-.69,0-1.24-.56-1.24-1.24s.56-1.24,1.24-1.24h15.23c.69,0,1.24.56,1.24,1.24,0,.69-.56,1.24-1.24,1.24Z" fill="#fff"/>
  </g>
</svg>