<?xml version="1.0" encoding="UTF-8"?>
<svg id="katman_2" data-name="katman 2" xmlns="http://www.w3.org/2000/svg" xmlns:xlink="http://www.w3.org/1999/xlink" viewBox="0 0 357.67 107.09">
  <defs>
    <linearGradient id="Adsız_degrade_7" data-name="Adsız degrade 7" x1="6.48" y1="53.54" x2="357.67" y2="53.54" gradientUnits="userSpaceOnUse">
      <stop offset="0" stop-color="#eb5b1c"/>
      <stop offset="1" stop-color="#ef7919"/>
    </linearGradient>
  </defs>
  <g id="katman_1" data-name="katman 1">
    <polygon points=".15 10.96 6.48 0 357.67 0 357.67 11.24 0 11.24 .15 10.96" fill="#a93e17"/>
    <path d="M6.48,0v107.09h329.69c11.88,0,21.5-9.63,21.5-21.5V0H6.48Z" fill="url(#Adsız_degrade_7)"/>
    <g>
      <path d="M64.51,31.96c4.1,0,7.82.92,11.15,2.76,3.33,1.84,5.94,4.38,7.83,7.61s2.84,6.84,2.84,10.82-.95,7.6-2.84,10.84c-1.89,3.24-4.5,5.78-7.83,7.62-3.33,1.84-7.05,2.76-11.15,2.76h-16.9V31.96h16.9ZM64.27,63.3c2.86,0,5.25-.96,7.16-2.9,1.91-1.93,2.87-4.35,2.87-7.25s-.96-5.31-2.87-7.23c-1.91-1.92-4.3-2.88-7.16-2.88h-4.92v20.26h4.92Z" fill="#fff"/>
      <path d="M115.81,73.81c-2.22.88-4.59,1.32-7.12,1.32s-4.89-.44-7.11-1.32c-2.22-.88-4.12-2.09-5.7-3.62-1.58-1.53-2.83-3.37-3.75-5.52-.92-2.15-1.38-4.45-1.38-6.89v-25.82h11.74v25.64c0,1.78.59,3.26,1.77,4.44s2.66,1.77,4.44,1.77,3.26-.59,4.44-1.77c1.18-1.18,1.77-2.66,1.77-4.44v-25.64h11.74v25.82c0,2.44-.46,4.74-1.38,6.89-.92,2.15-2.17,3.99-3.75,5.52s-3.48,2.74-5.7,3.62Z" fill="#fff"/>
      <path d="M158.68,31.96h13.09l-15.61,28.46v13.96h-11.74v-13.96l-15.64-28.46h13.36l8.29,16.03,8.25-16.03Z" fill="#fff"/>
      <path d="M198.96,73.81c-2.22.88-4.59,1.32-7.12,1.32s-4.89-.44-7.11-1.32c-2.22-.88-4.12-2.09-5.7-3.62s-2.83-3.37-3.75-5.52c-.92-2.15-1.38-4.45-1.38-6.89v-25.82h11.74v25.64c0,1.78.59,3.26,1.77,4.44s2.66,1.77,4.44,1.77,3.26-.59,4.44-1.77c1.18-1.18,1.77-2.66,1.77-4.44v-25.64h11.74v25.82c0,2.44-.46,4.74-1.38,6.89-.92,2.15-2.17,3.99-3.75,5.52s-3.48,2.74-5.7,3.62Z" fill="#fff"/>
      <path d="M238.14,74.38l-6.51-13.15h-3.69v13.15h-11.74V31.96h19.06c4.46,0,8.19,1.43,11.18,4.28,2.99,2.85,4.49,6.41,4.49,10.67,0,2.64-.65,5.03-1.94,7.17-1.29,2.14-3.05,3.84-5.27,5.1l8.5,15.19h-14.08ZM227.93,43.04v7.99h7.05c1.1,0,2.02-.38,2.76-1.14.74-.76,1.11-1.71,1.11-2.85s-.37-2.09-1.11-2.85-1.66-1.14-2.76-1.14h-7.05Z" fill="#fff"/>
      <path d="M280.11,73.81c-2.22.88-4.59,1.32-7.12,1.32s-4.89-.44-7.11-1.32c-2.22-.88-4.12-2.09-5.7-3.62s-2.83-3.37-3.75-5.52c-.92-2.15-1.38-4.45-1.38-6.89v-25.82h11.74v25.64c0,1.78.59,3.26,1.77,4.44s2.66,1.77,4.44,1.77,3.26-.59,4.44-1.77c1.18-1.18,1.77-2.66,1.77-4.44v-25.64h11.74v25.82c0,2.44-.46,4.74-1.38,6.89-.92,2.15-2.17,3.99-3.75,5.52s-3.48,2.74-5.7,3.62Z" fill="#fff"/>
      <path d="M308.01,73.07c-1.37,1.37-3.09,2.06-5.15,2.06s-3.78-.69-5.15-2.06c-1.37-1.37-2.06-3.07-2.06-5.09s.68-3.72,2.06-5.09c1.37-1.37,3.09-2.06,5.15-2.06s3.78.69,5.15,2.06,2.06,3.07,2.06,5.09-.69,3.72-2.06,5.09ZM297.76,59.01l-.75-16.6v-10.45h11.77v10.45l-.75,16.6h-10.27Z" fill="#fff"/>
    </g>
  </g>
</svg>