<?xml version="1.0" encoding="UTF-8"?>
<svg id="katman_2" data-name="katman 2" xmlns="http://www.w3.org/2000/svg" xmlns:xlink="http://www.w3.org/1999/xlink" viewBox="0 0 150.06 78.21">
  <defs>
    <linearGradient id="Adsız_degrade_36" data-name="Adsız degrade 36" x1="32.31" y1="33.45" x2="93.53" y2="33.45" gradientUnits="userSpaceOnUse">
      <stop offset=".11" stop-color="#be5ce7"/>
      <stop offset=".25" stop-color="#b254d9"/>
      <stop offset=".69" stop-color="#953fb7"/>
      <stop offset=".93" stop-color="#8a38aa"/>
    </linearGradient>
    <linearGradient id="Adsız_degrade_27" data-name="Adsız degrade 27" x1="0" y1="46.98" x2="39.09" y2="46.98" gradientUnits="userSpaceOnUse">
      <stop offset="0" stop-color="#e9b161"/>
      <stop offset=".82" stop-color="#d86e5c"/>
      <stop offset=".9" stop-color="#d7685c"/>
    </linearGradient>
    <linearGradient id="Adsız_degrade_36-2" data-name="Adsız degrade 36" x1="0" y1="21.43" x2="36.29" y2="21.43" xlink:href="#Adsız_degrade_36"/>
    <linearGradient id="Adsız_degrade_27-2" data-name="Adsız degrade 27" y1="21.46" x2="36.29" y2="21.46" xlink:href="#Adsız_degrade_27"/>
    <linearGradient id="Adsız_degrade_36-3" data-name="Adsız degrade 36" x1="0" y1="46.94" x2="39.09" y2="46.94" xlink:href="#Adsız_degrade_36"/>
    <linearGradient id="Adsız_degrade_27-3" data-name="Adsız degrade 27" x1="27.92" y1="47.28" y2="47.28" xlink:href="#Adsız_degrade_27"/>
    <linearGradient id="Adsız_degrade_27-4" data-name="Adsız degrade 27" x1="49.21" y1="37.16" x2="23.38" y2="62.99" xlink:href="#Adsız_degrade_27"/>
    <linearGradient id="Adsız_degrade_27-5" data-name="Adsız degrade 27" x1="32.31" y1="33.47" x2="93.53" y2="33.47" xlink:href="#Adsız_degrade_27"/>
  </defs>
  <g id="katman_1" data-name="katman 1">
    <g>
      <path d="M86.06,7.05c-4.66-3.56-9.94-5.75-15.36-6.62-.24-.04-.49-.07-.73-.1-11.84-1.65-24.2,2.96-31.99,13.14-2.23,2.91-3.92,6.08-5.08,9.36-.05.12-.09.25-.14.38-.17.49-.32.98-.46,1.47h9.35v34.54c.86.81,1.78,1.59,2.74,2.33,3.15,2.4,6.57,4.18,10.13,5.35l6.44-8.44,1.24-1.62c-3.8-.51-7.52-1.98-10.78-4.47-9.98-7.62-11.88-21.89-4.25-31.87,7.62-9.98,21.89-11.88,31.87-4.25,3.09,2.37,5.42,5.37,6.91,8.7l1.82-2.41,5.76-7.62c-2-2.93-4.5-5.59-7.47-7.86Z" fill="#1d1d1b"/>
      <path d="M93.53,14.91l-5.76,7.62-1.82,2.41c-1.5-3.33-3.82-6.33-6.91-8.7-9.98-7.63-24.25-5.72-31.87,4.25-7.63,9.98-5.72,24.25,4.25,31.87,3.26,2.5,6.99,3.97,10.78,4.47l-1.24,1.62-6.44,8.44c-3.56-1.17-6.98-2.95-10.13-5.35-.96-.74-1.88-1.52-2.74-2.33V24.68h-9.35c.14-.49.3-.99.46-1.47.04-.12.09-.25.14-.38,1.16-3.28,2.85-6.45,5.08-9.36C45.77,3.29,58.13-1.32,69.97.33c.24.03.49.07.73.1,5.42.87,10.7,3.06,15.36,6.62,2.97,2.27,5.47,4.93,7.47,7.86Z" fill="url(#Adsız_degrade_36)"/>
      <path d="M39.09,27.04v40.48h-11.17v-14.65H0v-10.01l11.69-22.42h0l3.79-7.26,2.43-4.67L22.34.05h13.96l-1.79,3.43-15.55,29.75-4.07,7.78h13.27v-13.96h10.94Z" fill="#1d1d1b"/>
      <path d="M0,52.87h39.09v-11.78s-22.33,1.44-39.09,11.78Z" fill="url(#Adsız_degrade_27)"/>
      <polygon points="14.89 41 0 42.86 34.2 0 36.29 .05 14.89 41" fill="url(#Adsız_degrade_36-2)"/>
      <g>
        <path d="M58.35,78.11c-.4-.4-.13-1.42,1.21-4.65,2.23-5.46,12.16-22.15,15.93-28.29,2.09-3.37,6.27-9.78,7.76-11.8.4-.61.34-.54-.54.27-8.9,8.3-16.32,13.22-21.72,14.37-1.69.34-2.7.34-4.25-.07-4.25-1.01-5.06-4.79-2.36-11.2,2.36-5.6,8.09-13.49,11.94-16.39,1.08-.81,1.35-.94,1.75-.74.27.13.47.34.47.47s-.74,1.01-1.69,1.89c-6.68,6.34-12.95,17.67-12.14,21.99.34,1.96,1.69,2.83,4.11,2.83,2.56,0,6.21-1.48,10.19-4.05,2.63-1.75,8.3-6.27,11.2-8.97,3.37-3.1,10.05-9.98,11.94-12.28,2.43-2.97,3.04-3.44,3.58-2.56.2.34-.13.88-2.23,3.37-6.07,7.42-14.84,20.24-19.36,28.2-3.51,6.14-14.32,25.39-14.05,26.4.27,1.01-1.08,1.75-1.82,1.01l.07.2Z" fill="#1d1d1b"/>
        <path d="M96.82,46.72c2.43-1.89,2.7-1.35,2.63-.94,0,.2-.67,1.01-2.23,2.23-4.99,3.91-8.43,5.4-11.4,4.92-2.29-.4-3.51-1.62-3.31-3.31.27-2.36,3.17-4.92,5.26-4.92.27,0,.54.07.81.2,1.15.54,1.08,1.75-.27,2.9-.74.67-1.55.81-2.36.88-1.35.07-1.48-.13-1.69.27-.13.27-.2.81-.13,1.21.07,1.08.94,1.62,2.63,1.62,2.36,0,5.4-1.55,9.98-5.13l.07.07ZM86.03,46.52c-.47.4-.54.61-.34.74q.4.2,1.28-.2c.67-.34,1.21-1.08.94-1.28h-.13c-.34,0-1.15.4-1.82.94l.07-.2Z" fill="#1d1d1b"/>
        <path d="M113.95,45.91c1.28-.88,1.62-.81,1.62-.07,0,.14-.27.47-.74.94-1.35,1.35-3.91,3.31-5.53,4.25-2.97,1.69-4.65,1.89-6,.81-.74-.61-.81-.81-.81-1.82v-1.15l-1.62,1.21c-3.1,2.36-5.33,3.17-6.54,2.43-1.69-1.01.61-5.13,3.91-7.02.94-.54,1.82-.81,2.56-.81.94,0,1.69.4,2.09,1.21l.34.67.67-.54c.74-.61,1.01-.67,1.42-.27.27.27.2.54-.4,1.62-.88,1.62-1.15,2.83-.74,3.44.27.34.47.4,1.28.34,1.55-.13,3.44-1.15,6.54-3.64.88-.67,1.55-1.21,2.09-1.55l-.13-.07ZM100.39,48.88c1.55-1.15,1.62-1.21,1.42-1.89-.13-.4-.34-.81-.47-.88-.07-.07-.2-.13-.34-.13-1.48-.07-5.19,3.1-5.67,5.06-.2.88.2.81,1.96-.2.74-.47,2.09-1.35,2.97-2.02l.13.07Z" fill="#1d1d1b"/>
        <path d="M128.56,44.76c1.48-.54,2.16-.54,2.16.07,0,.2-.34.47-.88.74-.88.4-4.96,1.69-6.17,1.76-1.96.13-2.97-.4-3.78-1.21-.34-.34-.67-.61-.81-.61-.34,0-2.9,2.5-5.19,4.99-1.15,1.28-2.23,2.29-2.43,2.29s-.47-.13-.61-.27c-.4-.4.34-2.23,2.09-5.06,1.48-2.43,1.96-2.83,2.56-2.29.34.27.34.34-.13,1.15-.54.81-.47.81,1.55-.81,2.5-1.96,2.83-2.02,3.64-.67.54.81.88,1.21,2.5,1.21.94,0,4.42-1.09,5.43-1.42l.07.13Z" fill="#1d1d1b"/>
        <path d="M139.52,45.78c1.89-.74,10.04-1.86,10.53.09.08.33-.34.97-1.82.62-4.08-.95-11.4,1.58-13.56,2.39l-3.84,1.55-.13,1.08c-.2,1.48-1.21,2.77-2.56,3.31-1.21.47-2.56.54-3.24.13-.61-.34-.61-1.48,0-2.16.47-.54,2.29-1.82,3.37-2.43l.54-.27-.4-1.75c-.4-1.55-.4-1.82-.07-2.56.4-.88,1.08-1.42,1.69-1.42.13,0,.27,0,.4.07.67.27.67.67.07,1.01-.74.4-.94,1.21-.61,2.5.34,1.28.47,1.48.94,1.15.2-.13,1.89-.81,3.78-1.55,1.89-.74,3.98-1.42,4.99-1.82l-.07.07ZM127.45,53.4c1.01-.67,1.82-2.02,1.21-2.02-.27,0-2.63,1.75-2.9,2.16-.2.34-.13.4.4.4.34,0,.94-.2,1.35-.47l-.07-.07Z" fill="#1d1d1b"/>
      </g>
      <g>
        <path d="M75.81,65.89h-2.93l-.53,1.29h-.95l2.62-6.1h.66l2.6,6.1h-.96l-.52-1.29ZM73.17,65.12h2.32l-1.15-2.8-1.16,2.8Z" fill="#1d1d1b"/>
        <path d="M85.15,61.07v6.17h-.52l-3.88-4.58v4.51h-.88v-6.16h.53l3.86,4.58v-4.52h.89Z" fill="#1d1d1b"/>
        <path d="M93.8,61.07v6.17h-.52l-3.88-4.58v4.51h-.88v-6.16h.53l3.86,4.58v-4.52h.89Z" fill="#1d1d1b"/>
        <path d="M97.16,61.07h.89v6.1h-.89v-6.1Z" fill="#1d1d1b"/>
        <path d="M106.38,61.07l-2.54,6.1h-.6l-2.54-6.1h1.01l1.44,3.65.43,1.22.42-1.21,1.42-3.66h.97Z" fill="#1d1d1b"/>
        <path d="M113.08,66.38v.79h-4.07v-6.1h4.06v.8h-3.17v1.81h2.78v.8h-2.78v1.9h3.18Z" fill="#1d1d1b"/>
        <path d="M119.66,67.17l-1.29-1.89c-.1,0-.19,0-.3,0h-1.09v1.88h-.89v-6.1h2.07c1.42,0,2.41.75,2.41,2.13,0,.89-.48,1.55-1.27,1.88l1.45,2.1h-1.08ZM119.62,63.2c0-.89-.64-1.34-1.53-1.34h-1.12v2.64h1.08c.96,0,1.57-.51,1.57-1.3Z" fill="#1d1d1b"/>
        <path d="M123.08,66.57l.46-.73c.49.39,1.13.62,1.8.62.7,0,1.2-.33,1.2-.94s-.38-.88-1.37-1.12c-1.12-.29-1.84-.72-1.84-1.73s.86-1.68,2.07-1.68c.9,0,1.51.23,1.94.59l-.43.68c-.43-.31-.85-.48-1.52-.48s-1.16.3-1.16.85.44.75,1.31.97c1.19.31,1.9.77,1.9,1.85,0,1.14-.9,1.8-2.09,1.8-.94,0-1.69-.24-2.27-.68Z" fill="#1d1d1b"/>
        <path d="M133.91,65.89h-2.93l-.53,1.29h-.95l2.62-6.1h.66l2.6,6.1h-.96l-.52-1.29ZM131.28,65.12h2.32l-1.15-2.8-1.16,2.8Z" fill="#1d1d1b"/>
        <path d="M141.55,67.17l-1.29-1.89c-.1,0-.19,0-.3,0h-1.09v1.88h-.89v-6.1h2.07c1.42,0,2.41.75,2.41,2.13,0,.89-.48,1.55-1.27,1.88l1.45,2.1h-1.08ZM141.51,63.2c0-.89-.64-1.34-1.53-1.34h-1.12v2.64h1.08c.96,0,1.57-.51,1.57-1.3Z" fill="#1d1d1b"/>
        <path d="M147.76,64.79v2.39h-.89v-2.4l-2.27-3.71h1.08l1.68,2.83,1.68-2.83h1.02l-2.29,3.72Z" fill="#1d1d1b"/>
      </g>
      <path d="M36.29.05S20.64,30.8,0,42.86L22.34.05h13.96Z" fill="url(#Adsız_degrade_27-2)"/>
      <path d="M0,52.87s13.01-8.49,39.09-11.78l-24.2-.09-14.89,1.86v10.01Z" fill="url(#Adsız_degrade_36-3)"/>
      <polygon points="28.15 27.04 27.92 67.52 39.09 27.04 28.15 27.04" fill="url(#Adsız_degrade_27-3)"/>
      <path d="M27.92,67.52c.99-6.24,2.4-13.16,4.45-20.57,2.04-7.4,4.37-14.05,6.72-19.91v40.48h-11.17Z" fill="url(#Adsız_degrade_27-4)"/>
      <path d="M41.66,47.86v11.36c.86.81,1.78,1.59,2.74,2.33,3.15,2.4,6.57,4.18,10.13,5.35l6.44-8.44c-7.9-.58-14.84-4.61-19.31-10.59ZM86.06,7.05c-4.66-3.56-9.94-5.75-15.36-6.62-.24-.04-.49-.07-.73-.1-1.45-.18-2.93-.28-4.43-.28C50.55.05,37.78,9.53,32.9,22.83c-.05.12-.09.25-.14.38-.17.49-.32.98-.46,1.47h5.09c3.16-11.12,13.4-19.27,25.55-19.27,11.35,0,21.03,7.12,24.83,17.12l5.76-7.62c-2-2.93-4.5-5.59-7.47-7.86Z" fill="url(#Adsız_degrade_27-5)"/>
      <circle cx="135.39" cy="52.79" r="1.22" fill="#1d1d1b"/>
      <g>
        <polygon points="98.44 7.83 98.44 10.69 99.29 10.69 99.29 7.83 100.39 7.83 100.39 7.06 97.34 7.06 97.34 7.83 98.44 7.83 98.44 7.83" fill="#8738a9"/>
        <polygon points="100.82 7.06 100.82 10.69 101.67 10.69 101.67 9.26 103.19 9.26 103.19 10.69 104.05 10.69 104.05 7.06 103.19 7.06 103.19 8.49 101.67 8.49 101.67 7.06 100.82 7.06 100.82 7.06" fill="#8738a9"/>
      </g>
    </g>
  </g>
</svg>