<?xml version="1.0" encoding="UTF-8"?>
<svg id="katman_2" data-name="katman 2" xmlns="http://www.w3.org/2000/svg" viewBox="0 0 959.42 146.52">
  <g id="katman_1" data-name="katman 1">
    <g>
      <path d="M9.57,24.28c0-1.62.02-3.4.07-5.36.05-1.95.17-3.97.36-6.07-1.52.1-3.26.19-5.21.29-1.95.1-3.55.19-4.78.29V4.14c4.38,0,7.95-.21,10.71-.64,2.76-.43,4.93-.98,6.5-1.64,1.57-.66,2.69-1.29,3.36-1.86h6.57v42.13c3.05-2.86,6.28-4.9,9.71-6.14,3.43-1.24,6.85-1.86,10.28-1.86,5.9,0,11.11,1.48,15.64,4.43,4.52,2.95,8.07,7.14,10.64,12.57,2.57,5.43,3.86,11.81,3.86,19.14,0,7.81-1.52,14.71-4.57,20.71-3.05,6-7.24,10.69-12.57,14.07-5.33,3.38-11.47,5.07-18.42,5.07-2.76,0-6.12-.57-10.07-1.71-3.95-1.14-7.55-3.43-10.78-6.85l-4,6.28h-7.28V24.28ZM27.13,86.11c0,3.81.62,6.81,1.86,9,1.24,2.19,2.83,3.74,4.78,4.64,1.95.91,3.93,1.41,5.93,1.5,4.38,0,7.93-1.29,10.64-3.86,2.71-2.57,4.71-6.02,6-10.35,1.29-4.33,1.93-9.02,1.93-14.07s-.62-9.83-1.86-14.07c-1.24-4.23-3.14-7.62-5.71-10.14-2.57-2.52-5.95-3.78-10.14-3.78-2.57.1-5.05.76-7.43,2-2.38,1.24-4.38,2.86-6,4.86v34.27Z" fill="#00233f"/>
      <path d="M117.96,110.1c-5.52,0-10.02-1.05-13.5-3.14-3.48-2.09-6.02-5.45-7.64-10.07-1.62-4.62-2.43-10.69-2.43-18.21v-19.42c0-1.62.05-3.43.14-5.43.09-2,.19-4,.29-6-1.52.1-3.24.17-5.14.21-1.91.05-3.48.12-4.71.21v-9.14h2.43c5.24,0,9.3-.45,12.21-1.36,2.9-.9,4.88-1.83,5.93-2.78h6.57v43.7c0,6.85.93,11.95,2.78,15.28,1.86,3.33,4.88,5,9.07,5,2.86-.09,5.69-.95,8.5-2.57,2.81-1.62,5.07-3.52,6.78-5.71v-30.85c0-1.9.05-3.88.14-5.93.09-2.05.24-4.07.43-6.07-1.52.1-3.26.17-5.21.21-1.95.05-3.55.12-4.78.21v-9.14h3.71c4.38,0,8.02-.48,10.92-1.43,2.9-.95,4.83-1.86,5.78-2.71h6.57v51.27c0,1.33-.05,3.28-.14,5.86-.1,2.57-.24,4.9-.43,7,1.62-.19,3.33-.31,5.14-.36,1.81-.05,3.29-.12,4.43-.21v9.28h-24.85c-.19-1.33-.36-2.66-.5-4-.14-1.33-.26-2.62-.36-3.86-2.95,2.67-6.26,5.02-9.93,7.07-3.67,2.05-7.74,3.07-12.21,3.07Z" fill="#00233f"/>
      <path d="M175.51,100.25c2.76,0,4.71-.59,5.85-1.79,1.14-1.19,1.86-2.88,2.14-5.07.29-2.19.43-4.66.43-7.43v-26.85c0-1.71.05-3.52.14-5.43.09-1.9.24-3.86.43-5.85-1.62.1-3.38.17-5.28.21-1.91.05-3.48.12-4.71.21v-9.14h5.28c3.81,0,7-.45,9.57-1.36,2.57-.9,4.38-1.83,5.43-2.78h6c.19,1.14.33,2.95.43,5.43.09,2.48.14,4.95.14,7.43,2.19-2.86,4.47-5.31,6.85-7.35,2.38-2.05,4.83-3.62,7.35-4.71,2.52-1.09,5.12-1.64,7.78-1.64,3.05,0,5.73.86,8.07,2.57,2.33,1.71,3.5,4.48,3.5,8.28,0,1.24-.31,2.57-.93,4-.62,1.43-1.57,2.62-2.86,3.57-1.29.95-3.02,1.43-5.21,1.43-2,0-3.88-.64-5.64-1.93-1.76-1.29-2.69-3.36-2.79-6.21-2-.09-4.07.62-6.21,2.14-2.14,1.52-4.07,3.38-5.78,5.57-1.71,2.19-3.05,4.43-4,6.71l.14,27.13c0,1.52-.05,3.36-.14,5.5-.1,2.14-.24,4.21-.43,6.21,1.52-.19,3.14-.31,4.86-.36,1.71-.05,3.14-.07,4.28-.07v9.14h-34.7v-7.57Z" fill="#00233f"/>
      <path d="M273.05,110.1c-4.38,0-8.47-.57-12.28-1.71-3.81-1.14-6.86-2.52-9.14-4.14l.43,4.57h-9.28l-.71-24.56h7.71c.29,3.24,1.43,6.17,3.43,8.78,2,2.62,4.59,4.67,7.78,6.14,3.19,1.48,6.73,2.21,10.64,2.21,1.9,0,3.74-.29,5.5-.86,1.76-.57,3.24-1.5,4.43-2.78,1.19-1.29,1.78-2.93,1.78-4.93s-.69-3.81-2.07-5.14c-1.38-1.33-3.31-2.57-5.78-3.71-2.48-1.14-5.38-2.33-8.71-3.57-2.95-1.14-5.9-2.33-8.85-3.57-2.95-1.24-5.67-2.74-8.14-4.5-2.48-1.76-4.48-3.93-6-6.5-1.52-2.57-2.29-5.71-2.29-9.43,0-2.57.48-5.14,1.43-7.71.95-2.57,2.47-4.97,4.57-7.21,2.09-2.24,4.78-4.02,8.07-5.36,3.28-1.33,7.31-2,12.07-2,2.57,0,5.47.41,8.71,1.21,3.24.81,6.09,2.17,8.57,4.07l-.14-4.57h9.28v25.13h-7.71c-.48-3.33-1.52-6.31-3.14-8.93-1.62-2.62-3.76-4.69-6.43-6.21-2.67-1.52-5.86-2.29-9.57-2.29-3.05,0-5.62.74-7.71,2.21-2.09,1.48-3.14,3.64-3.14,6.5,0,2.38.81,4.33,2.43,5.85,1.62,1.52,3.81,2.81,6.57,3.86,2.76,1.05,5.76,2.19,9,3.43,4.47,1.52,8.54,3.33,12.21,5.43,3.66,2.1,6.59,4.62,8.78,7.57,2.19,2.95,3.28,6.62,3.28,11,0,4.95-1.24,9.02-3.71,12.21-2.48,3.19-5.67,5.57-9.57,7.14-3.91,1.57-8,2.36-12.28,2.36Z" fill="#00233f"/>
      <path d="M350.59,107.82c-.29-1.43-.45-2.64-.5-3.64-.05-1-.12-2.16-.21-3.5-3.24,3.24-6.69,5.62-10.35,7.14-3.67,1.52-7.45,2.28-11.35,2.28-6.48,0-11.45-1.76-14.92-5.28-3.48-3.52-5.21-7.85-5.21-13,0-4.57,1.24-8.45,3.71-11.64,2.47-3.19,5.71-5.81,9.71-7.85,4-2.05,8.43-3.62,13.28-4.71,4.86-1.09,9.66-1.69,14.42-1.78v-7.85c0-2.76-.31-5.31-.93-7.64-.62-2.33-1.74-4.19-3.36-5.57-1.62-1.38-4-2.07-7.14-2.07-2.1.1-4.21.55-6.36,1.36-2.14.81-3.83,2.07-5.07,3.78.76.86,1.24,1.79,1.43,2.78.19,1,.29,1.88.29,2.64,0,1.71-.67,3.5-2,5.35-1.33,1.86-3.48,2.74-6.43,2.64-2.57-.09-4.55-1-5.93-2.71-1.38-1.71-2.07-3.76-2.07-6.14,0-3.62,1.31-6.78,3.93-9.5,2.62-2.71,6.16-4.86,10.64-6.43,4.47-1.57,9.47-2.36,14.99-2.36,8.19,0,14.47,2.14,18.85,6.43,4.38,4.28,6.52,11.14,6.43,20.56v9.07c0,2.71-.02,5.43-.07,8.14-.05,2.71-.07,5.74-.07,9.07,0,1.43-.05,3.21-.14,5.36-.1,2.14-.24,4.26-.43,6.35,1.71-.19,3.45-.31,5.21-.36,1.76-.05,3.21-.12,4.36-.21v9.28h-24.71ZM349.02,74.26c-2.86.19-5.67.64-8.43,1.36-2.76.71-5.24,1.69-7.43,2.93-2.19,1.24-3.93,2.78-5.21,4.64s-1.88,3.98-1.79,6.35c.09,2.95,1.05,5.12,2.86,6.5,1.81,1.38,3.9,2.07,6.28,2.07,2.76,0,5.26-.57,7.5-1.71,2.24-1.14,4.31-2.66,6.21-4.57v-17.57Z" fill="#00233f"/>
      <path d="M383.01,107.82v-4.28c2.95,0,4.97-.74,6.07-2.21,1.09-1.48,1.74-3.52,1.93-6.14.19-2.62.29-5.64.29-9.07l.14-67.55c0-1.52.02-2.97.07-4.36.05-1.38.17-3.02.36-4.93-1.71.1-3.41.19-5.07.29-1.67.1-3.36.19-5.07.29V3.86c4.19,0,7.43-.19,9.71-.57,2.29-.38,4.02-.86,5.21-1.43,1.19-.57,2.12-1.19,2.79-1.86h4.14v67.55h5.71l17.42-18.28c1.62-1.62,3.09-3.07,4.43-4.36,1.33-1.29,2.66-2.36,4-3.21l-9.71.43v-5.71h25.99v4.28c-3.24.29-6.26,1.31-9.07,3.07-2.81,1.76-5.38,3.74-7.71,5.93-2.33,2.19-4.36,4.19-6.07,6l-11.14,11.71c1.9.86,3.52,1.95,4.86,3.28,1.33,1.33,2.67,2.81,4,4.43l10.14,13c.47.57,1.31,1.67,2.5,3.28,1.19,1.62,2.62,3.38,4.28,5.28,1.66,1.91,3.43,3.52,5.28,4.85,1.86,1.33,3.59,2,5.21,2v4.28h-13c-2.67,0-5.19-1.38-7.57-4.14-2.38-2.76-4.9-5.85-7.57-9.28-2.48-3.43-4.69-6.54-6.64-9.35-1.95-2.81-3.71-5.26-5.28-7.35-1.57-2.09-2.98-3.71-4.21-4.85l-5.85.29v19.56c0,1.91-.02,3.59-.07,5.07-.05,1.48-.21,3.02-.5,4.64,1.52-.09,3.05-.17,4.57-.21,1.52-.05,3.05-.12,4.57-.21v5.85h-29.13Z" fill="#00233f"/>
      <path d="M495.39,110.1c-6.67,0-12.71-1.55-18.14-4.64-5.43-3.09-9.74-7.38-12.92-12.85-3.19-5.47-4.78-11.73-4.78-18.78,0-7.52,1.57-14.28,4.71-20.28,3.14-6,7.43-10.73,12.85-14.21,5.43-3.47,11.52-5.21,18.28-5.21s12.71,1.6,18.14,4.78c5.43,3.19,9.76,7.5,13,12.92,3.24,5.43,4.86,11.62,4.86,18.56,0,7.33-1.6,14.02-4.78,20.06-3.19,6.05-7.5,10.83-12.92,14.35s-11.52,5.28-18.28,5.28ZM496.54,104.39c5.04,0,9.04-1.43,12-4.28,2.95-2.86,5.07-6.57,6.35-11.14s1.93-9.38,1.93-14.42c0-4.28-.41-8.5-1.21-12.64-.81-4.14-2.07-7.9-3.78-11.28-1.71-3.38-3.93-6.07-6.64-8.07-2.71-2-5.98-3-9.78-3-4.95,0-9,1.43-12.14,4.28-3.14,2.86-5.45,6.57-6.93,11.14-1.48,4.57-2.21,9.47-2.21,14.71,0,5.9.81,11.5,2.43,16.78,1.62,5.28,4.09,9.59,7.43,12.92,3.33,3.33,7.52,5,12.57,5Z" fill="#00233f"/>
      <path d="M542.09,103.53c2.95,0,5-.74,6.14-2.21,1.14-1.48,1.81-3.52,2-6.14.19-2.62.29-5.64.29-9.07V18.56c0-1.52.02-2.97.07-4.36.05-1.38.17-3.02.36-4.93-1.71.1-3.4.19-5.07.29-1.67.1-3.36.19-5.07.29V3.86c4.19,0,7.45-.19,9.78-.57,2.33-.38,4.09-.86,5.28-1.43,1.19-.57,2.12-1.19,2.79-1.86h4.14l.14,92.68c0,1.91-.05,3.59-.14,5.07-.1,1.48-.29,3.02-.57,4.64,1.52-.09,3.02-.17,4.5-.21,1.48-.05,2.97-.12,4.5-.21v5.85h-29.13v-4.28Z" fill="#00233f"/>
      <path d="M616.92,110.1c-6.57,0-12.5-1.55-17.78-4.64-5.28-3.09-9.45-7.47-12.5-13.14-3.05-5.66-4.57-12.35-4.57-20.06,0-6.66,1.5-12.9,4.5-18.71,3-5.81,7.21-10.5,12.64-14.07,5.43-3.57,11.71-5.35,18.85-5.35,4,0,7.73.64,11.21,1.93,3.47,1.29,6.54,3.24,9.21,5.85,2.66,2.62,4.76,5.9,6.28,9.85,1.52,3.95,2.29,8.59,2.29,13.92l-50.27.86c0,7.24.79,13.59,2.36,19.06,1.57,5.48,4.12,9.71,7.64,12.71,3.52,3,8.04,4.5,13.57,4.5,2.95,0,5.97-.52,9.07-1.57,3.09-1.05,5.97-2.47,8.64-4.28,2.67-1.81,4.81-3.81,6.43-6l3.43,2.86c-2.57,4-5.67,7.19-9.28,9.57-3.62,2.38-7.33,4.09-11.14,5.14-3.81,1.05-7.33,1.57-10.57,1.57ZM597.22,60.55h36.42c0-3.43-.5-6.73-1.5-9.92-1-3.19-2.64-5.81-4.93-7.85-2.29-2.05-5.28-3.07-9-3.07-5.52,0-10.12,1.64-13.78,4.93-3.67,3.28-6.07,8.59-7.21,15.92Z" fill="#00233f"/>
      <path d="M652.2,146.52c-3.9,0-6.76-.81-8.57-2.43-1.81-1.62-2.71-3.48-2.71-5.57,0-1.71.55-3.26,1.64-4.64,1.1-1.38,2.59-2.07,4.5-2.07,2.38-.1,4.02.59,4.93,2.07.91,1.48,1.36,2.78,1.36,3.93v.64c0,.24-.05.45-.14.64,1.33.57,2.57.86,3.71.86,2.76,0,4.86-1,6.28-3,1.43-2,2.38-4.52,2.86-7.57.47-3.05.71-6.14.71-9.28l.29-66.55c0-1.52.02-2.97.07-4.36.05-1.38.17-3.02.36-4.93-1.71.1-3.41.19-5.07.29-1.67.1-3.36.19-5.07.29v-6c4.19,0,7.45-.19,9.78-.57,2.33-.38,4.09-.86,5.28-1.43,1.19-.57,2.12-1.19,2.79-1.86h4.14v73.26c0,8.85-1.19,16.11-3.57,21.78-2.38,5.66-5.62,9.83-9.71,12.5-4.09,2.66-8.71,4-13.85,4ZM672.33,20.85c-2,0-3.76-.81-5.28-2.43-1.52-1.62-2.29-3.62-2.29-6s.79-4.4,2.36-6.07c1.57-1.66,3.36-2.5,5.36-2.5,2.19,0,4.02.83,5.5,2.5,1.47,1.67,2.21,3.69,2.21,6.07s-.79,4.38-2.36,6c-1.57,1.62-3.41,2.43-5.5,2.43Z" fill="#00233f"/>
      <path d="M697.04,103.53c2.95,0,5-.74,6.14-2.21,1.14-1.48,1.81-3.52,2-6.14.19-2.62.29-5.64.29-9.07v-32.56c0-1.52.05-2.97.14-4.36.09-1.38.24-3.02.43-4.93-1.71.1-3.41.19-5.07.29-1.67.1-3.36.19-5.07.29v-6c4.19,0,7.43-.19,9.71-.57,2.29-.38,4.02-.86,5.21-1.43,1.19-.57,2.12-1.19,2.78-1.86h4.14v57.69c0,1.91-.02,3.59-.07,5.07-.05,1.48-.21,3.02-.5,4.64,1.52-.09,3.02-.17,4.5-.21,1.47-.05,2.97-.12,4.5-.21v5.85h-29.13v-4.28ZM710.75,20.85c-2,0-3.76-.81-5.28-2.43-1.52-1.62-2.29-3.62-2.29-6s.79-4.4,2.36-6.07c1.57-1.66,3.36-2.5,5.36-2.5,2.19,0,4.02.83,5.5,2.5,1.47,1.67,2.21,3.69,2.21,6.07s-.79,4.38-2.36,6c-1.57,1.62-3.41,2.43-5.5,2.43Z" fill="#00233f"/>
      <path d="M743.44,109.47c-1.58,0-2.97-.64-4.17-1.9-1.2-1.27-1.8-2.83-1.8-4.68s.62-3.43,1.85-4.74c1.24-1.3,2.64-1.96,4.22-1.96,1.71,0,3.14.65,4.27,1.96,1.13,1.3,1.7,2.88,1.7,4.74s-.62,3.42-1.85,4.68-2.64,1.9-4.22,1.9Z" fill="#740003"/>
      <path d="M785.85,109.47c-4.6,0-8.84-1.05-12.71-3.14-3.88-2.09-6.97-5.11-9.26-9.06-2.3-3.95-3.45-8.7-3.45-14.26,0-3.57.65-7.03,1.96-10.4,1.3-3.36,3.14-6.4,5.51-9.11,2.37-2.71,5.2-4.85,8.49-6.43,3.29-1.58,6.93-2.37,10.91-2.37s7.19.58,10.04,1.75c2.85,1.17,5.06,2.71,6.64,4.63,1.58,1.92,2.37,4.01,2.37,6.28,0,1.51-.41,2.8-1.24,3.86-.82,1.06-2.02,1.6-3.6,1.6-1.72.07-2.93-.46-3.65-1.6s-1.08-2.14-1.08-3.04c0-.69.1-1.39.31-2.11s.62-1.39,1.24-2.01c-.55-1.65-1.51-2.86-2.88-3.65-1.37-.79-2.8-1.3-4.27-1.54-1.48-.24-2.69-.36-3.65-.36-4.67,0-8.6,1.87-11.79,5.61-3.19,3.74-4.79,9.18-4.79,16.32,0,4.6.74,8.68,2.21,12.25,1.48,3.57,3.55,6.37,6.23,8.39,2.68,2.02,5.76,3.04,9.26,3.04,3.23,0,6.31-.86,9.26-2.57,2.95-1.71,5.25-3.81,6.9-6.28l2.68,2.06c-1.79,2.88-3.93,5.22-6.43,7-2.51,1.79-5.08,3.09-7.72,3.91-2.64.82-5.13,1.24-7.46,1.24Z" fill="#740003"/>
      <path d="M840.52,109.47c-4.8,0-9.16-1.12-13.07-3.35-3.91-2.23-7.02-5.32-9.32-9.26-2.3-3.95-3.45-8.46-3.45-13.54,0-5.42,1.13-10.29,3.4-14.62,2.26-4.32,5.35-7.74,9.26-10.24,3.91-2.5,8.3-3.76,13.18-3.76s9.16,1.15,13.07,3.45c3.91,2.3,7.03,5.4,9.37,9.32,2.33,3.91,3.5,8.37,3.5,13.38,0,5.29-1.15,10.11-3.45,14.46-2.3,4.36-5.4,7.81-9.32,10.35-3.91,2.54-8.3,3.81-13.18,3.81ZM841.34,105.35c3.64,0,6.52-1.03,8.65-3.09,2.13-2.06,3.65-4.74,4.58-8.03.93-3.29,1.39-6.76,1.39-10.4,0-3.09-.29-6.12-.88-9.11-.58-2.99-1.49-5.7-2.73-8.13-1.24-2.44-2.83-4.38-4.79-5.82-1.96-1.44-4.31-2.16-7.05-2.16-3.57,0-6.49,1.03-8.75,3.09-2.27,2.06-3.93,4.74-4.99,8.03-1.06,3.29-1.6,6.83-1.6,10.6,0,4.26.58,8.29,1.75,12.1,1.17,3.81,2.95,6.92,5.35,9.32,2.4,2.4,5.42,3.6,9.06,3.6Z" fill="#740003"/>
      <path d="M875.21,107.82v-3.09c2.13,0,3.6-.53,4.43-1.6.82-1.06,1.3-2.54,1.44-4.43.14-1.89.21-4.07.21-6.54v-23.47c0-1.1.02-2.2.05-3.29.03-1.1.15-2.23.36-3.4-1.24.07-2.45.14-3.65.21-1.2.07-2.42.14-3.65.21v-4.32c3.02,0,5.3-.14,6.85-.41,1.54-.27,2.69-.62,3.45-1.03.75-.41,1.37-.86,1.85-1.34h2.99c.14.69.22,1.48.26,2.37.03.89.08,1.92.15,3.09,2.06-1.78,4.43-3.24,7.1-4.38s5.35-1.7,8.03-1.7c3.43,0,6.31.62,8.65,1.85,2.33,1.24,4.15,2.92,5.46,5.04,2.33-1.92,5.03-3.55,8.08-4.89,3.05-1.34,6.06-2.01,9.01-2.01,5.97,0,10.36,1.8,13.18,5.4,2.81,3.6,4.15,9.49,4.01,17.65l-.1,19.15c0,1.37-.02,2.59-.05,3.65-.04,1.06-.15,2.18-.36,3.35,1.1-.07,2.18-.12,3.24-.15,1.06-.03,2.14-.08,3.24-.15v4.22h-21v-3.09c2.13,0,3.6-.53,4.43-1.6.82-1.06,1.3-2.54,1.44-4.43.14-1.89.21-4.07.21-6.54v-14.41c0-5.9-.94-10.33-2.83-13.28-1.89-2.95-4.86-4.39-8.9-4.32-2.13,0-4.26.48-6.38,1.44-2.13.96-3.98,2.16-5.56,3.6.34,1.1.6,2.28.77,3.55.17,1.27.26,2.59.26,3.96-.07,3.98-.1,8-.1,12.04s-.04,8.1-.1,12.15c0,1.37-.02,2.59-.05,3.65-.04,1.06-.15,2.18-.36,3.35,1.1-.07,2.18-.12,3.24-.15,1.06-.03,2.14-.08,3.24-.15v4.22h-21v-3.09c2.13,0,3.58-.53,4.38-1.6.79-1.06,1.27-2.54,1.44-4.43.17-1.89.26-4.07.26-6.54l.1-14.41c.07-5.9-.79-10.36-2.57-13.38-1.79-3.02-4.7-4.49-8.75-4.43-2.13,0-4.22.46-6.28,1.39-2.06.93-3.81,2.11-5.25,3.55,0,.82.02,1.7.05,2.62.03.93.05,1.9.05,2.93v26.46c0,1.37-.02,2.59-.05,3.65-.04,1.06-.15,2.18-.36,3.35,1.1-.07,2.18-.12,3.24-.15,1.06-.03,2.14-.08,3.24-.15v4.22h-21Z" fill="#740003"/>
    </g>
  </g>
</svg>