<?xml version="1.0" encoding="UTF-8"?>
<svg id="katman_2" data-name="katman 2" xmlns="http://www.w3.org/2000/svg" viewBox="0 0 1420.1 357.74">
  <g id="katman_1" data-name="katman 1">
    <path d="M207.26,30c34.71,0,69.95,7.01,104.98,20.87v112.71c0,57.88-47.09,104.97-104.98,104.97s-104.97-47.09-104.97-104.97V50.87c35.02-13.86,70.27-20.87,104.97-20.87Z" fill="#fff"/>
    <path d="M338.09,29.21C294.73,9.83,250.71,0,207.26,0S119.8,9.83,76.43,29.21l-4.14,1.85v132.52c0,74.42,60.55,134.97,134.97,134.97s134.98-60.55,134.98-134.97V31.06l-4.15-1.85ZM318.15,163.57c0,61.15-49.74,110.89-110.89,110.89s-110.88-49.74-110.88-110.89V46.87c36.94-15.12,74.19-22.78,110.88-22.78s73.94,7.66,110.89,22.78v116.7Z" fill="#fff"/>
    <path d="M312.24,50.87v112.71c0,57.88-47.09,104.97-104.98,104.97s-104.97-47.09-104.97-104.97V50.87c35.02-13.86,70.27-20.87,104.97-20.87s69.95,7.01,104.98,20.87Z" fill="#fff"/>
    <g>
      <path d="M303.91,147.82V56.58c-32.18-12.07-64.51-18.2-96.27-18.25v109.48h96.27Z" fill="#740003"/>
      <path d="M207.64,38.34c-.12,0-.25,0-.37,0-31.88,0-64.34,6.14-96.64,18.25v91.24h97.02V38.34Z" fill="#00233f"/>
      <path d="M110.62,147.82v15.75c0,53.29,43.35,96.65,96.64,96.65.12,0,.25,0,.37,0v-112.39h-97.02Z" fill="#740003"/>
      <path d="M207.64,147.82v112.39c53.12-.2,96.27-43.47,96.27-96.64v-15.75h-96.27Z" fill="#00233f"/>
    </g>
    <g>
      <g>
        <path d="M169.83,357.74c-3.76,0-8.16-.78-13.46-2.39l-11.67-3.54,10.79-5.67c2.16-1.14,4.19-2.52,6.03-4.1,2.32-2,3.53-3.62,4.71-5.18,1.12-1.5,2.28-3.05,4.08-4.38,1.58-1.17,5.9-3.89,11.98-3.89,4.98,0,9.9,1.78,14.61,5.29l7.21,5.37-8.37,3.29c-.58.23-1.24.45-1.98.7-1.87.63-4,1.34-5.81,2.67-1.81,1.33-2.89,2.88-4.02,4.51-1.04,1.5-2.12,3.06-3.73,4.27-2.67,2.02-6.16,3.04-10.37,3.04h0Z" fill="#fff"/>
        <path d="M173.28,336.5c-2.68,1.98-3.52,5.05-8.5,9.33-2.74,2.36-5.31,3.86-6.97,4.74,10.75,3.26,16.28,2.47,19.36.14,2.31-1.75,3.52-5.67,7.8-8.82,3.2-2.35,6.79-3.16,8.92-3.99-9.84-7.34-17.76-3.51-20.62-1.39Z" fill="#740003"/>
      </g>
      <g>
        <path d="M135.65,348.17c-3.76,0-8.16-.78-13.46-2.39l-11.67-3.54,10.79-5.67c2.16-1.14,4.19-2.52,6.03-4.1,2.32-2,3.53-3.62,4.71-5.18,1.12-1.5,2.28-3.05,4.08-4.38,1.58-1.17,5.9-3.89,11.98-3.89,4.98,0,9.9,1.78,14.61,5.29l7.21,5.37-8.37,3.29c-.58.23-1.24.45-1.98.7-1.87.63-4,1.34-5.81,2.67-1.82,1.33-2.89,2.88-4.02,4.51-1.04,1.5-2.12,3.06-3.73,4.27-2.67,2.02-6.16,3.04-10.37,3.04h0Z" fill="#fff"/>
        <path d="M139.1,326.92c-2.68,1.98-3.52,5.05-8.5,9.33-2.74,2.36-5.31,3.86-6.97,4.74,10.75,3.26,16.28,2.47,19.36.14,2.31-1.75,3.52-5.67,7.8-8.82,3.2-2.35,6.79-3.16,8.92-3.99-9.84-7.34-17.76-3.51-20.62-1.39Z" fill="#740003"/>
      </g>
      <g>
        <path d="M103.11,329.43c-4.61,0-10.15-1.75-16.96-5.36l-10.77-5.71,11.68-3.49c2.34-.7,4.6-1.66,6.7-2.86,2.66-1.51,4.16-2.87,5.61-4.18,1.39-1.25,2.83-2.55,4.84-3.51,1.49-.71,4.58-1.89,8.58-1.89,4.4,0,10.95,1.45,17.24,8.38l6.04,6.66-8.84,1.62c-.61.11-1.31.21-2.08.31-1.96.26-4.18.55-6.21,1.5-2.04.96-3.38,2.27-4.81,3.66-1.31,1.27-2.67,2.59-4.48,3.47-1.94.95-4.15,1.43-6.55,1.43h0Z" fill="#fff"/>
        <path d="M106.37,308.82c-3.01,1.43-4.43,4.28-10.13,7.53-3.14,1.79-5.95,2.77-7.75,3.31,9.92,5.26,15.5,5.55,18.98,3.86,2.6-1.27,4.54-4.89,9.35-7.16,3.6-1.69,7.27-1.79,9.52-2.21-8.25-9.09-16.76-6.86-19.96-5.33Z" fill="#740003"/>
      </g>
      <g>
        <path d="M71.42,302.11c-5.46,0-11.47-2.99-18.92-9.42l-9.23-7.96,12.16-.81c2.44-.16,4.86-.6,7.17-1.3,2.93-.89,4.7-1.88,6.4-2.83,1.63-.92,3.32-1.86,5.5-2.35,1.32-.29,2.78-.45,4.22-.45,4.66,0,13.38,1.62,19.51,12.51l4.41,7.83-8.98-.38c-.62-.03-1.32-.09-2.09-.16-1.09-.1-2.21-.21-3.39-.21-1.11,0-2.09.1-3,.3-2.2.48-3.8,1.46-5.5,2.49-1.56.95-3.18,1.93-5.14,2.39-1.01.24-2.06.36-3.13.36Z" fill="#fff"/>
        <path d="M75.6,282.32c-3.25.73-5.27,3.19-11.55,5.09-3.46,1.05-6.42,1.38-8.29,1.51,8.5,7.34,13.88,8.86,17.64,7.98,2.82-.66,5.52-3.76,10.71-4.9,3.88-.85,7.48-.13,9.77-.04-6.02-10.7-14.82-10.41-18.28-9.63Z" fill="#740003"/>
      </g>
      <g>
        <path d="M67.67,265.86c-.6-.16-1.27-.37-2.01-.61-1.88-.6-4.01-1.28-6.25-1.28-2.26,0-4.04.61-5.92,1.26-1.73.59-3.52,1.21-5.53,1.24h-.19c-6.3,0-12.47-4.31-19.41-13.57l-7.31-9.75,12.05,1.81c1.59.24,3.2.36,4.8.36.83,0,1.67-.03,2.49-.1,3.05-.24,4.99-.83,6.86-1.4,1.79-.54,3.64-1.11,5.88-1.12,7.5,0,16.79,4.43,20.6,16.85l2.63,8.59-8.69-2.29Z" fill="#fff"/>
        <path d="M68.95,261.02c-3.6-11.74-12.25-13.34-15.8-13.32-3.33.02-5.83,1.99-12.37,2.5-3.6.28-6.57-.02-8.42-.3,6.74,8.98,11.66,11.62,15.53,11.57,2.89-.04,6.19-2.49,11.51-2.5,3.97,0,7.34,1.47,9.55,2.05Z" fill="#740003"/>
      </g>
      <g>
        <path d="M49.62,231.89c-.55-.26-1.17-.59-1.84-.95-1.71-.92-3.64-1.95-5.8-2.35-.73-.13-1.46-.2-2.22-.2-1.27,0-2.5.18-3.69.36-1.19.18-2.42.36-3.69.36h0c-.67,0-1.3-.05-1.91-.15-6.2-1.05-11.47-6.35-16.59-16.67l-5.42-10.92,11.53,3.97c2.27.78,4.62,1.3,6.98,1.55.99.1,1.93.16,2.85.16,1.54,0,2.79-.14,4.01-.28,1.13-.13,2.2-.25,3.37-.25.89,0,1.72.07,2.54.22,7.24,1.31,15.5,7.26,16.97,20.06l1.03,8.93-8.13-3.84Z" fill="#fff"/>
        <path d="M42.88,223.68c3.84.71,6.83,2.73,8.87,3.69-1.38-11.99-9.46-15.09-12.89-15.71-3.23-.58-5.99.88-12.41.2-3.53-.37-6.34-1.2-8.09-1.8,4.91,9.89,9.2,13.32,12.95,13.96,2.81.48,6.43-1.3,11.57-.36Z" fill="#740003"/>
      </g>
      <g>
        <path d="M38.63,199.16c-.49-.29-1.04-.64-1.63-1.04-1.48-.97-3.15-2.07-5.05-2.6-1-.28-2.04-.41-3.25-.41-.7,0-1.41.04-2.09.08-.76.04-1.47.08-2.15.08h0c-1.2,0-2.2-.12-3.15-.37-5.75-1.52-10.26-6.91-14.17-16.98l-4.42-11.36,11.12,4.98c2,.9,4.1,1.57,6.23,1.99,2.11.42,3.7.47,4.84.47.51,0,.98-.01,1.42-.02.48-.01.93-.02,1.36-.02,1.18,0,2.6.06,4.2.5,6.7,1.84,13.97,8.13,14.27,20.26l.22,8.99-7.75-4.55Z" fill="#fff"/>
        <path d="M22.57,190.07c2.55.67,6.04-.67,10.71.63,3.49.97,6.08,3.09,7.88,4.14-.28-11.18-7.47-14.7-10.6-15.56-2.93-.8-5.6.31-11.47-.84-3.23-.64-5.75-1.63-7.31-2.33,3.71,9.53,7.38,13.06,10.79,13.95Z" fill="#740003"/>
      </g>
      <g>
        <path d="M32.06,162.77c-.46-.34-.96-.76-1.51-1.21-1.36-1.13-2.9-2.41-4.73-3.15-1.83-.74-3.51-.83-5.28-.92-1.7-.09-3.45-.18-5.23-.87-5.55-2.15-9.42-8.01-12.19-18.45l-3.12-11.78,10.5,6.2c1.89,1.12,3.9,2.01,5.97,2.67,2.61.82,4.42.99,6.18,1.14,1.73.16,3.52.32,5.47,1.09,6.45,2.58,12.97,9.63,11.92,21.72l-.78,8.96-7.2-5.39Z" fill="#fff"/>
        <path d="M17.12,151.95c2.46.95,6.08,0,10.57,1.82,3.36,1.35,5.7,3.75,7.36,5,.97-11.14-5.79-15.44-8.79-16.64-2.82-1.13-5.6-.31-11.3-2.11-3.14-.99-5.54-2.26-7.01-3.13,2.62,9.89,5.88,13.8,9.16,15.07Z" fill="#740003"/>
      </g>
      <g>
        <path d="M32.62,130.45c-.46-.34-.96-.76-1.51-1.21-1.36-1.13-2.9-2.41-4.73-3.15-1.83-.74-3.51-.83-5.28-.92-1.7-.09-3.45-.18-5.23-.87-5.55-2.15-9.42-8.01-12.19-18.45l-3.12-11.78,10.5,6.19c1.89,1.12,3.9,2.01,5.97,2.67,2.61.82,4.42.99,6.17,1.14,1.73.16,3.52.32,5.47,1.09,6.45,2.57,12.97,9.63,11.92,21.72l-.78,8.95-7.2-5.38Z" fill="#fff"/>
        <path d="M17.68,119.63c2.46.95,6.08,0,10.57,1.82,3.36,1.35,5.7,3.75,7.36,5,.97-11.14-5.79-15.44-8.79-16.64-2.82-1.13-5.6-.31-11.3-2.11-3.14-.99-5.54-2.26-7.01-3.13,2.62,9.89,5.88,13.8,9.16,15.07Z" fill="#740003"/>
      </g>
      <g>
        <path d="M207.13,340.75c-1.81-.05-44.78-1.56-88.21-29.1-25.56-16.21-45.88-38.1-60.39-65.05-18.02-33.48-27.03-74.86-26.77-122.99l.03-4.97h.04c-.26-4.03.51-7.28,2.31-9.84,1.04-1.48,2.35-2.46,3.61-3.4,1.26-.94,2.45-1.83,3.42-3.25.97-1.43,1.48-3.13,1.92-4.64.19-.63.36-1.2.53-1.7l2.99-8.48,5.62,7.01c7.05,8.79,5.65,17.63,1.98,22.97-1.02,1.49-2.2,2.49-3.35,3.43l3.83,4.77c7.32,9.12,5.86,18.28,2.06,23.8-.68.99-1.43,1.78-2.2,2.47l4.78,5.59c8.01,9.36,6.79,19.04,2.98,24.97-1.15,1.79-2.53,2.98-3.87,4.13-1.36,1.17-2.78,2.39-4.46,4.63-.11.15-.22.3-.33.45.8,2.73,1.65,5.45,2.55,8.13.89-.77,1.71-1.62,2.43-2.75,1.09-1.72,1.61-3.7,2.07-5.45.18-.7.35-1.34.53-1.89l2.72-8.57,5.84,6.83c7.78,9.1,6.85,18.5,3.29,24.46l5.3,3.28c10.53,6.5,12.79,15.95,11.36,23.05l7.41,3.77c11.63,5.92,14.36,15.87,13.04,23.2-.4,2.2-1.27,3.93-2.12,5.6-.78,1.54-1.58,3.13-2.28,5.51,3.18,2.79,6.49,5.47,9.89,8,.44-1.56.79-3.11.72-4.97-.1-2.25-.87-4.35-1.55-6.2-.27-.73-.51-1.39-.69-1.98l-2.67-8.59,8.7,2.26c12.63,3.28,17.44,12.41,17.73,19.86.09,2.23-.4,4.11-.86,5.92-.47,1.82-.95,3.7-1.08,6.55,2.97,1.59,6.04,3.11,9.19,4.55.04-.19.08-.38.12-.57.4-1.95.77-3.79.48-6.02-.29-2.23-1.24-4.26-2.08-6.04-.33-.7-.63-1.34-.86-1.91l-3.4-8.32,8.86,1.5c12.87,2.18,18.45,10.86,19.38,18.25.28,2.22-.04,4.13-.35,5.97-.27,1.6-.54,3.25-.54,5.51,3.15,1,6.38,1.93,9.68,2.8,0-.67.04-1.32.08-1.97.11-1.99.21-3.86-.41-6.03-.61-2.16-1.85-4.03-2.95-5.67-.43-.65-.82-1.23-1.13-1.77l-4.58-7.73,8.99.18c13.05.26,19.84,8.03,21.85,15.21.6,2.15.57,4.09.53,5.96-.03,1.87-.07,3.8.46,6.58,2.84.46,5.44.83,7.96,1.15,2.53-.32,5.12-.69,7.96-1.15.52-2.78.49-4.71.46-6.58-.03-1.87-.07-3.81.53-5.96,2.01-7.18,8.8-14.94,21.85-15.21l8.99-.18-4.58,7.73c-.32.53-.7,1.12-1.13,1.77-1.09,1.65-2.33,3.51-2.95,5.67-.62,2.17-.51,4.04-.41,6.03.04.65.07,1.31.08,1.97,3.3-.87,6.54-1.81,9.68-2.8,0-2.26-.27-3.9-.54-5.51-.31-1.85-.63-3.76-.35-5.98.93-7.39,6.51-16.07,19.38-18.25l8.86-1.5-3.4,8.32c-.23.57-.53,1.21-.86,1.91-.84,1.79-1.79,3.81-2.08,6.04-.29,2.23.09,4.07.48,6.02.04.19.08.38.12.57,3.15-1.45,6.22-2.97,9.19-4.55-.13-2.85-.62-4.73-1.08-6.55-.47-1.81-.95-3.69-.86-5.92.29-7.45,5.09-16.58,17.73-19.86l8.7-2.26-2.67,8.59c-.18.59-.42,1.25-.69,1.98-.68,1.85-1.46,3.96-1.55,6.2-.08,1.86.27,3.41.72,4.97,3.4-2.53,6.71-5.21,9.89-8-.7-2.38-1.5-3.97-2.28-5.51-.85-1.67-1.72-3.4-2.12-5.6-1.32-7.33,1.41-17.28,13.04-23.2l7.41-3.77c-1.43-7.1.83-16.55,11.36-23.05l5.3-3.28c-3.56-5.97-4.49-15.36,3.29-24.46l5.84-6.83,2.72,8.57c.17.55.35,1.19.53,1.89.46,1.75.98,3.73,2.07,5.45.72,1.13,1.55,1.98,2.43,2.75.9-2.69,1.75-5.41,2.55-8.13-.11-.15-.22-.3-.33-.45-1.68-2.24-3.09-3.45-4.46-4.62-1.34-1.15-2.72-2.34-3.87-4.13-3.81-5.93-5.02-15.61,2.98-24.97l4.78-5.59c-.77-.69-1.52-1.48-2.2-2.47-3.8-5.52-5.25-14.68,2.06-23.8l3.83-4.77c-1.15-.93-2.33-1.94-3.35-3.43-3.67-5.34-5.08-14.18,1.98-22.97l5.62-7.01,2.99,8.48c.17.49.35,1.07.53,1.7.45,1.51.95,3.21,1.92,4.64.97,1.42,2.16,2.31,3.42,3.25,1.27.95,2.58,1.93,3.61,3.4,1.8,2.56,2.57,5.81,2.31,9.84h.04l.03,4.97c.26,48.13-8.75,89.5-26.77,122.99-14.51,26.95-34.83,48.84-60.39,65.05-43.43,27.54-86.4,29.05-88.21,29.1h-.14s-.14,0-.14,0ZM324.62,247.3c-.05.62-.15,1.32-.25,2.08-.27,1.96-.57,4.17-.18,6.39.26,1.46.74,2.66,1.31,3.82,1.91-2.28,3.77-4.62,5.56-7.01-.11-.37-.23-.74-.35-1.1-1-2.89-2.06-4.61-3.09-6.28-.9-1.46-1.82-2.96-2.41-4.86l-.59,6.95ZM83.48,252.58c1.8,2.39,3.65,4.73,5.56,7.01.57-1.15,1.05-2.36,1.31-3.82.39-2.21.09-4.43-.18-6.39-.11-.77-.2-1.47-.25-2.08l-.59-6.95c-.59,1.89-1.51,3.4-2.41,4.85-1.02,1.67-2.08,3.39-3.09,6.28-.12.36-.24.72-.35,1.09ZM343.77,219.86c0,.62-.04,1.33-.08,2.1-.11,1.97-.23,4.21.34,6.38.24.91.56,1.7.93,2.45,1.69-3.14,3.31-6.35,4.83-9.6-1.55-1.99-2.88-3.13-4.16-4.23-.62-.53-1.24-1.07-1.85-1.67v4.58ZM64.75,221.19c1.52,3.25,3.13,6.46,4.83,9.6.37-.74.69-1.54.93-2.45.57-2.18.45-4.41.34-6.38-.04-.77-.08-1.48-.08-2.09v-4.58c-.62.6-1.25,1.14-1.86,1.67-1.28,1.1-2.61,2.24-4.16,4.23ZM363.76,159.11c.17.55.35,1.19.53,1.89.46,1.75.98,3.73,2.07,5.45.09.13.17.27.26.39.4-2.28.78-4.58,1.11-6.87-.58-.95-1.22-1.85-1.91-2.71-1.46-1.82-2.69-2.88-3.87-3.83l1.8,5.67ZM46.8,159.98c.34,2.29.71,4.58,1.11,6.87.09-.13.18-.26.26-.39,1.09-1.72,1.61-3.7,2.07-5.45.18-.7.35-1.34.53-1.89l1.8-5.67c-1.18.96-2.41,2.01-3.87,3.83-.68.85-1.32,1.76-1.91,2.71ZM44.32,128.15c0,1.13.01,2.44.04,3.91.5-1.1.84-2.26,1.16-3.32.19-.65.37-1.25.55-1.77l.93-2.65c-.16.18-.32.38-.48.58-.83,1.03-1.55,2.1-2.21,3.24ZM368.46,126.98c.18.52.36,1.11.56,1.77.31,1.06.65,2.21,1.15,3.31.04-1.54.05-2.85.05-3.91-.65-1.14-1.38-2.21-2.21-3.24-.16-.21-.33-.4-.48-.58l.93,2.65Z" fill="#fff"/>
        <path d="M377.77,123.64h-.96c1.58-6.2,1.02-9.79-.51-11.97-1.38-1.96-4.59-3.08-7.07-6.71-1.85-2.72-2.41-5.71-3.04-7.49-6.36,7.93-3.42,14.59-1.76,17.01,1.56,2.27,4.07,3.06,7.47,7.3,1.55,1.93,2.6,3.72,3.3,5.09.03,3.39-.04,9.32-.64,17.05-.08-.12-.14-.27-.22-.39-1.44-2.06-4.81-3.23-7.41-7.04-1.94-2.85-2.53-5.98-3.19-7.86-6.67,8.31-3.59,15.3-1.84,17.84,1.64,2.39,4.27,3.21,7.83,7.66,1.43,1.79,2.47,3.48,3.2,4.83-.77,5.53-1.8,11.52-3.17,17.85-1.51-2.19-5.01-3.58-7.62-7.69-1.98-3.11-2.5-6.48-3.15-8.51-7.41,8.67-4.35,16.24-2.57,19.02,1.67,2.61,4.46,3.58,8.12,8.45.69.92,1.25,1.79,1.77,2.63-1.69,6.02-3.7,12.23-6.08,18.52-.24-.68-.51-1.32-.86-1.85-1.47-2.25-5.04-3.61-7.69-7.78-1.98-3.11-2.5-6.48-3.15-8.51-7.41,8.67-4.35,16.24-2.57,19.02,1.67,2.61,4.46,3.58,8.12,8.45.54.72,1.01,1.41,1.44,2.09-3.09,6.88-6.67,13.78-10.79,20.59-.05-.39-.11-.78-.21-1.14-.77-2.79-3.98-5.36-5.33-10.5-1.01-3.84-.44-7.47-.43-9.76-10.45,6.45-9.8,15.22-8.89,18.66.86,3.22,3.4,5.14,5.55,11.34.47,1.36.8,2.61,1.07,3.78-3.83,5.26-8.03,10.4-12.65,15.37,0-.51-.06-.99-.14-1.45-.54-2.84-3.53-5.67-4.45-10.9-.69-3.91.18-7.48.37-9.76-10.94,5.57-11.02,14.37-10.39,17.86.59,3.28,2.96,5.4,4.6,11.76.18.69.31,1.33.43,1.98-5.96,5.44-12.5,10.59-19.69,15.35.32-.94.51-1.83.53-2.67.08-2.89-2.23-6.29-2-11.61.17-3.97,1.78-7.27,2.46-9.45-11.88,3.09-13.85,11.66-13.99,15.21-.13,3.33,1.73,5.91,1.96,12.47.03.98.02,1.91-.01,2.78-6.21,3.46-12.85,6.64-19.92,9.51.66-1.2,1.04-2.35,1.16-3.43.33-2.88-1.67-6.46-.99-11.74.51-3.94,2.41-7.09,3.27-9.2-12.11,2.05-14.81,10.42-15.25,13.94-.42,3.31,1.22,6.04.88,12.59-.04.69-.1,1.33-.17,1.97-7.14,2.4-14.71,4.48-22.7,6.22,1.65-1.61,2.59-3.2,3-4.73.75-2.8-.71-6.64.75-11.75,1.08-3.82,3.42-6.66,4.59-8.62-12.27.25-16.18,8.13-17.13,11.55-.9,3.21.32,6.15-.98,12.58-.22,1.09-.48,2.07-.75,3-3.92.67-7.91,1.29-12.04,1.8-4.12-.51-8.11-1.12-12.04-1.8-.27-.93-.53-1.92-.75-3-1.3-6.44-.08-9.37-.98-12.58-.96-3.42-4.86-11.3-17.13-11.55,1.17,1.97,3.5,4.8,4.59,8.62,1.45,5.11,0,8.96.75,11.75.41,1.54,1.36,3.12,3,4.73-7.99-1.74-15.56-3.82-22.7-6.22-.07-.64-.14-1.27-.17-1.97-.34-6.56,1.29-9.28.88-12.59-.44-3.52-3.14-11.89-15.25-13.94.87,2.12,2.76,5.26,3.27,9.2.68,5.27-1.32,8.86-.99,11.74.13,1.08.51,2.23,1.16,3.43-7.07-2.87-13.71-6.05-19.92-9.51-.04-.88-.05-1.8-.01-2.78.23-6.56,2.09-9.14,1.96-12.47-.14-3.55-2.1-12.12-13.99-15.21.68,2.18,2.29,5.48,2.46,9.45.23,5.31-2.08,8.71-2,11.61.02.84.21,1.73.53,2.67-7.18-4.76-13.72-9.92-19.69-15.35.13-.64.26-1.29.43-1.98,1.63-6.36,4.01-8.47,4.6-11.76.63-3.5.55-12.29-10.39-17.86.19,2.28,1.06,5.85.37,9.76-.92,5.24-3.91,8.06-4.45,10.9-.09.46-.14.95-.14,1.45-4.62-4.97-8.82-10.11-12.65-15.37.27-1.17.6-2.42,1.07-3.78,2.15-6.2,4.69-8.12,5.55-11.34.91-3.43,1.56-12.2-8.89-18.66,0,2.29.58,5.92-.43,9.76-1.35,5.14-4.56,7.71-5.33,10.5-.1.36-.16.75-.21,1.14-4.12-6.81-7.7-13.71-10.79-20.59.43-.67.91-1.37,1.44-2.09,3.66-4.87,6.45-5.85,8.12-8.45,1.78-2.78,4.84-10.35-2.57-19.02-.64,2.02-1.17,5.4-3.15,8.51-2.65,4.17-6.22,5.53-7.69,7.78-.35.53-.63,1.17-.86,1.85-2.38-6.29-4.39-12.5-6.08-18.52.52-.84,1.08-1.71,1.77-2.63,3.66-4.87,6.45-5.85,8.12-8.45,1.78-2.78,4.84-10.35-2.57-19.02-.64,2.02-1.16,5.4-3.15,8.51-2.61,4.11-6.11,5.49-7.62,7.69-1.36-6.32-2.39-12.31-3.17-17.85.73-1.36,1.77-3.05,3.2-4.83,3.56-4.45,6.2-5.27,7.83-7.66,1.75-2.54,4.82-9.53-1.84-17.84-.66,1.87-1.25,5.01-3.19,7.86-2.6,3.81-5.97,4.98-7.41,7.04-.08.12-.15.26-.22.39-.6-7.73-.67-13.66-.64-17.05.7-1.36,1.75-3.15,3.3-5.09,3.4-4.24,5.91-5.03,7.47-7.3,1.67-2.42,4.6-9.08-1.76-17.01-.63,1.79-1.19,4.77-3.04,7.49-2.48,3.64-5.69,4.75-7.07,6.71-1.53,2.18-2.09,5.77-.51,11.97h-.96c-1.11,207.28,170.51,212.11,170.51,212.11,0,0,171.62-4.83,170.51-212.11Z" fill="#740003"/>
      </g>
      <g>
        <path d="M244.71,357.74c-4.21,0-7.69-1.02-10.37-3.05-1.61-1.21-2.68-2.77-3.73-4.27-1.13-1.63-2.21-3.18-4.02-4.51-1.81-1.33-3.94-2.04-5.81-2.67-.73-.25-1.4-.47-1.98-.7l-8.37-3.29,7.21-5.37c4.71-3.51,9.62-5.29,14.61-5.29,6.08,0,10.4,2.72,11.98,3.89,1.8,1.33,2.96,2.88,4.08,4.38,1.17,1.57,2.39,3.19,4.71,5.18,1.84,1.58,3.87,2.96,6.03,4.1l10.79,5.67-11.67,3.54c-5.3,1.61-9.7,2.39-13.46,2.39h0Z" fill="#fff"/>
        <path d="M241.26,336.5c-2.85-2.11-10.77-5.94-20.62,1.39,2.13.84,5.71,1.64,8.92,3.99,4.28,3.15,5.49,7.08,7.8,8.82,3.08,2.33,8.62,3.12,19.36-.14-1.66-.87-4.23-2.38-6.97-4.74-4.97-4.28-5.82-7.35-8.5-9.33Z" fill="#740003"/>
      </g>
      <g>
        <path d="M278.88,348.17c-4.21,0-7.69-1.02-10.37-3.05-1.61-1.21-2.68-2.77-3.73-4.27-1.13-1.63-2.21-3.18-4.02-4.51-1.81-1.33-3.94-2.04-5.81-2.67-.73-.25-1.4-.47-1.98-.7l-8.37-3.29,7.21-5.37c4.71-3.51,9.62-5.29,14.61-5.29,6.07,0,10.4,2.72,11.98,3.89,1.8,1.33,2.96,2.88,4.08,4.38,1.17,1.57,2.39,3.19,4.71,5.18,1.84,1.58,3.86,2.96,6.03,4.1l10.79,5.67-11.67,3.54c-5.3,1.61-9.7,2.39-13.46,2.39h0Z" fill="#fff"/>
        <path d="M275.43,326.92c-2.85-2.11-10.77-5.94-20.62,1.39,2.13.84,5.71,1.64,8.92,3.99,4.28,3.15,5.49,7.08,7.8,8.82,3.08,2.33,8.62,3.12,19.36-.14-1.66-.87-4.23-2.38-6.97-4.74-4.97-4.28-5.82-7.35-8.5-9.33Z" fill="#740003"/>
      </g>
      <g>
        <path d="M311.43,329.43c-2.41,0-4.61-.48-6.55-1.43-1.81-.88-3.17-2.2-4.48-3.47-1.43-1.39-2.77-2.69-4.81-3.65-2.03-.96-4.25-1.25-6.21-1.5-.77-.1-1.47-.19-2.08-.31l-8.84-1.62,6.04-6.66c6.28-6.92,12.84-8.38,17.24-8.38,4.01,0,7.09,1.19,8.58,1.89,2.02.96,3.46,2.26,4.84,3.51,1.45,1.31,2.96,2.67,5.61,4.18,2.11,1.2,4.36,2.16,6.7,2.86l11.68,3.49-10.77,5.71c-6.8,3.61-12.35,5.36-16.96,5.36h0Z" fill="#fff"/>
        <path d="M308.16,308.82c-3.21-1.53-11.71-3.76-19.96,5.33,2.25.41,5.92.51,9.52,2.21,4.81,2.27,6.75,5.89,9.35,7.16,3.47,1.7,9.05,1.4,18.98-3.86-1.79-.54-4.61-1.52-7.75-3.31-5.7-3.25-7.12-6.09-10.13-7.53Z" fill="#740003"/>
      </g>
      <g>
        <path d="M343.12,302.11c-1.07,0-2.12-.12-3.13-.36-1.96-.46-3.58-1.44-5.14-2.39-1.7-1.03-3.3-2.01-5.5-2.49-.91-.2-1.89-.3-3-.3-1.18,0-2.3.11-3.39.21-.77.07-1.47.14-2.09.16l-8.98.38,4.41-7.83c6.13-10.88,14.85-12.51,19.51-12.51,1.44,0,2.9.16,4.22.45,2.18.49,3.87,1.43,5.5,2.35,1.71.96,3.48,1.95,6.4,2.83,2.32.7,4.73,1.14,7.17,1.3l12.16.81-9.23,7.96c-7.45,6.42-13.46,9.42-18.92,9.42h0Z" fill="#fff"/>
        <path d="M338.93,282.32c-3.47-.78-12.26-1.07-18.28,9.63,2.29-.1,5.89-.82,9.77.04,5.19,1.14,7.89,4.24,10.71,4.9,3.76.88,9.14-.64,17.64-7.98-1.87-.12-4.83-.46-8.29-1.51-6.28-1.9-8.3-4.36-11.55-5.09Z" fill="#740003"/>
      </g>
      <g>
        <path d="M340.81,259.56c3.81-12.43,13.1-16.85,20.53-16.85,2.31.01,4.16.57,5.96,1.12,1.87.57,3.81,1.16,6.86,1.4.82.06,1.66.1,2.49.1,1.6,0,3.21-.12,4.8-.36l12.05-1.81-7.31,9.75c-6.94,9.26-13.11,13.57-19.41,13.57h-.19c-2.01-.03-3.8-.65-5.53-1.24-1.88-.65-3.66-1.26-5.91-1.26-2.25,0-4.38.68-6.26,1.28-.74.24-1.41.45-2.01.61l-8.69,2.29,2.63-8.59Z" fill="#fff"/>
        <path d="M373.76,250.2c-6.54-.51-9.04-2.48-12.37-2.5-3.55-.02-12.2,1.58-15.8,13.32,2.21-.58,5.58-2.06,9.55-2.05,5.32,0,8.61,2.46,11.51,2.5,3.87.06,8.79-2.58,15.53-11.57-1.85.28-4.82.58-8.42.3Z" fill="#740003"/>
      </g>
      <g>
        <path d="M357.82,226.8c1.47-12.8,9.73-18.75,16.97-20.06.82-.15,1.65-.22,2.54-.22,1.17,0,2.24.12,3.37.25,1.22.14,2.47.28,4.01.28.93,0,1.86-.05,2.85-.16,2.36-.25,4.71-.77,6.98-1.55l11.53-3.97-5.42,10.92c-5.12,10.32-10.39,15.62-16.59,16.67-.61.1-1.23.15-1.9.15-1.27,0-2.5-.18-3.69-.36-1.19-.18-2.41-.36-3.69-.36-.77,0-1.5.06-2.23.2-2.16.4-4.09,1.44-5.8,2.35-.67.36-1.29.69-1.84.95l-8.13,3.84,1.03-8.93Z" fill="#fff"/>
        <path d="M375.68,211.67c-3.44.62-11.52,3.71-12.89,15.71,2.03-.96,5.02-2.99,8.87-3.69,5.14-.95,8.77.83,11.57.36,3.75-.64,8.04-4.07,12.95-13.96-1.74.6-4.55,1.43-8.09,1.8-6.42.68-9.18-.78-12.41-.2Z" fill="#740003"/>
      </g>
      <g>
        <path d="M368.38,194.72c.3-12.13,7.57-18.42,14.27-20.25,1.6-.44,3.02-.5,4.2-.5.44,0,.89,0,1.36.02.45,0,.92.02,1.43.02,1.14,0,2.73-.05,4.84-.47,2.13-.42,4.23-1.09,6.23-1.98l11.12-4.99-4.42,11.36c-3.92,10.06-8.42,15.46-14.17,16.98-.95.25-1.95.37-3.15.37-.67,0-1.39-.04-2.15-.08-.69-.04-1.39-.08-2.09-.08-1.22,0-2.25.13-3.25.41-1.91.53-3.58,1.63-5.05,2.6-.6.39-1.14.75-1.64,1.04l-7.75,4.55.22-8.98Z" fill="#fff"/>
        <path d="M383.97,179.29c-3.12.86-10.32,4.38-10.6,15.56,1.8-1.05,4.39-3.17,7.88-4.14,4.66-1.3,8.16.04,10.71-.63,3.4-.9,7.08-4.42,10.79-13.95-1.56.7-4.08,1.69-7.31,2.33-5.87,1.15-8.54.04-11.47.84Z" fill="#740003"/>
      </g>
      <g>
        <path d="M374.5,159.2c-1.05-12.09,5.47-19.15,11.92-21.72,1.95-.78,3.74-.94,5.47-1.09,1.75-.16,3.57-.32,6.18-1.14,2.07-.65,4.08-1.55,5.97-2.67l10.5-6.2-3.12,11.78c-2.77,10.44-6.64,16.3-12.19,18.45-1.78.69-3.53.78-5.23.87-1.77.09-3.45.18-5.28.92-1.83.74-3.37,2.02-4.73,3.15-.55.46-1.05.87-1.51,1.21l-7.2,5.39-.78-8.96Z" fill="#fff"/>
        <path d="M388.27,142.12c-3.01,1.2-9.76,5.5-8.79,16.64,1.67-1.25,4.01-3.64,7.36-5,4.49-1.81,8.11-.87,10.57-1.82,3.28-1.27,6.54-5.18,9.16-15.07-1.47.87-3.87,2.14-7.01,3.13-5.7,1.8-8.48.99-11.3,2.11Z" fill="#740003"/>
      </g>
      <g>
        <path d="M373.94,126.88c-1.05-12.09,5.47-19.15,11.92-21.72,1.95-.78,3.74-.94,5.47-1.09,1.75-.16,3.57-.32,6.17-1.14,2.07-.66,4.08-1.55,5.97-2.67l10.5-6.2-3.13,11.78c-2.77,10.44-6.64,16.3-12.19,18.45-1.78.69-3.53.78-5.23.87-1.77.09-3.44.18-5.28.92-1.83.74-3.37,2.02-4.73,3.15-.55.46-1.05.87-1.51,1.21l-7.2,5.38-.78-8.95Z" fill="#fff"/>
        <path d="M386.28,121.45c4.49-1.81,8.11-.87,10.57-1.82,3.28-1.27,6.54-5.18,9.16-15.07-1.47.87-3.87,2.14-7.01,3.13-5.7,1.8-8.48.99-11.3,2.11-3.01,1.2-9.76,5.5-8.79,16.64,1.67-1.25,4.01-3.64,7.36-5Z" fill="#740003"/>
      </g>
    </g>
    <path d="M79.29,35.6v127.98c0,70.67,57.3,127.97,127.97,127.97,35.34,0,67.34-14.32,90.5-37.48,23.16-23.16,37.48-55.16,37.48-90.49V35.6C249.92-2.54,164.61-2.54,79.29,35.6ZM318.15,163.57c0,61.15-49.74,110.89-110.89,110.89s-110.88-49.74-110.88-110.89V46.87c36.94-15.12,74.19-22.78,110.88-22.78s73.94,7.66,110.89,22.78v116.7Z" fill="#00233f"/>
    <path d="M198.81,190.98c-1.3-1.8-3.47-2.77-5.69-2.77h-62.9c-2.22,0-4.39.97-5.69,2.77-.94,1.3-1.47,2.82-1.47,4.4,0,2.6,1.46,6.09,4.46,6.76,1.86.42,4.35-.25,5.5-2.23,1.03-1.77.91-4.47-.7-5.64-.85-.62-2.29-.93-3.41-.21-1.01.64-1.76,2.1-1.18,3.2.35.68,1.29,1.39,2.23,1.04.82-.3,1.33-1.3,1.04-2.3.05-.07.18-.26.39-.29.32-.05.58.27.65.36.46.55.32,1.59-.07,2.3-.49.87-1.5,1.44-2.51,1.43-1.71-.02-2.63-1.67-2.79-1.95-.75-1.34-.61-2.96.07-4.14.17-.3.86-1.42,2.23-1.88.86-.29,1.81-.26,3.34.28,2.74.96,4.54,2.56,4.88,2.86,1.9,1.64,5.38,2.18,12.26,3.2.03,0,.06,0,.1.01,8.03,1.18,16.21,1.18,24.23,0,.03,0,.06,0,.1-.01,6.88-1.02,10.36-1.56,12.26-3.2.34-.29,2.14-1.89,4.88-2.86,1.53-.54,2.48-.57,3.34-.28,1.37.46,2.06,1.58,2.23,1.88.68,1.19.82,2.8.07,4.14-.16.28-1.08,1.93-2.79,1.95-1.01.01-2.02-.55-2.51-1.43-.39-.7-.53-1.74-.07-2.3.07-.09.34-.41.65-.36.21.03.34.21.39.29-.28,1,.23,2,1.04,2.3.93.34,1.88-.37,2.23-1.04.57-1.1-.17-2.56-1.18-3.2-1.13-.72-2.56-.41-3.41.21-1.61,1.17-1.72,3.87-.7,5.64,1.15,1.98,3.64,2.64,5.5,2.23,3-.67,4.45-4.16,4.46-6.76,0-1.58-.53-3.1-1.47-4.4Z" fill="#fff"/>
    <g>
      <path d="M139.97,197.98v4.93h-2.76v-6.35c.68.6,1.57,1.03,2.76,1.42Z" fill="#fff"/>
      <path d="M144.84,199.03v3.87h-2.79v-4.39c.83.17,1.74.34,2.79.51Z" fill="#fff"/>
      <path d="M149.68,199.8v3.1h-2.79v-3.56c.8.14,1.65.26,2.56.4.03,0,.06,0,.09.03.06,0,.09,0,.14.03Z" fill="#fff"/>
      <path d="M154.53,200.34v2.56h-2.79v-2.88c.94.14,1.85.23,2.79.31Z" fill="#fff"/>
      <path d="M159.37,200.6v2.31h-2.79v-2.42c.91.06,1.85.11,2.79.11Z" fill="#fff"/>
      <path d="M164.21,200.6v2.31h-2.79v-2.25c.94,0,1.88-.03,2.79-.06Z" fill="#fff"/>
      <path d="M169.05,200.32v2.59h-2.79v-2.39c.94-.03,1.85-.11,2.79-.2Z" fill="#fff"/>
      <path d="M173.89,199.75v3.16h-2.79v-2.79c.88-.11,1.79-.23,2.68-.34.03-.03.09-.03.11-.03Z" fill="#fff"/>
      <path d="M178.73,198.98v3.93h-2.76v-3.47c1-.14,1.94-.31,2.76-.46Z" fill="#fff"/>
      <path d="M183.57,197.9v5.01h-2.76v-4.3c1.08-.23,1.99-.46,2.76-.71Z" fill="#fff"/>
      <path d="M188.45,194.88v8.03h-2.79v-5.98c.17-.11.34-.23.48-.37.23-.2,1.03-.91,2.31-1.68Z" fill="#fff"/>
    </g>
    <polygon points="187.84 209.31 137.86 209.31 135.02 204.07 190.69 204.07 187.84 209.31" fill="#fff"/>
    <path d="M185.65,210.48v47.3c-1.31-.31-2.62-.63-3.9-1-2.39-.65-4.73-1.4-7.03-2.22-1.05-.37-2.11-.77-3.13-1.2-2.39-.94-4.76-1.99-7.03-3.13-1.05-.51-2.11-1.05-3.13-1.62-2.42-1.28-4.76-2.71-7.03-4.19-1.05-.68-2.08-1.4-3.1-2.14-2.42-1.71-4.78-3.56-7.03-5.5-1.08-.94-2.14-1.91-3.19-2.88v-23.44h44.6Z" fill="#fff"/>
    <path d="M151.28,216.18v26.12c-2.42-1.71-4.78-3.56-7.03-5.5v-20.62c0-1.94,1.57-3.53,3.5-3.53s3.53,1.59,3.53,3.53Z" fill="#740003"/>
    <path d="M161.42,216.18v32.44c-2.42-1.28-4.76-2.71-7.03-4.19v-28.25c0-1.94,1.59-3.53,3.53-3.53s3.5,1.59,3.5,3.53Z" fill="#740003"/>
    <path d="M171.59,216.18v37.19c-2.39-.94-4.76-1.99-7.03-3.13v-34.06c0-1.94,1.57-3.53,3.5-3.53s3.53,1.59,3.53,3.53Z" fill="#740003"/>
    <path d="M181.75,216.18v40.61c-2.39-.65-4.73-1.4-7.03-2.22v-38.39c0-1.94,1.57-3.53,3.5-3.53s3.53,1.59,3.53,3.53Z" fill="#740003"/>
    <polygon points="187.05 186.7 136.01 186.7 133.72 182.06 189.34 182.06 187.05 186.7" fill="#fff"/>
    <g>
      <g>
        <g>
          <path d="M221.24,98.33c4.74,2.77,8.55,3.3,11.14,3.27,2.43-.03,6.96-.08,10.73-1.32,1.05-.35,3.04-.84,5.5-.49,3.16.46,5.27,2.05,6.13,2.79v36.01c-1.97-1.85-5.58-4.73-10.87-6.41-8.63-2.73-17.14-.37-19.71.56-.07-5.56.69-11.8-.14-18.46-.72-5.79-1.7-11.12-2.79-15.95Z" fill="#fff"/>
          <g>
            <path d="M250.91,105.75c-2.14-1.25-4.34-1.92-6.55-1.98-2.01-.08-3.44.4-4.95.88-1.36.44-2.77.89-4.65.93-.08,0-.17,0-.25,0-2.61,0-5.3-.83-7.98-2.48l.3-.49c2.59,1.59,5.18,2.4,7.68,2.4.08,0,.16,0,.24,0,1.79-.04,3.16-.48,4.49-.9,1.49-.48,3.03-.94,5.14-.91,2.3.07,4.6.76,6.82,2.06l-.29.49Z" fill="#00233f"/>
            <path d="M250.91,108.4c-2.14-1.25-4.34-1.92-6.55-1.98-2.01-.08-3.44.4-4.95.88-1.36.44-2.77.89-4.65.93-.09,0-.17,0-.26,0-2.61,0-5.29-.83-7.98-2.48l.3-.49c2.68,1.65,5.33,2.48,7.92,2.4,1.79-.04,3.16-.48,4.49-.9,1.49-.48,3.03-.94,5.14-.91,2.31.07,4.6.76,6.82,2.06l-.29.49Z" fill="#00233f"/>
            <path d="M250.91,111.05c-2.14-1.25-4.34-1.92-6.55-1.98-1.99-.07-3.44.4-4.95.88-1.36.44-2.77.89-4.65.93-.08,0-.17,0-.25,0-2.61,0-5.3-.83-7.98-2.48l.3-.49c2.59,1.59,5.18,2.4,7.68,2.4.08,0,.16,0,.24,0,1.79-.04,3.16-.48,4.49-.9,1.48-.48,3.02-.98,5.14-.91,2.31.07,4.6.76,6.82,2.06l-.29.49Z" fill="#00233f"/>
            <path d="M250.91,113.69c-2.14-1.25-4.34-1.92-6.55-1.98-2.01-.08-3.44.4-4.95.88-1.36.44-2.77.89-4.65.93-.08,0-.17,0-.25,0-2.61,0-5.3-.83-7.98-2.48l.3-.49c2.59,1.59,5.18,2.4,7.68,2.4.08,0,.16,0,.24,0,1.79-.04,3.16-.48,4.49-.9,1.49-.48,3.03-.95,5.14-.91,2.3.07,4.6.76,6.82,2.06l-.29.49Z" fill="#00233f"/>
            <path d="M250.91,116.34c-2.14-1.25-4.34-1.92-6.55-1.98-2.01-.08-3.44.4-4.95.88-1.36.44-2.77.89-4.65.93-2.72.05-5.46-.78-8.24-2.48l.3-.49c2.59,1.59,5.18,2.4,7.68,2.4.08,0,.16,0,.24,0,1.79-.04,3.16-.48,4.49-.9,1.49-.48,3.03-.96,5.14-.91,2.31.07,4.6.76,6.82,2.06l-.29.49Z" fill="#00233f"/>
            <path d="M250.91,118.99c-2.14-1.25-4.34-1.92-6.55-1.98-2.05-.08-3.45.4-4.95.88-1.36.44-2.77.89-4.65.93-.08,0-.17,0-.25,0-2.61,0-5.3-.83-7.98-2.48l.3-.49c2.59,1.59,5.18,2.4,7.68,2.4.08,0,.16,0,.24,0,1.79-.04,3.16-.48,4.49-.9,1.48-.48,3.02-.95,5.14-.91,2.31.07,4.6.76,6.82,2.06l-.29.49Z" fill="#00233f"/>
            <path d="M250.91,121.63c-2.14-1.25-4.34-1.92-6.55-1.98-2.01-.08-3.44.4-4.95.88-1.36.44-2.77.89-4.65.93-.08,0-.17,0-.25,0-2.61,0-5.3-.83-7.98-2.48l.3-.49c2.59,1.59,5.18,2.4,7.68,2.4.08,0,.16,0,.24,0,1.79-.04,3.16-.48,4.49-.9,1.49-.48,3.03-.94,5.14-.91,2.3.07,4.6.76,6.82,2.06l-.29.49Z" fill="#00233f"/>
            <path d="M250.91,124.28c-2.14-1.25-4.34-1.92-6.55-1.98-2.01-.08-3.44.4-4.95.88-1.36.44-2.77.89-4.65.93-2.72.06-5.46-.78-8.24-2.48l.3-.49c2.59,1.59,5.18,2.4,7.68,2.4.08,0,.16,0,.24,0,1.79-.04,3.16-.48,4.49-.9,1.49-.48,3.03-.94,5.14-.91,2.31.07,4.6.76,6.82,2.06l-.29.49Z" fill="#00233f"/>
            <path d="M250.91,126.93c-2.14-1.25-4.34-1.92-6.55-1.98-2.05-.06-3.45.4-4.95.88-1.36.44-2.77.89-4.65.93-.08,0-.17,0-.25,0-2.61,0-5.3-.83-7.98-2.48l.3-.49c2.59,1.59,5.18,2.4,7.68,2.4.08,0,.16,0,.24,0,1.79-.04,3.16-.48,4.49-.9,1.48-.47,3.02-.96,5.14-.91,2.31.07,4.6.76,6.82,2.06l-.29.49Z" fill="#00233f"/>
            <path d="M250.91,129.58c-2.14-1.25-4.34-1.92-6.55-1.98-2.01-.08-3.44.4-4.95.88-1.36.44-2.77.89-4.65.93-.08,0-.17,0-.25,0-2.61,0-5.3-.83-7.98-2.48l.3-.49c2.59,1.59,5.18,2.4,7.68,2.4.08,0,.16,0,.24,0,1.79-.04,3.16-.48,4.49-.9,1.49-.48,3.03-.95,5.14-.91,2.3.07,4.6.76,6.82,2.06l-.29.49Z" fill="#00233f"/>
          </g>
        </g>
        <path d="M253.63,139.99s-8.64-8.36-23.54-2.93l-5.22-2.51s21.59-6.06,28.77,5.43Z" fill="#fff"/>
      </g>
      <g>
        <g>
          <path d="M290.31,98.33c-4.74,2.77-8.55,3.3-11.14,3.27-2.43-.03-6.96-.08-10.73-1.32-1.05-.35-3.04-.84-5.5-.49-3.16.46-5.27,2.05-6.13,2.79v36.01c1.97-1.85,5.58-4.73,10.87-6.41,8.63-2.73,17.14-.37,19.71.56.07-5.56-.69-11.8.14-18.46.72-5.79,1.7-11.12,2.79-15.95Z" fill="#fff"/>
          <g>
            <path d="M260.65,105.75l-.29-.49c2.22-1.3,4.52-1.99,6.82-2.06.12,0,.24,0,.36,0,1.94,0,3.38.46,4.79.91,1.32.43,2.69.86,4.48.9,2.57.07,5.25-.75,7.92-2.4l.3.49c-2.69,1.65-5.37,2.48-7.98,2.48-.08,0-.17,0-.25,0-1.88-.04-3.29-.49-4.65-.93-1.5-.48-2.94-.96-4.95-.88-2.21.06-4.41.73-6.55,1.98Z" fill="#00233f"/>
            <path d="M260.65,108.4l-.29-.49c2.22-1.3,4.52-1.99,6.82-2.06.12,0,.24,0,.36,0,1.94,0,3.38.46,4.79.91,1.32.43,2.69.86,4.48.9.08,0,.16,0,.25,0,2.5,0,5.08-.81,7.68-2.4l.3.49c-2.78,1.7-5.55,2.52-8.24,2.48-1.88-.04-3.29-.49-4.65-.93-1.5-.48-2.94-.95-4.95-.88-2.21.06-4.41.73-6.55,1.98Z" fill="#00233f"/>
            <path d="M260.65,111.05l-.29-.49c2.22-1.3,4.51-1.99,6.82-2.06,2.12-.07,3.65.43,5.14.91,1.32.43,2.69.86,4.48.9,2.57.08,5.25-.75,7.92-2.4l.3.49c-2.69,1.65-5.37,2.48-7.98,2.48-.08,0-.17,0-.25,0-1.88-.04-3.29-.49-4.65-.93-1.5-.48-2.92-.95-4.95-.88-2.21.06-4.41.73-6.55,1.98Z" fill="#00233f"/>
            <path d="M260.65,113.69l-.29-.49c2.22-1.3,4.52-1.99,6.82-2.06.12,0,.24,0,.36,0,1.94,0,3.38.46,4.79.91,1.32.43,2.69.86,4.48.9,2.57.07,5.25-.75,7.92-2.4l.3.49c-2.69,1.65-5.37,2.48-7.98,2.48-.08,0-.17,0-.25,0-1.88-.04-3.29-.49-4.65-.93-1.5-.49-2.94-.95-4.95-.88-2.21.06-4.41.73-6.55,1.98Z" fill="#00233f"/>
            <path d="M260.65,116.34l-.29-.49c2.22-1.3,4.52-1.99,6.82-2.06.12,0,.24,0,.36,0,1.94,0,3.38.46,4.79.91,1.32.43,2.69.86,4.48.9,2.56.06,5.25-.75,7.92-2.4l.3.49c-2.78,1.7-5.57,2.54-8.24,2.48-1.88-.04-3.29-.49-4.65-.93-1.5-.48-2.94-.94-4.95-.88-2.21.06-4.41.73-6.55,1.98Z" fill="#00233f"/>
            <path d="M260.65,118.99l-.29-.49c2.22-1.3,4.51-1.99,6.82-2.06,2.12-.06,3.65.43,5.14.91,1.32.43,2.69.86,4.48.9,2.57.08,5.25-.75,7.92-2.4l.3.49c-2.69,1.65-5.37,2.48-7.98,2.48-.08,0-.17,0-.25,0-1.88-.04-3.29-.49-4.65-.93-1.5-.48-2.92-.96-4.95-.88-2.21.06-4.41.73-6.55,1.98Z" fill="#00233f"/>
            <path d="M260.65,121.63l-.29-.49c2.22-1.3,4.52-1.99,6.82-2.06.12,0,.24,0,.36,0,1.94,0,3.38.46,4.79.91,1.32.43,2.69.86,4.48.9,2.57.06,5.25-.75,7.92-2.4l.3.49c-2.69,1.65-5.37,2.48-7.98,2.48-.08,0-.17,0-.25,0-1.88-.04-3.29-.49-4.65-.93-1.5-.48-2.94-.96-4.95-.88-2.21.06-4.41.73-6.55,1.98Z" fill="#00233f"/>
            <path d="M260.65,124.28l-.29-.49c2.22-1.3,4.52-1.99,6.82-2.06.12,0,.24,0,.36,0,1.94,0,3.38.46,4.79.91,1.32.43,2.69.86,4.48.9,2.56.04,5.25-.75,7.92-2.4l.3.49c-2.78,1.7-5.57,2.54-8.24,2.48-1.88-.04-3.29-.49-4.65-.93-1.5-.48-2.94-.96-4.95-.88-2.21.06-4.41.73-6.55,1.98Z" fill="#00233f"/>
            <path d="M260.65,126.93l-.29-.49c2.22-1.3,4.51-1.99,6.82-2.06,2.12-.05,3.65.43,5.14.91,1.32.43,2.69.86,4.48.9,2.57.08,5.25-.75,7.92-2.4l.3.49c-2.69,1.65-5.37,2.48-7.98,2.48-.08,0-.17,0-.25,0-1.88-.04-3.29-.49-4.65-.93-1.5-.48-2.92-.95-4.95-.88-2.21.06-4.41.73-6.55,1.98Z" fill="#00233f"/>
            <path d="M260.65,129.58l-.29-.49c2.22-1.3,4.52-1.99,6.82-2.06.12,0,.24,0,.36,0,1.94,0,3.38.46,4.79.91,1.32.43,2.69.86,4.48.9,2.57.06,5.25-.75,7.92-2.4l.3.49c-2.69,1.65-5.37,2.48-7.98,2.48-.08,0-.17,0-.25,0-1.88-.04-3.29-.49-4.65-.93-1.5-.49-2.94-.95-4.95-.88-2.21.06-4.41.73-6.55,1.98Z" fill="#00233f"/>
          </g>
        </g>
        <path d="M257.92,139.99s8.64-8.36,23.54-2.93l5.22-2.51s-21.59-6.06-28.77,5.43Z" fill="#fff"/>
      </g>
    </g>
    <g>
      <path d="M276.14,88.95v4.59c-12.27-5.11-26.21-5.11-38.45,0v-4.59c12.22-5.19,26.21-5.19,38.45,0Z" fill="#00233f"/>
      <path d="M285.39,79.11v-3.3l3.41-1.58-33.21-16.05-32.83,15.29,14.94,7.22v7.25c12.25-5.11,26.18-5.11,38.45,0v-7.39c-3.42-1.47-6.98-2.53-10.65-3.18l.19-.92c3.8.68,7.55,1.79,11.11,3.34h.03l7.4-3.44v2.75c-.9.26-1.56,1.05-1.56,2.03,0,1.19.96,2.15,2.15,2.15s2.15-.96,2.15-2.15c0-.98-.67-1.77-1.56-2.03Z" fill="#00233f"/>
    </g>
    <g>
      <path d="M470.26,116.49c0-1.62.02-3.4.07-5.36.05-1.95.17-3.97.36-6.07-1.52.1-3.26.19-5.21.29-1.95.1-3.55.19-4.78.29v-9.28c4.38,0,7.95-.21,10.71-.64,2.76-.43,4.93-.98,6.5-1.64,1.57-.66,2.69-1.29,3.36-1.86h6.57v42.13c3.05-2.86,6.28-4.9,9.71-6.14,3.43-1.24,6.85-1.86,10.28-1.86,5.9,0,11.11,1.48,15.64,4.43,4.52,2.95,8.07,7.14,10.64,12.57,2.57,5.43,3.86,11.81,3.86,19.14,0,7.81-1.52,14.71-4.57,20.71-3.05,6-7.24,10.69-12.57,14.07-5.33,3.38-11.47,5.07-18.42,5.07-2.76,0-6.12-.57-10.07-1.71-3.95-1.14-7.55-3.43-10.78-6.85l-4,6.28h-7.28v-83.54ZM487.82,178.32c0,3.81.62,6.81,1.86,9,1.24,2.19,2.83,3.74,4.78,4.64,1.95.91,3.93,1.41,5.93,1.5,4.38,0,7.93-1.29,10.64-3.86,2.71-2.57,4.71-6.02,6-10.35,1.29-4.33,1.93-9.02,1.93-14.07s-.62-9.83-1.86-14.07c-1.24-4.23-3.14-7.62-5.71-10.14-2.57-2.52-5.95-3.78-10.14-3.78-2.57.1-5.05.76-7.43,2-2.38,1.24-4.38,2.86-6,4.86v34.27Z" fill="#fff"/>
      <path d="M578.65,202.32c-5.52,0-10.02-1.05-13.5-3.14-3.48-2.09-6.02-5.45-7.64-10.07-1.62-4.62-2.43-10.69-2.43-18.21v-19.42c0-1.62.05-3.43.14-5.43.09-2,.19-4,.29-6-1.52.1-3.24.17-5.14.21-1.91.05-3.48.12-4.71.21v-9.14h2.43c5.24,0,9.3-.45,12.21-1.36,2.9-.9,4.88-1.83,5.93-2.78h6.57v43.7c0,6.85.93,11.95,2.78,15.28,1.86,3.33,4.88,5,9.07,5,2.86-.09,5.69-.95,8.5-2.57,2.81-1.62,5.07-3.52,6.78-5.71v-30.85c0-1.9.05-3.88.14-5.93.09-2.05.24-4.07.43-6.07-1.52.1-3.26.17-5.21.21-1.95.05-3.55.12-4.78.21v-9.14h3.71c4.38,0,8.02-.48,10.92-1.43,2.9-.95,4.83-1.86,5.78-2.71h6.57v51.27c0,1.33-.05,3.28-.14,5.86-.1,2.57-.24,4.9-.43,7,1.62-.19,3.33-.31,5.14-.36,1.81-.05,3.29-.12,4.43-.21v9.28h-24.85c-.19-1.33-.36-2.66-.5-4-.14-1.33-.26-2.62-.36-3.86-2.95,2.67-6.26,5.02-9.93,7.07-3.67,2.05-7.74,3.07-12.21,3.07Z" fill="#fff"/>
      <path d="M636.2,192.46c2.76,0,4.71-.59,5.85-1.79,1.14-1.19,1.86-2.88,2.14-5.07.29-2.19.43-4.66.43-7.43v-26.85c0-1.71.05-3.52.14-5.43.09-1.9.24-3.86.43-5.85-1.62.1-3.38.17-5.28.21-1.91.05-3.48.12-4.71.21v-9.14h5.28c3.81,0,7-.45,9.57-1.36,2.57-.9,4.38-1.83,5.43-2.78h6c.19,1.14.33,2.95.43,5.43.09,2.48.14,4.95.14,7.43,2.19-2.86,4.47-5.31,6.85-7.35,2.38-2.05,4.83-3.62,7.35-4.71,2.52-1.09,5.12-1.64,7.78-1.64,3.05,0,5.73.86,8.07,2.57,2.33,1.71,3.5,4.48,3.5,8.28,0,1.24-.31,2.57-.93,4-.62,1.43-1.57,2.62-2.86,3.57-1.29.95-3.02,1.43-5.21,1.43-2,0-3.88-.64-5.64-1.93-1.76-1.29-2.69-3.36-2.79-6.21-2-.09-4.07.62-6.21,2.14-2.14,1.52-4.07,3.38-5.78,5.57-1.71,2.19-3.05,4.43-4,6.71l.14,27.13c0,1.52-.05,3.36-.14,5.5-.1,2.14-.24,4.21-.43,6.21,1.52-.19,3.14-.31,4.86-.36,1.71-.05,3.14-.07,4.28-.07v9.14h-34.7v-7.57Z" fill="#fff"/>
      <path d="M733.73,202.32c-4.38,0-8.47-.57-12.28-1.71-3.81-1.14-6.86-2.52-9.14-4.14l.43,4.57h-9.28l-.71-24.56h7.71c.29,3.24,1.43,6.17,3.43,8.78,2,2.62,4.59,4.67,7.78,6.14,3.19,1.48,6.73,2.21,10.64,2.21,1.9,0,3.74-.29,5.5-.86,1.76-.57,3.24-1.5,4.43-2.78,1.19-1.29,1.78-2.93,1.78-4.93s-.69-3.81-2.07-5.14c-1.38-1.33-3.31-2.57-5.78-3.71-2.48-1.14-5.38-2.33-8.71-3.57-2.95-1.14-5.9-2.33-8.85-3.57-2.95-1.24-5.67-2.74-8.14-4.5-2.48-1.76-4.48-3.93-6-6.5-1.52-2.57-2.29-5.71-2.29-9.43,0-2.57.48-5.14,1.43-7.71.95-2.57,2.47-4.97,4.57-7.21,2.09-2.24,4.78-4.02,8.07-5.36,3.28-1.33,7.31-2,12.07-2,2.57,0,5.47.41,8.71,1.21,3.24.81,6.09,2.17,8.57,4.07l-.14-4.57h9.28v25.13h-7.71c-.48-3.33-1.52-6.31-3.14-8.93-1.62-2.62-3.76-4.69-6.43-6.21-2.67-1.52-5.86-2.29-9.57-2.29-3.05,0-5.62.74-7.71,2.21-2.09,1.48-3.14,3.64-3.14,6.5,0,2.38.81,4.33,2.43,5.85,1.62,1.52,3.81,2.81,6.57,3.86,2.76,1.05,5.76,2.19,9,3.43,4.47,1.52,8.54,3.33,12.21,5.43,3.66,2.1,6.59,4.62,8.78,7.57,2.19,2.95,3.28,6.62,3.28,11,0,4.95-1.24,9.02-3.71,12.21-2.48,3.19-5.67,5.57-9.57,7.14-3.91,1.57-8,2.36-12.28,2.36Z" fill="#fff"/>
      <path d="M811.28,200.03c-.29-1.43-.45-2.64-.5-3.64-.05-1-.12-2.16-.21-3.5-3.24,3.24-6.69,5.62-10.35,7.14-3.67,1.52-7.45,2.28-11.35,2.28-6.48,0-11.45-1.76-14.92-5.28-3.48-3.52-5.21-7.85-5.21-13,0-4.57,1.24-8.45,3.71-11.64,2.47-3.19,5.71-5.81,9.71-7.85,4-2.05,8.43-3.62,13.28-4.71,4.86-1.09,9.66-1.69,14.42-1.78v-7.85c0-2.76-.31-5.31-.93-7.64-.62-2.33-1.74-4.19-3.36-5.57-1.62-1.38-4-2.07-7.14-2.07-2.1.1-4.21.55-6.36,1.36-2.14.81-3.83,2.07-5.07,3.78.76.86,1.24,1.79,1.43,2.78.19,1,.29,1.88.29,2.64,0,1.71-.67,3.5-2,5.35-1.33,1.86-3.48,2.74-6.43,2.64-2.57-.09-4.55-1-5.93-2.71-1.38-1.71-2.07-3.76-2.07-6.14,0-3.62,1.31-6.78,3.93-9.5,2.62-2.71,6.16-4.86,10.64-6.43,4.47-1.57,9.47-2.36,14.99-2.36,8.19,0,14.47,2.14,18.85,6.43,4.38,4.28,6.52,11.14,6.43,20.56v9.07c0,2.71-.02,5.43-.07,8.14-.05,2.71-.07,5.74-.07,9.07,0,1.43-.05,3.21-.14,5.36-.1,2.14-.24,4.26-.43,6.35,1.71-.19,3.45-.31,5.21-.36,1.76-.05,3.21-.12,4.36-.21v9.28h-24.71ZM809.71,166.47c-2.86.19-5.67.64-8.43,1.36-2.76.71-5.24,1.69-7.43,2.93-2.19,1.24-3.93,2.78-5.21,4.64s-1.88,3.98-1.79,6.35c.09,2.95,1.05,5.12,2.86,6.5,1.81,1.38,3.9,2.07,6.28,2.07,2.76,0,5.26-.57,7.5-1.71,2.24-1.14,4.31-2.66,6.21-4.57v-17.57Z" fill="#fff"/>
      <path d="M843.69,200.03v-4.28c2.95,0,4.97-.74,6.07-2.21,1.09-1.48,1.74-3.52,1.93-6.14.19-2.62.29-5.64.29-9.07l.14-67.55c0-1.52.02-2.97.07-4.36.05-1.38.17-3.02.36-4.93-1.71.1-3.41.19-5.07.29-1.67.1-3.36.19-5.07.29v-6c4.19,0,7.43-.19,9.71-.57,2.29-.38,4.02-.86,5.21-1.43,1.19-.57,2.12-1.19,2.79-1.86h4.14v67.55h5.71l17.42-18.28c1.62-1.62,3.09-3.07,4.43-4.36,1.33-1.29,2.66-2.36,4-3.21l-9.71.43v-5.71h25.99v4.28c-3.24.29-6.26,1.31-9.07,3.07-2.81,1.76-5.38,3.74-7.71,5.93-2.33,2.19-4.36,4.19-6.07,6l-11.14,11.71c1.9.86,3.52,1.95,4.86,3.28,1.33,1.33,2.67,2.81,4,4.43l10.14,13c.47.57,1.31,1.67,2.5,3.28,1.19,1.62,2.62,3.38,4.28,5.28,1.66,1.91,3.43,3.52,5.28,4.85,1.86,1.33,3.59,2,5.21,2v4.28h-13c-2.67,0-5.19-1.38-7.57-4.14-2.38-2.76-4.9-5.85-7.57-9.28-2.48-3.43-4.69-6.54-6.64-9.35-1.95-2.81-3.71-5.26-5.28-7.35-1.57-2.09-2.98-3.71-4.21-4.85l-5.85.29v19.56c0,1.91-.02,3.59-.07,5.07-.05,1.48-.21,3.02-.5,4.64,1.52-.09,3.05-.17,4.57-.21,1.52-.05,3.05-.12,4.57-.21v5.85h-29.13Z" fill="#fff"/>
      <path d="M956.08,202.32c-6.67,0-12.71-1.55-18.14-4.64-5.43-3.09-9.74-7.38-12.92-12.85-3.19-5.47-4.78-11.73-4.78-18.78,0-7.52,1.57-14.28,4.71-20.28,3.14-6,7.43-10.73,12.85-14.21,5.43-3.47,11.52-5.21,18.28-5.21s12.71,1.6,18.14,4.78c5.43,3.19,9.76,7.5,13,12.92,3.24,5.43,4.86,11.62,4.86,18.56,0,7.33-1.6,14.02-4.78,20.06-3.19,6.05-7.5,10.83-12.92,14.35s-11.52,5.28-18.28,5.28ZM957.23,196.6c5.04,0,9.04-1.43,12-4.28,2.95-2.86,5.07-6.57,6.35-11.14s1.93-9.38,1.93-14.42c0-4.28-.41-8.5-1.21-12.64-.81-4.14-2.07-7.9-3.78-11.28-1.71-3.38-3.93-6.07-6.64-8.07-2.71-2-5.98-3-9.78-3-4.95,0-9,1.43-12.14,4.28-3.14,2.86-5.45,6.57-6.93,11.14-1.48,4.57-2.21,9.47-2.21,14.71,0,5.9.81,11.5,2.43,16.78,1.62,5.28,4.09,9.59,7.43,12.92,3.33,3.33,7.52,5,12.57,5Z" fill="#fff"/>
      <path d="M1002.78,195.75c2.95,0,5-.74,6.14-2.21,1.14-1.48,1.81-3.52,2-6.14.19-2.62.29-5.64.29-9.07v-67.55c0-1.52.02-2.97.07-4.36.05-1.38.17-3.02.36-4.93-1.71.1-3.4.19-5.07.29-1.67.1-3.36.19-5.07.29v-6c4.19,0,7.45-.19,9.78-.57,2.33-.38,4.09-.86,5.28-1.43,1.19-.57,2.12-1.19,2.79-1.86h4.14l.14,92.68c0,1.91-.05,3.59-.14,5.07-.1,1.48-.29,3.02-.57,4.64,1.52-.09,3.02-.17,4.5-.21,1.48-.05,2.97-.12,4.5-.21v5.85h-29.13v-4.28Z" fill="#fff"/>
      <path d="M1077.61,202.32c-6.57,0-12.5-1.55-17.78-4.64-5.28-3.09-9.45-7.47-12.5-13.14-3.05-5.66-4.57-12.35-4.57-20.06,0-6.66,1.5-12.9,4.5-18.71,3-5.81,7.21-10.5,12.64-14.07,5.43-3.57,11.71-5.35,18.85-5.35,4,0,7.73.64,11.21,1.93,3.47,1.29,6.54,3.24,9.21,5.85,2.66,2.62,4.76,5.9,6.28,9.85,1.52,3.95,2.29,8.59,2.29,13.92l-50.27.86c0,7.24.79,13.59,2.36,19.06,1.57,5.48,4.12,9.71,7.64,12.71,3.52,3,8.04,4.5,13.57,4.5,2.95,0,5.97-.52,9.07-1.57,3.09-1.05,5.97-2.47,8.64-4.28,2.67-1.81,4.81-3.81,6.43-6l3.43,2.86c-2.57,4-5.67,7.19-9.28,9.57-3.62,2.38-7.33,4.09-11.14,5.14-3.81,1.05-7.33,1.57-10.57,1.57ZM1057.9,152.76h36.42c0-3.43-.5-6.73-1.5-9.92-1-3.19-2.64-5.81-4.93-7.85-2.29-2.05-5.28-3.07-9-3.07-5.52,0-10.12,1.64-13.78,4.93-3.67,3.28-6.07,8.59-7.21,15.92Z" fill="#fff"/>
      <path d="M1112.88,238.73c-3.9,0-6.76-.81-8.57-2.43-1.81-1.62-2.71-3.48-2.71-5.57,0-1.71.55-3.26,1.64-4.64,1.1-1.38,2.59-2.07,4.5-2.07,2.38-.1,4.02.59,4.93,2.07.91,1.48,1.36,2.78,1.36,3.93v.64c0,.24-.05.45-.14.64,1.33.57,2.57.86,3.71.86,2.76,0,4.86-1,6.28-3,1.43-2,2.38-4.52,2.86-7.57.47-3.05.71-6.14.71-9.28l.29-66.55c0-1.52.02-2.97.07-4.36.05-1.38.17-3.02.36-4.93-1.71.1-3.41.19-5.07.29-1.67.1-3.36.19-5.07.29v-6c4.19,0,7.45-.19,9.78-.57,2.33-.38,4.09-.86,5.28-1.43,1.19-.57,2.12-1.19,2.79-1.86h4.14v73.26c0,8.85-1.19,16.11-3.57,21.78-2.38,5.66-5.62,9.83-9.71,12.5-4.09,2.66-8.71,4-13.85,4ZM1133.02,113.06c-2,0-3.76-.81-5.28-2.43-1.52-1.62-2.29-3.62-2.29-6s.79-4.4,2.36-6.07c1.57-1.66,3.36-2.5,5.36-2.5,2.19,0,4.02.83,5.5,2.5,1.47,1.67,2.21,3.69,2.21,6.07s-.79,4.38-2.36,6c-1.57,1.62-3.41,2.43-5.5,2.43Z" fill="#fff"/>
      <path d="M1157.73,195.75c2.95,0,5-.74,6.14-2.21,1.14-1.48,1.81-3.52,2-6.14.19-2.62.29-5.64.29-9.07v-32.56c0-1.52.05-2.97.14-4.36.09-1.38.24-3.02.43-4.93-1.71.1-3.41.19-5.07.29-1.67.1-3.36.19-5.07.29v-6c4.19,0,7.43-.19,9.71-.57,2.29-.38,4.02-.86,5.21-1.43,1.19-.57,2.12-1.19,2.78-1.86h4.14v57.69c0,1.91-.02,3.59-.07,5.07-.05,1.48-.21,3.02-.5,4.64,1.52-.09,3.02-.17,4.5-.21,1.47-.05,2.97-.12,4.5-.21v5.85h-29.13v-4.28ZM1171.44,113.06c-2,0-3.76-.81-5.28-2.43-1.52-1.62-2.29-3.62-2.29-6s.79-4.4,2.36-6.07c1.57-1.66,3.36-2.5,5.36-2.5,2.19,0,4.02.83,5.5,2.5,1.47,1.67,2.21,3.69,2.21,6.07s-.79,4.38-2.36,6c-1.57,1.62-3.41,2.43-5.5,2.43Z" fill="#fff"/>
      <path d="M1204.13,201.68c-1.58,0-2.97-.64-4.17-1.9-1.2-1.27-1.8-2.83-1.8-4.68s.62-3.43,1.85-4.74c1.24-1.3,2.64-1.96,4.22-1.96,1.71,0,3.14.65,4.27,1.96,1.13,1.3,1.7,2.88,1.7,4.74s-.62,3.42-1.85,4.68-2.64,1.9-4.22,1.9Z" fill="#fff"/>
      <path d="M1246.54,201.68c-4.6,0-8.84-1.05-12.71-3.14-3.88-2.09-6.97-5.11-9.26-9.06-2.3-3.95-3.45-8.7-3.45-14.26,0-3.57.65-7.03,1.96-10.4,1.3-3.36,3.14-6.4,5.51-9.11,2.37-2.71,5.2-4.85,8.49-6.43,3.29-1.58,6.93-2.37,10.91-2.37s7.19.58,10.04,1.75c2.85,1.17,5.06,2.71,6.64,4.63,1.58,1.92,2.37,4.01,2.37,6.28,0,1.51-.41,2.8-1.24,3.86-.82,1.06-2.02,1.6-3.6,1.6-1.72.07-2.93-.46-3.65-1.6s-1.08-2.14-1.08-3.04c0-.69.1-1.39.31-2.11s.62-1.39,1.24-2.01c-.55-1.65-1.51-2.86-2.88-3.65-1.37-.79-2.8-1.3-4.27-1.54-1.48-.24-2.69-.36-3.65-.36-4.67,0-8.6,1.87-11.79,5.61-3.19,3.74-4.79,9.18-4.79,16.32,0,4.6.74,8.68,2.21,12.25,1.48,3.57,3.55,6.37,6.23,8.39,2.68,2.02,5.76,3.04,9.26,3.04,3.23,0,6.31-.86,9.26-2.57,2.95-1.71,5.25-3.81,6.9-6.28l2.68,2.06c-1.79,2.88-3.93,5.22-6.43,7-2.51,1.79-5.08,3.09-7.72,3.91-2.64.82-5.13,1.24-7.46,1.24Z" fill="#fff"/>
      <path d="M1301.21,201.68c-4.8,0-9.16-1.12-13.07-3.35-3.91-2.23-7.02-5.32-9.32-9.26-2.3-3.95-3.45-8.46-3.45-13.54,0-5.42,1.13-10.29,3.4-14.62,2.26-4.32,5.35-7.74,9.26-10.24,3.91-2.5,8.3-3.76,13.18-3.76s9.16,1.15,13.07,3.45c3.91,2.3,7.03,5.4,9.37,9.32,2.33,3.91,3.5,8.37,3.5,13.38,0,5.29-1.15,10.11-3.45,14.46-2.3,4.36-5.4,7.81-9.32,10.35-3.91,2.54-8.3,3.81-13.18,3.81ZM1302.03,197.56c3.64,0,6.52-1.03,8.65-3.09,2.13-2.06,3.65-4.74,4.58-8.03.93-3.29,1.39-6.76,1.39-10.4,0-3.09-.29-6.12-.88-9.11-.58-2.99-1.49-5.7-2.73-8.13-1.24-2.44-2.83-4.38-4.79-5.82-1.96-1.44-4.31-2.16-7.05-2.16-3.57,0-6.49,1.03-8.75,3.09-2.27,2.06-3.93,4.74-4.99,8.03-1.06,3.29-1.6,6.83-1.6,10.6,0,4.26.58,8.29,1.75,12.1,1.17,3.81,2.95,6.92,5.35,9.32,2.4,2.4,5.42,3.6,9.06,3.6Z" fill="#fff"/>
      <path d="M1335.9,200.03v-3.09c2.13,0,3.6-.53,4.43-1.6.82-1.06,1.3-2.54,1.44-4.43.14-1.89.21-4.07.21-6.54v-23.47c0-1.1.02-2.2.05-3.29.03-1.1.15-2.23.36-3.4-1.24.07-2.45.14-3.65.21-1.2.07-2.42.14-3.65.21v-4.32c3.02,0,5.3-.14,6.85-.41,1.54-.27,2.69-.62,3.45-1.03.75-.41,1.37-.86,1.85-1.34h2.99c.14.69.22,1.48.26,2.37.03.89.08,1.92.15,3.09,2.06-1.78,4.43-3.24,7.1-4.38s5.35-1.7,8.03-1.7c3.43,0,6.31.62,8.65,1.85,2.33,1.24,4.15,2.92,5.46,5.04,2.33-1.92,5.03-3.55,8.08-4.89,3.05-1.34,6.06-2.01,9.01-2.01,5.97,0,10.36,1.8,13.18,5.4,2.81,3.6,4.15,9.49,4.01,17.65l-.1,19.15c0,1.37-.02,2.59-.05,3.65-.04,1.06-.15,2.18-.36,3.35,1.1-.07,2.18-.12,3.24-.15,1.06-.03,2.14-.08,3.24-.15v4.22h-21v-3.09c2.13,0,3.6-.53,4.43-1.6.82-1.06,1.3-2.54,1.44-4.43.14-1.89.21-4.07.21-6.54v-14.41c0-5.9-.94-10.33-2.83-13.28-1.89-2.95-4.86-4.39-8.9-4.32-2.13,0-4.26.48-6.38,1.44-2.13.96-3.98,2.16-5.56,3.6.34,1.1.6,2.28.77,3.55.17,1.27.26,2.59.26,3.96-.07,3.98-.1,8-.1,12.04s-.04,8.1-.1,12.15c0,1.37-.02,2.59-.05,3.65-.04,1.06-.15,2.18-.36,3.35,1.1-.07,2.18-.12,3.24-.15,1.06-.03,2.14-.08,3.24-.15v4.22h-21v-3.09c2.13,0,3.58-.53,4.38-1.6.79-1.06,1.27-2.54,1.44-4.43.17-1.89.26-4.07.26-6.54l.1-14.41c.07-5.9-.79-10.36-2.57-13.38-1.79-3.02-4.7-4.49-8.75-4.43-2.13,0-4.22.46-6.28,1.39-2.06.93-3.81,2.11-5.25,3.55,0,.82.02,1.7.05,2.62.03.93.05,1.9.05,2.93v26.46c0,1.37-.02,2.59-.05,3.65-.04,1.06-.15,2.18-.36,3.35,1.1-.07,2.18-.12,3.24-.15,1.06-.03,2.14-.08,3.24-.15v4.22h-21Z" fill="#fff"/>
    </g>
    <path d="M141.05,123.82v-3.99c1.35-.05,2.4-.29,3.12-.73.73-.44,1.23-1.17,1.52-2.21.29-1.04.44-2.5.44-4.39v-28.68c0-1.31.04-2.52.11-3.63.07-1.11.13-1.98.18-2.61-.82.05-1.77.09-2.83.11-1.07.03-1.91.06-2.54.11v-4.79c3.1-.05,6.22-.07,9.37-.07s6.32-.02,9.51-.07c5.71-.05,10.24.99,13.58,3.12,3.34,2.13,4.91,5.4,4.72,9.8-.05,1.45-.48,2.88-1.31,4.28-.82,1.4-2.03,2.66-3.63,3.78-1.6,1.11-3.61,1.96-6.03,2.54v.07c4.98.53,8.69,2.02,11.11,4.47,2.42,2.44,3.63,5.29,3.63,8.53s-.75,5.71-2.25,7.84c-1.5,2.13-3.57,3.75-6.21,4.86-2.64,1.11-5.63,1.67-8.97,1.67h-23.52ZM155,119.39c.82.05,1.68.07,2.58.07s1.75-.01,2.58-.04c.82-.02,1.52-.04,2.11-.04,3.2-.1,5.63-1.03,7.3-2.8,1.67-1.77,2.5-4.15,2.5-7.15,0-2.47-.5-4.4-1.49-5.81-.99-1.4-2.28-2.4-3.85-2.98-1.57-.58-3.26-.87-5.05-.87h-3.41c-.97,0-1.96.05-2.98.15v13.36c0,1.31-.02,2.49-.07,3.56-.05,1.07-.12,1.91-.22,2.54ZM155.29,95.5l4.28-.07c2.27-.05,4.07-.54,5.37-1.49s2.25-2.18,2.83-3.7.87-3.18.87-4.97c-.05-2.13-.52-3.79-1.42-4.97-.9-1.19-2-2.02-3.3-2.5-1.31-.48-2.66-.7-4.07-.65-1.02,0-1.86.15-2.54.44-.68.29-1.19.9-1.52,1.82-.34.92-.51,2.3-.51,4.14v11.98Z" fill="#fff"/>
    <path d="M229.01,218.81v-3.77c1.28-.04,2.26-.26,2.94-.65.69-.39,1.16-1.07,1.44-2.05.27-.98.41-2.34.41-4.08v-27.33c0-1.14.03-2.24.1-3.29.07-1.05.13-1.87.17-2.47-.78.05-1.67.08-2.67.1-1,.02-1.8.06-2.4.1v-4.52h18.22v3.77c-1.23.05-2.2.26-2.91.65-.71.39-1.2,1.06-1.47,2.02-.27.96-.41,2.33-.41,4.11v10.68h5l6.37-10.48c.68-1.23,1.46-2.49,2.33-3.77.87-1.28,1.67-2.19,2.4-2.74-.73.05-1.48.08-2.26.1-.78.02-1.46.06-2.05.1v-4.45h16.09v3.77c-1.28.09-2.56.32-3.84.68-1.28.37-2.56,1.09-3.84,2.16-1.28,1.07-2.6,2.71-3.97,4.9l-6.64,10.62c1.05.64,1.95,1.35,2.71,2.12.75.78,1.45,1.6,2.09,2.47l7.26,10.07c1.19,1.6,2.29,2.94,3.32,4.04,1.03,1.1,2.03,1.92,3.01,2.47.98.55,1.97.85,2.98.89v3.77h-9.79c-.41-.04-1.02-.43-1.81-1.16-.8-.73-1.64-1.63-2.53-2.71-.89-1.07-1.7-2.09-2.43-3.05l-7.26-10.27c-.68-.96-1.42-1.91-2.19-2.84-.78-.94-1.51-1.65-2.19-2.16l-2.74.07v11.92c0,1.23-.02,2.37-.07,3.42-.05,1.05-.11,1.87-.21,2.47.78-.04,1.67-.09,2.67-.14,1-.04,1.8-.07,2.4-.07v4.52h-18.22Z" fill="#fff"/>
    <g>
      <path d="M173.28,336.5c-2.68,1.98-3.52,5.05-8.5,9.33-2.74,2.36-5.31,3.86-6.97,4.74,10.75,3.26,16.28,2.47,19.36.14,2.31-1.75,3.52-5.67,7.8-8.82,3.2-2.35,6.79-3.16,8.92-3.99-9.84-7.34-17.76-3.51-20.62-1.39Z" fill="#740003"/>
      <path d="M139.1,326.92c-2.68,1.98-3.52,5.05-8.5,9.33-2.74,2.36-5.31,3.86-6.97,4.74,10.75,3.26,16.28,2.47,19.36.14,2.31-1.75,3.52-5.67,7.8-8.82,3.2-2.35,6.79-3.16,8.92-3.99-9.84-7.34-17.76-3.51-20.62-1.39Z" fill="#740003"/>
      <path d="M106.37,308.82c-3.01,1.43-4.43,4.28-10.13,7.53-3.14,1.79-5.95,2.77-7.75,3.31,9.92,5.26,15.5,5.55,18.98,3.86,2.6-1.27,4.54-4.89,9.35-7.16,3.6-1.69,7.27-1.79,9.52-2.21-8.25-9.09-16.76-6.86-19.96-5.33Z" fill="#740003"/>
      <path d="M75.6,282.32c-3.25.73-5.27,3.19-11.55,5.09-3.46,1.05-6.42,1.38-8.29,1.51,8.5,7.34,13.88,8.86,17.64,7.98,2.82-.66,5.52-3.76,10.71-4.9,3.88-.85,7.48-.13,9.77-.04-6.02-10.7-14.82-10.41-18.28-9.63Z" fill="#740003"/>
      <path d="M68.95,261.02c-3.6-11.74-12.25-13.34-15.8-13.32-3.33.02-5.83,1.99-12.37,2.5-3.6.28-6.57-.02-8.42-.3,6.74,8.98,11.66,11.62,15.53,11.57,2.89-.04,6.19-2.49,11.51-2.5,3.97,0,7.34,1.47,9.55,2.05Z" fill="#740003"/>
      <path d="M42.88,223.68c3.84.71,6.83,2.73,8.87,3.69-1.38-11.99-9.46-15.09-12.89-15.71-3.23-.58-5.99.88-12.41.2-3.53-.37-6.34-1.2-8.09-1.8,4.91,9.89,9.2,13.32,12.95,13.96,2.81.48,6.43-1.3,11.57-.36Z" fill="#740003"/>
      <path d="M22.57,190.07c2.55.67,6.04-.67,10.71.63,3.49.97,6.08,3.09,7.88,4.14-.28-11.18-7.47-14.7-10.6-15.56-2.93-.8-5.6.31-11.47-.84-3.23-.64-5.75-1.63-7.31-2.33,3.71,9.53,7.38,13.06,10.79,13.95Z" fill="#740003"/>
      <path d="M17.12,151.95c2.46.95,6.08,0,10.57,1.82,3.36,1.35,5.7,3.75,7.36,5,.97-11.14-5.79-15.44-8.79-16.64-2.82-1.13-5.6-.31-11.3-2.11-3.14-.99-5.54-2.26-7.01-3.13,2.62,9.89,5.88,13.8,9.16,15.07Z" fill="#740003"/>
      <path d="M17.68,119.63c2.46.95,6.08,0,10.57,1.82,3.36,1.35,5.7,3.75,7.36,5,.97-11.14-5.79-15.44-8.79-16.64-2.82-1.13-5.6-.31-11.3-2.11-3.14-.99-5.54-2.26-7.01-3.13,2.62,9.89,5.88,13.8,9.16,15.07Z" fill="#740003"/>
      <path d="M377.77,123.64h-.96c1.58-6.2,1.02-9.79-.51-11.97-1.38-1.96-4.59-3.08-7.07-6.71-1.85-2.72-2.41-5.71-3.04-7.49-6.36,7.93-3.42,14.59-1.76,17.01,1.56,2.27,4.07,3.06,7.47,7.3,1.55,1.93,2.6,3.72,3.3,5.09.03,3.39-.04,9.32-.64,17.05-.08-.12-.14-.27-.22-.39-1.44-2.06-4.81-3.23-7.41-7.04-1.94-2.85-2.53-5.98-3.19-7.86-6.67,8.31-3.59,15.3-1.84,17.84,1.64,2.39,4.27,3.21,7.83,7.66,1.43,1.79,2.47,3.48,3.2,4.83-.77,5.53-1.8,11.52-3.17,17.85-1.51-2.19-5.01-3.58-7.62-7.69-1.98-3.11-2.5-6.48-3.15-8.51-7.41,8.67-4.35,16.24-2.57,19.02,1.67,2.61,4.46,3.58,8.12,8.45.69.92,1.25,1.79,1.77,2.63-1.69,6.02-3.7,12.23-6.08,18.52-.24-.68-.51-1.32-.86-1.85-1.47-2.25-5.04-3.61-7.69-7.78-1.98-3.11-2.5-6.48-3.15-8.51-7.41,8.67-4.35,16.24-2.57,19.02,1.67,2.61,4.46,3.58,8.12,8.45.54.72,1.01,1.41,1.44,2.09-3.09,6.88-6.67,13.78-10.79,20.59-.05-.39-.11-.78-.21-1.14-.77-2.79-3.98-5.36-5.33-10.5-1.01-3.84-.44-7.47-.43-9.76-10.45,6.45-9.8,15.22-8.89,18.66.86,3.22,3.4,5.14,5.55,11.34.47,1.36.8,2.61,1.07,3.78-3.83,5.26-8.03,10.4-12.65,15.37,0-.51-.06-.99-.14-1.45-.54-2.84-3.53-5.67-4.45-10.9-.69-3.91.18-7.48.37-9.76-10.94,5.57-11.02,14.37-10.39,17.86.59,3.28,2.96,5.4,4.6,11.76.18.69.31,1.33.43,1.98-5.96,5.44-12.5,10.59-19.69,15.35.32-.94.51-1.83.53-2.67.08-2.89-2.23-6.29-2-11.61.17-3.97,1.78-7.27,2.46-9.45-11.88,3.09-13.85,11.66-13.99,15.21-.13,3.33,1.73,5.91,1.96,12.47.03.98.02,1.91-.01,2.78-6.21,3.46-12.85,6.64-19.92,9.51.66-1.2,1.04-2.35,1.16-3.43.33-2.88-1.67-6.46-.99-11.74.51-3.94,2.41-7.09,3.27-9.2-12.11,2.05-14.81,10.42-15.25,13.94-.42,3.31,1.22,6.04.88,12.59-.04.69-.1,1.33-.17,1.97-7.14,2.4-14.71,4.48-22.7,6.22,1.65-1.61,2.59-3.2,3-4.73.75-2.8-.71-6.64.75-11.75,1.08-3.82,3.42-6.66,4.59-8.62-12.27.25-16.18,8.13-17.13,11.55-.9,3.21.32,6.15-.98,12.58-.22,1.09-.48,2.07-.75,3-3.92.67-7.91,1.29-12.04,1.8-4.12-.51-8.11-1.12-12.04-1.8-.27-.93-.53-1.92-.75-3-1.3-6.44-.08-9.37-.98-12.58-.96-3.42-4.86-11.3-17.13-11.55,1.17,1.97,3.5,4.8,4.59,8.62,1.45,5.11,0,8.96.75,11.75.41,1.54,1.36,3.12,3,4.73-7.99-1.74-15.56-3.82-22.7-6.22-.07-.64-.14-1.27-.17-1.97-.34-6.56,1.29-9.28.88-12.59-.44-3.52-3.14-11.89-15.25-13.94.87,2.12,2.76,5.26,3.27,9.2.68,5.27-1.32,8.86-.99,11.74.13,1.08.51,2.23,1.16,3.43-7.07-2.87-13.71-6.05-19.92-9.51-.04-.88-.05-1.8-.01-2.78.23-6.56,2.09-9.14,1.96-12.47-.14-3.55-2.1-12.12-13.99-15.21.68,2.18,2.29,5.48,2.46,9.45.23,5.31-2.08,8.71-2,11.61.02.84.21,1.73.53,2.67-7.18-4.76-13.72-9.92-19.69-15.35.13-.64.26-1.29.43-1.98,1.63-6.36,4.01-8.47,4.6-11.76.63-3.5.55-12.29-10.39-17.86.19,2.28,1.06,5.85.37,9.76-.92,5.24-3.91,8.06-4.45,10.9-.09.46-.14.95-.14,1.45-4.62-4.97-8.82-10.11-12.65-15.37.27-1.17.6-2.42,1.07-3.78,2.15-6.2,4.69-8.12,5.55-11.34.91-3.43,1.56-12.2-8.89-18.66,0,2.29.58,5.92-.43,9.76-1.35,5.14-4.56,7.71-5.33,10.5-.1.36-.16.75-.21,1.14-4.12-6.81-7.7-13.71-10.79-20.59.43-.67.91-1.37,1.44-2.09,3.66-4.87,6.45-5.85,8.12-8.45,1.78-2.78,4.84-10.35-2.57-19.02-.64,2.02-1.17,5.4-3.15,8.51-2.65,4.17-6.22,5.53-7.69,7.78-.35.53-.63,1.17-.86,1.85-2.38-6.29-4.39-12.5-6.08-18.52.52-.84,1.08-1.71,1.77-2.63,3.66-4.87,6.45-5.85,8.12-8.45,1.78-2.78,4.84-10.35-2.57-19.02-.64,2.02-1.16,5.4-3.15,8.51-2.61,4.11-6.11,5.49-7.62,7.69-1.36-6.32-2.39-12.31-3.17-17.85.73-1.36,1.77-3.05,3.2-4.83,3.56-4.45,6.2-5.27,7.83-7.66,1.75-2.54,4.82-9.53-1.84-17.84-.66,1.87-1.25,5.01-3.19,7.86-2.6,3.81-5.97,4.98-7.41,7.04-.08.12-.15.26-.22.39-.6-7.73-.67-13.66-.64-17.05.7-1.36,1.75-3.15,3.3-5.09,3.4-4.24,5.91-5.03,7.47-7.3,1.67-2.42,4.6-9.08-1.76-17.01-.63,1.79-1.19,4.77-3.04,7.49-2.48,3.64-5.69,4.75-7.07,6.71-1.53,2.18-2.09,5.77-.51,11.97h-.96c-1.11,207.28,170.51,212.11,170.51,212.11,0,0,171.62-4.83,170.51-212.11Z" fill="#740003"/>
      <path d="M241.26,336.5c-2.85-2.11-10.77-5.94-20.62,1.39,2.13.84,5.71,1.64,8.92,3.99,4.28,3.15,5.49,7.08,7.8,8.82,3.08,2.33,8.62,3.12,19.36-.14-1.66-.87-4.23-2.38-6.97-4.74-4.97-4.28-5.82-7.35-8.5-9.33Z" fill="#740003"/>
      <path d="M275.43,326.92c-2.85-2.11-10.77-5.94-20.62,1.39,2.13.84,5.71,1.64,8.92,3.99,4.28,3.15,5.49,7.08,7.8,8.82,3.08,2.33,8.62,3.12,19.36-.14-1.66-.87-4.23-2.38-6.97-4.74-4.97-4.28-5.82-7.35-8.5-9.33Z" fill="#740003"/>
      <path d="M308.16,308.82c-3.21-1.53-11.71-3.76-19.96,5.33,2.25.41,5.92.51,9.52,2.21,4.81,2.27,6.75,5.89,9.35,7.16,3.47,1.7,9.05,1.4,18.98-3.86-1.79-.54-4.61-1.52-7.75-3.31-5.7-3.25-7.12-6.09-10.13-7.53Z" fill="#740003"/>
      <path d="M338.93,282.32c-3.47-.78-12.26-1.07-18.28,9.63,2.29-.1,5.89-.82,9.77.04,5.19,1.14,7.89,4.24,10.71,4.9,3.76.88,9.14-.64,17.64-7.98-1.87-.12-4.83-.46-8.29-1.51-6.28-1.9-8.3-4.36-11.55-5.09Z" fill="#740003"/>
      <path d="M373.76,250.2c-6.54-.51-9.04-2.48-12.37-2.5-3.55-.02-12.2,1.58-15.8,13.32,2.21-.58,5.58-2.06,9.55-2.05,5.32,0,8.61,2.46,11.51,2.5,3.87.06,8.79-2.58,15.53-11.57-1.85.28-4.82.58-8.42.3Z" fill="#740003"/>
      <path d="M375.68,211.67c-3.44.62-11.52,3.71-12.89,15.71,2.03-.96,5.02-2.99,8.87-3.69,5.14-.95,8.77.83,11.57.36,3.75-.64,8.04-4.07,12.95-13.96-1.74.6-4.55,1.43-8.09,1.8-6.42.68-9.18-.78-12.41-.2Z" fill="#740003"/>
      <path d="M383.97,179.29c-3.12.86-10.32,4.38-10.6,15.56,1.8-1.05,4.39-3.17,7.88-4.14,4.66-1.3,8.16.04,10.71-.63,3.4-.9,7.08-4.42,10.79-13.95-1.56.7-4.08,1.69-7.31,2.33-5.87,1.15-8.54.04-11.47.84Z" fill="#740003"/>
      <path d="M388.27,142.12c-3.01,1.2-9.76,5.5-8.79,16.64,1.67-1.25,4.01-3.64,7.36-5,4.49-1.81,8.11-.87,10.57-1.82,3.28-1.27,6.54-5.18,9.16-15.07-1.47.87-3.87,2.14-7.01,3.13-5.7,1.8-8.48.99-11.3,2.11Z" fill="#740003"/>
      <path d="M386.28,121.45c4.49-1.81,8.11-.87,10.57-1.82,3.28-1.27,6.54-5.18,9.16-15.07-1.47.87-3.87,2.14-7.01,3.13-5.7,1.8-8.48.99-11.3,2.11-3.01,1.2-9.76,5.5-8.79,16.64,1.67-1.25,4.01-3.64,7.36-5Z" fill="#740003"/>
    </g>
  </g>
</svg>