<svg width="961" height="147" viewBox="0 0 961 147" fill="none" xmlns="http://www.w3.org/2000/svg">
<path d="M10.2602 24.4897C10.2602 22.8697 10.2802 21.0897 10.3302 19.1297C10.3802 17.1797 10.5002 15.1597 10.6902 13.0597C9.17019 13.1597 7.43019 13.2497 5.48019 13.3497C3.53019 13.4497 1.9302 13.5397 0.700195 13.6397V4.35973C5.0802 4.35973 8.65019 4.14973 11.4102 3.71973C14.1702 3.28973 16.3402 2.73973 17.9102 2.07973C19.4802 1.41973 20.6002 0.789727 21.2702 0.219727H27.8402V42.3497C30.8902 39.4897 34.1202 37.4497 37.5502 36.2097C40.9802 34.9697 44.4002 34.3497 47.8302 34.3497C53.7302 34.3497 58.9402 35.8297 63.4702 38.7797C67.9902 41.7297 71.5402 45.9197 74.1102 51.3497C76.6802 56.7797 77.9702 63.1597 77.9702 70.4897C77.9702 78.2997 76.4502 85.1997 73.4002 91.1997C70.3502 97.1997 66.1602 101.89 60.8302 105.27C55.5002 108.65 49.3602 110.34 42.4102 110.34C39.6502 110.34 36.2902 109.77 32.3402 108.63C28.3902 107.49 24.7902 105.2 21.5602 101.78L17.5602 108.06H10.2802V24.5197L10.2602 24.4897ZM27.8202 86.3197C27.8202 90.1297 28.4402 93.1297 29.6802 95.3197C30.9202 97.5097 32.5102 99.0597 34.4602 99.9597C36.4102 100.87 38.3902 101.37 40.3902 101.46C44.7702 101.46 48.3202 100.17 51.0302 97.5997C53.7402 95.0297 55.7402 91.5797 57.0302 87.2497C58.3202 82.9197 58.9602 78.2297 58.9602 73.1797C58.9602 68.1297 58.3402 63.3497 57.1002 59.1097C55.8602 54.8797 53.9602 51.4897 51.3902 48.9697C48.8202 46.4497 45.4402 45.1897 41.2502 45.1897C38.6802 45.2897 36.2002 45.9497 33.8202 47.1897C31.4402 48.4297 29.4402 50.0497 27.8202 52.0497V86.3197Z" fill="white"/>
<path d="M118.65 110.32C113.13 110.32 108.63 109.27 105.15 107.18C101.67 105.09 99.1302 101.73 97.5102 97.1097C95.8902 92.4897 95.0802 86.4197 95.0802 78.8997V59.4797C95.0802 57.8597 95.1302 56.0497 95.2202 54.0497C95.3102 52.0497 95.4102 50.0497 95.5102 48.0497C93.9902 48.1497 92.2702 48.2197 90.3702 48.2597C88.4602 48.3097 86.8902 48.3797 85.6602 48.4697V39.3297H88.0902C93.3302 39.3297 97.3902 38.8797 100.3 37.9697C103.2 37.0697 105.18 36.1397 106.23 35.1897H112.8V78.8897C112.8 85.7397 113.73 90.8397 115.58 94.1697C117.44 97.4997 120.46 99.1697 124.65 99.1697C127.51 99.0797 130.34 98.2197 133.15 96.5997C135.96 94.9797 138.22 93.0797 139.93 90.8897V60.0397C139.93 58.1397 139.98 56.1597 140.07 54.1097C140.16 52.0597 140.31 50.0397 140.5 48.0397C138.98 48.1397 137.24 48.2097 135.29 48.2497C133.34 48.2997 131.74 48.3697 130.51 48.4597V39.3197H134.22C138.6 39.3197 142.24 38.8397 145.14 37.8897C148.04 36.9397 149.97 36.0297 150.92 35.1797H157.49V86.4497C157.49 87.7797 157.44 89.7297 157.35 92.3097C157.25 94.8797 157.11 97.2097 156.92 99.3097C158.54 99.1197 160.25 98.9997 162.06 98.9497C163.87 98.8997 165.35 98.8297 166.49 98.7397V108.02H141.64C141.45 106.69 141.28 105.36 141.14 104.02C141 102.69 140.88 101.4 140.78 100.16C137.83 102.83 134.52 105.18 130.85 107.23C127.18 109.28 123.11 110.3 118.64 110.3L118.65 110.32Z" fill="white"/>
<path d="M176.2 100.46C178.96 100.46 180.91 99.8698 182.05 98.6698C183.19 97.4798 183.91 95.7899 184.19 93.5999C184.48 91.4099 184.62 88.9398 184.62 86.1698V59.3199C184.62 57.6099 184.67 55.7998 184.76 53.8898C184.85 51.9898 185 50.0298 185.19 48.0398C183.57 48.1398 181.81 48.2098 179.91 48.2498C178 48.2998 176.43 48.3699 175.2 48.4599V39.3199H180.48C184.29 39.3199 187.48 38.8699 190.05 37.9599C192.62 37.0599 194.43 36.1298 195.48 35.1798H201.48C201.67 36.3198 201.81 38.1298 201.91 40.6098C202 43.0898 202.05 45.5598 202.05 48.0398C204.24 45.1798 206.52 42.7298 208.9 40.6898C211.28 38.6398 213.73 37.0699 216.25 35.9799C218.77 34.8899 221.37 34.3398 224.03 34.3398C227.08 34.3398 229.76 35.1999 232.1 36.9099C234.43 38.6199 235.6 41.3898 235.6 45.1898C235.6 46.4298 235.29 47.7598 234.67 49.1898C234.05 50.6198 233.1 51.8098 231.81 52.7598C230.52 53.7098 228.79 54.1898 226.6 54.1898C224.6 54.1898 222.72 53.5498 220.96 52.2598C219.2 50.9698 218.27 48.8999 218.17 46.0499C216.17 45.9599 214.1 46.6698 211.96 48.1898C209.82 49.7098 207.89 51.5698 206.18 53.7598C204.47 55.9498 203.13 58.1898 202.18 60.4698L202.32 87.5999C202.32 89.1199 202.27 90.9599 202.18 93.0999C202.08 95.2399 201.94 97.3098 201.75 99.3098C203.27 99.1198 204.89 98.9998 206.61 98.9498C208.32 98.8998 209.75 98.8799 210.89 98.8799V108.02H176.19V100.45L176.2 100.46Z" fill="white"/>
<path d="M273.73 110.32C269.35 110.32 265.26 109.75 261.45 108.61C257.64 107.47 254.59 106.09 252.31 104.47L252.74 109.04H243.46L242.75 84.4798H250.46C250.75 87.7198 251.89 90.6498 253.89 93.2598C255.89 95.8798 258.48 97.9298 261.67 99.3998C264.86 100.88 268.4 101.61 272.31 101.61C274.21 101.61 276.05 101.32 277.81 100.75C279.57 100.18 281.05 99.2498 282.24 97.9698C283.43 96.6798 284.02 95.0398 284.02 93.0398C284.02 91.0398 283.33 89.2298 281.95 87.8998C280.57 86.5698 278.64 85.3298 276.17 84.1898C273.69 83.0498 270.79 81.8598 267.46 80.6198C264.51 79.4798 261.56 78.2899 258.61 77.0499C255.66 75.8099 252.94 74.3099 250.47 72.5499C247.99 70.7899 245.99 68.6199 244.47 66.0499C242.95 63.4799 242.18 60.3398 242.18 56.6198C242.18 54.0498 242.66 51.4799 243.61 48.9099C244.56 46.3399 246.08 43.9398 248.18 41.6998C250.27 39.4598 252.96 37.6798 256.25 36.3398C259.53 35.0098 263.56 34.3398 268.32 34.3398C270.89 34.3398 273.79 34.7499 277.03 35.5499C280.27 36.3599 283.12 37.7198 285.6 39.6198L285.46 35.0499H294.74V60.1798H287.03C286.55 56.8498 285.51 53.8698 283.89 51.2498C282.27 48.6298 280.13 46.5598 277.46 45.0398C274.79 43.5198 271.6 42.7498 267.89 42.7498C264.84 42.7498 262.27 43.4899 260.18 44.9599C258.09 46.4399 257.04 48.5999 257.04 51.4599C257.04 53.8399 257.85 55.7898 259.47 57.3098C261.09 58.8298 263.28 60.1198 266.04 61.1698C268.8 62.2198 271.8 63.3599 275.04 64.5999C279.51 66.1199 283.58 67.9298 287.25 70.0298C290.91 72.1298 293.84 74.6499 296.03 77.5999C298.22 80.5499 299.31 84.2199 299.31 88.5999C299.31 93.5499 298.07 97.6198 295.6 100.81C293.12 104 289.93 106.38 286.03 107.95C282.12 109.52 278.03 110.31 273.75 110.31L273.73 110.32Z" fill="white"/>
<path d="M351.28 108.03C350.99 106.6 350.83 105.39 350.78 104.39C350.73 103.39 350.66 102.23 350.57 100.89C347.33 104.13 343.88 106.51 340.22 108.03C336.55 109.55 332.77 110.31 328.87 110.31C322.39 110.31 317.42 108.55 313.95 105.03C310.47 101.51 308.74 97.1801 308.74 92.0301C308.74 87.4601 309.98 83.5801 312.45 80.3901C314.92 77.2001 318.16 74.5801 322.16 72.5401C326.16 70.4901 330.59 68.9201 335.44 67.8301C340.3 66.7401 345.1 66.1401 349.86 66.0501V58.2001C349.86 55.4401 349.55 52.8901 348.93 50.5601C348.31 48.2301 347.19 46.3701 345.57 44.9901C343.95 43.6101 341.57 42.9201 338.43 42.9201C336.33 43.0201 334.22 43.4701 332.07 44.2801C329.93 45.0901 328.24 46.3501 327 48.0601C327.76 48.9201 328.24 49.8501 328.43 50.8401C328.62 51.8401 328.72 52.7201 328.72 53.4801C328.72 55.1901 328.05 56.9801 326.72 58.8301C325.39 60.6901 323.24 61.5701 320.29 61.4701C317.72 61.3801 315.74 60.4701 314.36 58.7601C312.98 57.0501 312.29 55.0001 312.29 52.6201C312.29 49.0001 313.6 45.8401 316.22 43.1201C318.84 40.4101 322.38 38.2601 326.86 36.6901C331.33 35.1201 336.33 34.3301 341.85 34.3301C350.04 34.3301 356.32 36.4701 360.7 40.7601C365.08 45.0401 367.22 51.9001 367.13 61.3201V70.3901C367.13 73.1001 367.11 75.8201 367.06 78.5301C367.01 81.2401 366.99 84.2701 366.99 87.6001C366.99 89.0301 366.94 90.8101 366.85 92.9601C366.75 95.1001 366.61 97.2201 366.42 99.3101C368.13 99.1201 369.87 99.0001 371.63 98.9501C373.39 98.9001 374.84 98.8301 375.99 98.7401V108.02H351.28V108.03ZM349.71 74.4701C346.85 74.6601 344.04 75.1101 341.28 75.8301C338.52 76.5401 336.04 77.5201 333.85 78.7601C331.66 80.0001 329.92 81.5401 328.64 83.4001C327.36 85.2601 326.76 87.3801 326.85 89.7501C326.94 92.7001 327.9 94.8701 329.71 96.2501C331.52 97.6301 333.61 98.3201 335.99 98.3201C338.75 98.3201 341.25 97.7501 343.49 96.6101C345.73 95.4701 347.8 93.9501 349.7 92.0401V74.4701H349.71Z" fill="white"/>
<path d="M383.69 108.03V103.75C386.64 103.75 388.66 103.01 389.76 101.54C390.85 100.06 391.5 98.02 391.69 95.4C391.88 92.78 391.98 89.76 391.98 86.33L392.12 18.78C392.12 17.26 392.14 15.81 392.19 14.42C392.24 13.04 392.36 11.4 392.55 9.48996C390.84 9.58996 389.14 9.67996 387.48 9.77996C385.81 9.87996 384.12 9.96996 382.41 10.07V4.06996C386.6 4.06996 389.84 3.87996 392.12 3.49996C394.41 3.11996 396.14 2.63996 397.33 2.06996C398.52 1.49996 399.45 0.879961 400.12 0.209961H404.26V67.76H409.97L427.39 49.48C429.01 47.86 430.48 46.41 431.82 45.12C433.15 43.83 434.48 42.76 435.82 41.91L426.11 42.34V36.63H452.1V40.91C448.86 41.2 445.84 42.22 443.03 43.98C440.22 45.74 437.65 47.72 435.32 49.91C432.99 52.1 430.96 54.1 429.25 55.91L418.11 67.62C420.01 68.48 421.63 69.57 422.97 70.9C424.3 72.23 425.64 73.71 426.97 75.33L437.11 88.33C437.58 88.9 438.42 90 439.61 91.61C440.8 93.23 442.23 94.99 443.89 96.89C445.55 98.8 447.32 100.41 449.17 101.74C451.03 103.07 452.76 103.74 454.38 103.74V108.02H441.38C438.71 108.02 436.19 106.64 433.81 103.88C431.43 101.12 428.91 98.03 426.24 94.6C423.76 91.17 421.55 88.06 419.6 85.25C417.65 82.44 415.89 79.99 414.32 77.9C412.75 75.81 411.34 74.19 410.11 73.05L404.26 73.34V92.9C404.26 94.81 404.24 96.49 404.19 97.97C404.14 99.45 403.98 100.99 403.69 102.61C405.21 102.52 406.74 102.44 408.26 102.4C409.78 102.35 411.31 102.28 412.83 102.19V108.04H383.7L383.69 108.03Z" fill="white"/>
<path d="M496.08 110.32C489.41 110.32 483.37 108.77 477.94 105.68C472.51 102.59 468.2 98.2996 465.02 92.8296C461.83 87.3596 460.24 81.0996 460.24 74.0496C460.24 66.5296 461.81 59.7696 464.95 53.7696C468.09 47.7696 472.38 43.0396 477.8 39.5596C483.23 36.0896 489.32 34.3496 496.08 34.3496C502.84 34.3496 508.79 35.9496 514.22 39.1296C519.65 42.3196 523.98 46.6296 527.22 52.0496C530.46 57.4796 532.08 63.6696 532.08 70.6096C532.08 77.9396 530.48 84.6296 527.3 90.6696C524.11 96.7196 519.8 101.5 514.38 105.02C508.96 108.54 502.86 110.3 496.1 110.3L496.08 110.32ZM497.23 104.6C502.27 104.6 506.27 103.17 509.23 100.32C512.18 97.4596 514.3 93.7496 515.58 89.1796C516.86 84.6096 517.51 79.7996 517.51 74.7596C517.51 70.4796 517.1 66.2596 516.3 62.1196C515.49 57.9796 514.23 54.2196 512.52 50.8396C510.81 47.4596 508.59 44.7696 505.88 42.7696C503.17 40.7696 499.9 39.7696 496.1 39.7696C491.15 39.7696 487.1 41.1996 483.96 44.0496C480.82 46.9096 478.51 50.6196 477.03 55.1896C475.55 59.7596 474.82 64.6596 474.82 69.8996C474.82 75.7996 475.63 81.3996 477.25 86.6796C478.87 91.9596 481.34 96.2696 484.68 99.5996C488.01 102.93 492.2 104.6 497.25 104.6H497.23Z" fill="white"/>
<path d="M542.78 103.75C545.73 103.75 547.78 103.01 548.92 101.54C550.06 100.06 550.73 98.02 550.92 95.4C551.11 92.78 551.21 89.76 551.21 86.33V18.78C551.21 17.26 551.23 15.81 551.28 14.42C551.33 13.04 551.45 11.4 551.64 9.48996C549.93 9.58996 548.24 9.67996 546.57 9.77996C544.9 9.87996 543.21 9.96996 541.5 10.07V4.06996C545.69 4.06996 548.95 3.87996 551.28 3.49996C553.61 3.11996 555.37 2.63996 556.56 2.06996C557.75 1.49996 558.68 0.879961 559.35 0.209961H563.49L563.63 92.89C563.63 94.8 563.58 96.48 563.49 97.96C563.39 99.44 563.2 100.98 562.92 102.6C564.44 102.51 565.94 102.43 567.42 102.39C568.9 102.34 570.39 102.27 571.92 102.18V108.03H542.79V103.75H542.78Z" fill="white"/>
<path d="M617.61 110.32C611.04 110.32 605.11 108.77 599.83 105.68C594.55 102.59 590.38 98.2096 587.33 92.5396C584.28 86.8796 582.76 80.1896 582.76 72.4796C582.76 65.8196 584.26 59.5796 587.26 53.7696C590.26 47.9596 594.47 43.2696 599.9 39.6996C605.33 36.1296 611.61 34.3496 618.75 34.3496C622.75 34.3496 626.48 34.9896 629.96 36.2796C633.43 37.5696 636.5 39.5196 639.17 42.1296C641.83 44.7496 643.93 48.0296 645.45 51.9796C646.97 55.9296 647.74 60.5696 647.74 65.8996L597.47 66.7596C597.47 73.9996 598.26 80.3496 599.83 85.8196C601.4 91.2996 603.95 95.5296 607.47 98.5296C610.99 101.53 615.51 103.03 621.04 103.03C623.99 103.03 627.01 102.51 630.11 101.46C633.2 100.41 636.08 98.9896 638.75 97.1796C641.42 95.3696 643.56 93.3696 645.18 91.1796L648.61 94.0396C646.04 98.0396 642.94 101.23 639.33 103.61C635.71 105.99 632 107.7 628.19 108.75C624.38 109.8 620.86 110.32 617.62 110.32H617.61ZM597.9 60.7596H634.32C634.32 57.3296 633.82 54.0296 632.82 50.8396C631.82 47.6496 630.18 45.0296 627.89 42.9896C625.6 40.9396 622.61 39.9196 618.89 39.9196C613.37 39.9196 608.77 41.5596 605.11 44.8496C601.44 48.1296 599.04 53.4396 597.9 60.7696V60.7596Z" fill="white"/>
<path d="M652.881 146.73C648.981 146.73 646.121 145.92 644.311 144.3C642.501 142.68 641.601 140.82 641.601 138.73C641.601 137.02 642.151 135.47 643.241 134.09C644.341 132.71 645.831 132.02 647.741 132.02C650.121 131.92 651.761 132.61 652.671 134.09C653.581 135.57 654.031 136.87 654.031 138.02V138.66C654.031 138.9 653.981 139.11 653.891 139.3C655.221 139.87 656.461 140.16 657.601 140.16C660.361 140.16 662.461 139.16 663.881 137.16C665.311 135.16 666.261 132.64 666.741 129.59C667.211 126.54 667.451 123.45 667.451 120.31L667.741 53.7596C667.741 52.2396 667.761 50.7896 667.811 49.3996C667.861 48.0196 667.981 46.3796 668.171 44.4696C666.461 44.5696 664.761 44.6596 663.101 44.7596C661.431 44.8596 659.741 44.9496 658.031 45.0496V39.0496C662.221 39.0496 665.481 38.8596 667.811 38.4796C670.141 38.0996 671.901 37.6196 673.091 37.0496C674.281 36.4796 675.211 35.8596 675.881 35.1896H680.021V108.45C680.021 117.3 678.831 124.56 676.451 130.23C674.071 135.89 670.831 140.06 666.741 142.73C662.651 145.39 658.031 146.73 652.891 146.73H652.881ZM673.021 21.0596C671.021 21.0596 669.261 20.2496 667.741 18.6296C666.221 17.0096 665.451 15.0096 665.451 12.6296C665.451 10.2496 666.241 8.22957 667.811 6.55957C669.381 4.89957 671.171 4.05957 673.171 4.05957C675.361 4.05957 677.191 4.88957 678.671 6.55957C680.141 8.22957 680.881 10.2496 680.881 12.6296C680.881 15.0096 680.091 17.0096 678.521 18.6296C676.951 20.2496 675.111 21.0596 673.021 21.0596Z" fill="white"/>
<path d="M697.73 103.75C700.68 103.75 702.73 103.01 703.87 101.54C705.01 100.06 705.68 98.0196 705.87 95.3996C706.06 92.7796 706.16 89.7596 706.16 86.3296V53.7696C706.16 52.2496 706.21 50.7996 706.3 49.4096C706.39 48.0296 706.54 46.3896 706.73 44.4796C705.02 44.5796 703.32 44.6696 701.66 44.7696C699.99 44.8696 698.3 44.9596 696.59 45.0596V39.0596C700.78 39.0596 704.02 38.8696 706.3 38.4896C708.59 38.1096 710.32 37.6296 711.51 37.0596C712.7 36.4896 713.63 35.8696 714.29 35.1996H718.43V92.8896C718.43 94.7996 718.41 96.4796 718.36 97.9596C718.31 99.4396 718.15 100.98 717.86 102.6C719.38 102.51 720.88 102.43 722.36 102.39C723.83 102.34 725.33 102.27 726.86 102.18V108.03H697.73V103.75ZM711.44 21.0596C709.44 21.0596 707.68 20.2496 706.16 18.6296C704.64 17.0096 703.87 15.0096 703.87 12.6296C703.87 10.2496 704.66 8.22957 706.23 6.55957C707.8 4.89957 709.59 4.05957 711.59 4.05957C713.78 4.05957 715.61 4.88957 717.09 6.55957C718.56 8.22957 719.3 10.2496 719.3 12.6296C719.3 15.0096 718.51 17.0096 716.94 18.6296C715.37 20.2496 713.53 21.0596 711.44 21.0596Z" fill="white"/>
<path d="M744.13 109.68C742.55 109.68 741.16 109.04 739.96 107.78C738.76 106.51 738.16 104.95 738.16 103.1C738.16 101.25 738.78 99.6704 740.01 98.3604C741.25 97.0604 742.65 96.4004 744.23 96.4004C745.94 96.4004 747.37 97.0504 748.5 98.3604C749.63 99.6604 750.2 101.24 750.2 103.1C750.2 104.96 749.58 106.52 748.35 107.78C747.12 109.04 745.71 109.68 744.13 109.68Z" fill="white"/>
<path d="M786.54 109.68C781.94 109.68 777.7 108.63 773.83 106.54C769.95 104.45 766.86 101.43 764.57 97.4801C762.27 93.5301 761.12 88.7802 761.12 83.2202C761.12 79.6502 761.77 76.1902 763.08 72.8202C764.38 69.4602 766.22 66.4202 768.59 63.7102C770.96 61.0002 773.79 58.8602 777.08 57.2802C780.37 55.7002 784.01 54.9102 787.99 54.9102C791.97 54.9102 795.18 55.4902 798.03 56.6602C800.88 57.8302 803.09 59.3701 804.67 61.2901C806.25 63.2101 807.04 65.3002 807.04 67.5702C807.04 69.0802 806.63 70.3701 805.8 71.4301C804.98 72.4901 803.78 73.0302 802.2 73.0302C800.48 73.1002 799.27 72.5701 798.55 71.4301C797.83 70.2901 797.47 69.2902 797.47 68.3902C797.47 67.7002 797.57 67.0002 797.78 66.2802C797.99 65.5602 798.4 64.8902 799.02 64.2702C798.47 62.6202 797.51 61.4101 796.14 60.6201C794.77 59.8301 793.34 59.3202 791.87 59.0802C790.39 58.8402 789.18 58.7202 788.22 58.7202C783.55 58.7202 779.62 60.5902 776.43 64.3302C773.24 68.0702 771.64 73.5101 771.64 80.6501C771.64 85.2501 772.38 89.3301 773.85 92.9001C775.33 96.4701 777.4 99.2701 780.08 101.29C782.76 103.31 785.84 104.33 789.34 104.33C792.57 104.33 795.65 103.47 798.6 101.76C801.55 100.05 803.85 97.9501 805.5 95.4801L808.18 97.5401C806.39 100.42 804.25 102.76 801.75 104.54C799.24 106.33 796.67 107.63 794.03 108.45C791.39 109.27 788.9 109.69 786.57 109.69L786.54 109.68Z" fill="white"/>
<path d="M841.21 109.68C836.41 109.68 832.05 108.56 828.14 106.33C824.23 104.1 821.12 101.01 818.82 97.0702C816.52 93.1202 815.37 88.6102 815.37 83.5302C815.37 78.1102 816.5 73.2402 818.77 68.9102C821.03 64.5902 824.12 61.1702 828.03 58.6702C831.94 56.1702 836.33 54.9102 841.21 54.9102C846.09 54.9102 850.37 56.0602 854.28 58.3602C858.19 60.6602 861.31 63.7601 863.65 67.6801C865.98 71.5901 867.15 76.0501 867.15 81.0602C867.15 86.3502 866 91.1702 863.7 95.5202C861.4 99.8802 858.3 103.33 854.38 105.87C850.47 108.41 846.08 109.68 841.2 109.68H841.21ZM842.03 105.56C845.67 105.56 848.55 104.53 850.68 102.47C852.81 100.41 854.33 97.7302 855.26 94.4402C856.19 91.1502 856.65 87.6801 856.65 84.0401C856.65 80.9501 856.36 77.9201 855.77 74.9301C855.19 71.9401 854.28 69.2302 853.04 66.8002C851.8 64.3602 850.21 62.4201 848.25 60.9801C846.29 59.5401 843.94 58.8202 841.2 58.8202C837.63 58.8202 834.71 59.8502 832.45 61.9102C830.18 63.9702 828.52 66.6502 827.46 69.9402C826.4 73.2302 825.86 76.7701 825.86 80.5401C825.86 84.8001 826.44 88.8302 827.61 92.6402C828.78 96.4502 830.56 99.5602 832.96 101.96C835.36 104.36 838.38 105.56 842.02 105.56H842.03Z" fill="white"/>
<path d="M875.9 108.03V104.94C878.03 104.94 879.5 104.41 880.33 103.34C881.15 102.28 881.63 100.8 881.77 98.9104C881.91 97.0204 881.98 94.8404 881.98 92.3704V68.9004C881.98 67.8004 882 66.7004 882.03 65.6104C882.06 64.5104 882.18 63.3804 882.39 62.2104C881.15 62.2804 879.94 62.3504 878.74 62.4204C877.54 62.4904 876.32 62.5604 875.09 62.6304V58.3104C878.11 58.3104 880.39 58.1704 881.94 57.9004C883.48 57.6304 884.63 57.2804 885.39 56.8704C886.14 56.4604 886.76 56.0104 887.24 55.5304H890.23C890.37 56.2204 890.45 57.0104 890.49 57.9004C890.52 58.7904 890.57 59.8204 890.64 60.9904C892.7 59.2104 895.07 57.7504 897.74 56.6104C900.41 55.4704 903.09 54.9104 905.77 54.9104C909.2 54.9104 912.08 55.5304 914.42 56.7604C916.75 58.0004 918.57 59.6804 919.88 61.8004C922.21 59.8804 924.91 58.2504 927.96 56.9104C931.01 55.5704 934.02 54.9004 936.97 54.9004C942.94 54.9004 947.33 56.7004 950.15 60.3004C952.96 63.9004 954.3 69.7904 954.16 77.9504L954.06 97.1004C954.06 98.4704 954.04 99.6904 954.01 100.75C953.97 101.81 953.86 102.93 953.65 104.1C954.75 104.03 955.83 103.98 956.89 103.95C957.95 103.92 959.03 103.87 960.13 103.8V108.02H939.13V104.93C941.26 104.93 942.73 104.4 943.56 103.33C944.38 102.27 944.86 100.79 945 98.9004C945.14 97.0104 945.21 94.8304 945.21 92.3604V77.9504C945.21 72.0504 944.27 67.6204 942.38 64.6704C940.49 61.7204 937.52 60.2804 933.48 60.3504C931.35 60.3504 929.22 60.8304 927.1 61.7904C924.97 62.7504 923.12 63.9504 921.54 65.3904C921.88 66.4904 922.14 67.6704 922.31 68.9404C922.48 70.2104 922.57 71.5304 922.57 72.9004C922.5 76.8804 922.47 80.9004 922.47 84.9404C922.47 88.9804 922.43 93.0404 922.37 97.0904C922.37 98.4604 922.35 99.6804 922.32 100.74C922.28 101.8 922.17 102.92 921.96 104.09C923.06 104.02 924.14 103.97 925.2 103.94C926.26 103.91 927.34 103.86 928.44 103.79V108.01H907.44V104.92C909.57 104.92 911.02 104.39 911.82 103.32C912.61 102.26 913.09 100.78 913.26 98.8904C913.43 97.0004 913.52 94.8204 913.52 92.3504L913.62 77.9404C913.69 72.0404 912.83 67.5804 911.05 64.5604C909.26 61.5404 906.35 60.0704 902.3 60.1304C900.17 60.1304 898.08 60.5904 896.02 61.5204C893.96 62.4504 892.21 63.6304 890.77 65.0704C890.77 65.8904 890.79 66.7704 890.82 67.6904C890.85 68.6204 890.87 69.5904 890.87 70.6204V97.0804C890.87 98.4504 890.85 99.6704 890.82 100.73C890.78 101.79 890.67 102.91 890.46 104.08C891.56 104.01 892.64 103.96 893.7 103.93C894.76 103.9 895.84 103.85 896.94 103.78V108H875.94L875.9 108.03Z" fill="white"/>
</svg>
