<?xml version="1.0" encoding="UTF-8"?>
<svg id="katman_2" data-name="katman 2" xmlns="http://www.w3.org/2000/svg" viewBox="0 0 499.54 114.85">
  <g id="katman_1" data-name="katman 1">
    <g>
      <g>
        <path d="M25.67,32.65h19.34l-23.95,51.23h15.89v-25.33h17.73v25.33h6.79v15.31h-6.79v14.05h-17.73v-14.05H0v-9.9l25.67-56.64Z" fill="#143256"/>
        <path d="M95.67,32.65h19.34l-23.95,51.23h15.89v-25.33h17.73v25.33h6.79v15.31h-6.79v14.05h-17.73v-14.05h-36.96v-9.9l25.67-56.64Z" fill="#143256"/>
        <path d="M165.67,32.65h19.34l-23.95,51.23h15.89v-25.33h17.73v25.33h6.79v15.31h-6.79v14.05h-17.73v-14.05h-36.96v-9.9l25.67-56.64Z" fill="#143256"/>
        <path d="M243.61,77.14c1.69-3.11,3.72-5.55,6.1-7.31-2-1.92-3.65-4.45-4.95-7.6-1.3-3.15-1.96-6.06-1.96-8.75,0-7.06,2.36-12.57,7.08-16.52,4.72-3.95,11.42-5.93,20.09-5.93s15.25,1.98,19.97,5.93c4.72,3.95,7.08,9.46,7.08,16.52,0,2.69-.63,5.56-1.9,8.63-1.27,3.07-2.97,5.6-5.12,7.6,2.61,2,4.7,4.49,6.27,7.48,1.57,2.99,2.36,5.99,2.36,8.98v4.61c0,3.53-.63,6.77-1.9,9.73s-3.11,5.51-5.53,7.66c-2.42,2.15-5.45,3.8-9.1,4.95-3.65,1.15-7.69,1.73-12.15,1.73-9.21,0-16.33-2.19-21.36-6.56-5.03-4.37-7.54-10.21-7.54-17.5v-4.61c0-2.92.84-5.93,2.53-9.04ZM262.2,97.12c1.73,1.61,4.32,2.42,7.77,2.42s5.81-.81,7.54-2.42c1.73-1.61,2.59-3.8,2.59-6.56v-3.8c0-2.69-.69-4.87-2.07-6.56-1.38-1.69-3.03-2.53-4.95-2.53h-6.33c-2,0-3.68.84-5.07,2.53-1.38,1.69-2.07,3.88-2.07,6.56v3.8c0,2.76.86,4.95,2.59,6.56ZM277.46,60.8c1.3-1.73,1.96-3.9,1.96-6.5,0-2.76-.84-4.84-2.53-6.22-1.69-1.38-3.99-2.07-6.91-2.07-3.07,0-5.45.69-7.14,2.07-1.69,1.38-2.53,3.45-2.53,6.22s.58,4.87,1.73,6.56c1.15,1.69,2.61,2.53,4.37,2.53h6.45c1.77,0,3.3-.86,4.6-2.59Z" fill="#143256"/>
        <path d="M343.66,46.29c1.3-3.26,3.19-6.02,5.64-8.29,2.46-2.26,5.37-3.99,8.75-5.18,3.38-1.19,7.06-1.78,11.05-1.78s7.69.59,11.11,1.78c3.42,1.19,6.33,2.92,8.75,5.18,2.42,2.26,4.3,5.03,5.64,8.29,1.34,3.26,2.01,6.85,2.01,10.76v31.77c0,3.91-.67,7.5-2.01,10.76s-3.22,6.02-5.64,8.29c-2.42,2.26-5.33,3.99-8.75,5.18-3.42,1.19-7.12,1.78-11.11,1.78s-7.68-.59-11.05-1.78c-3.38-1.19-6.29-2.92-8.75-5.18s-4.34-5.03-5.64-8.29c-1.3-3.26-1.96-6.85-1.96-10.76v-31.77c0-3.91.65-7.5,1.96-10.76ZM362.19,96.31c1.77,2.07,4.07,3.11,6.91,3.11,2.99,0,5.35-1.04,7.08-3.11,1.73-2.07,2.59-5.03,2.59-8.86v-29.01c0-3.76-.88-6.7-2.65-8.81-1.77-2.11-4.11-3.17-7.02-3.17s-5.14,1.06-6.91,3.17c-1.77,2.11-2.65,5.05-2.65,8.81v29.01c0,3.84.88,6.79,2.65,8.86Z" fill="#143256"/>
        <path d="M400.76,47.96v-15.31h27.75v80.59h-17.84V47.96h-9.9Z" fill="#143256"/>
        <path d="M445.66,46.41c1.3-3.26,3.17-6.02,5.58-8.29,2.42-2.26,5.33-4.01,8.75-5.24,3.42-1.23,7.16-1.84,11.22-1.84,8.21,0,14.79,2.09,19.74,6.27,4.95,4.18,7.43,9.65,7.43,16.41v3.8h-17.5v-2.42c0-2.69-.86-4.8-2.59-6.33-1.73-1.53-4.09-2.3-7.08-2.3s-5.24,1.06-6.97,3.17c-1.73,2.11-2.59,5.05-2.59,8.81v7.48c1.53-.84,3.61-1.53,6.22-2.07,2.61-.54,4.99-.81,7.14-.81,4.91,0,9.19.92,12.84,2.76,3.65,1.84,6.5,4.49,8.58,7.94,2.07,3.45,3.11,7.75,3.11,12.89v3.22c0,3.99-.67,7.56-2.01,10.71-1.34,3.15-3.24,5.78-5.7,7.89s-5.41,3.7-8.86,4.78c-3.45,1.07-7.21,1.61-11.28,1.61s-7.71-.5-11.17-1.5-6.43-2.49-8.92-4.49c-2.49-2-4.43-4.53-5.81-7.6-1.38-3.07-2.07-6.6-2.07-10.59v-33.62c0-3.84.65-7.39,1.96-10.65ZM471.68,99.65c3.07,0,5.53-.92,7.37-2.76s2.76-4.61,2.76-8.29-.77-6.12-2.3-7.77c-1.53-1.65-3.88-2.48-7.02-2.48-4.3,0-7.91.88-10.82,2.65v8.29c0,6.91,3.34,10.36,10.02,10.36Z" fill="#143256"/>
      </g>
      <path d="M222.57,64.06c-.71-3.33-1.07-6.73-1.07-10.14-.02-12.12,4.55-23.81,12.79-32.7-.79-.53-1.45-1.22-1.95-2.03-12.13,13.06-16.58,31.49-11.73,48.64.46-1.35,1.13-2.62,1.96-3.77Z" fill="#143256"/>
      <path d="M320.87,80.36v-8.48c-.04-7.26-5.55-13.32-12.77-14.05v36.58c7.22-.73,12.73-6.79,12.77-14.05Z" fill="#143256"/>
      <path d="M313.38,93.01v-33.77c0-2.57-2.08-4.65-4.65-4.65s-4.65,2.08-4.65,4.65v33.77c0,2.57,2.08,4.65,4.65,4.65s4.65-2.08,4.65-4.65Z" fill="#dc001e"/>
      <path d="M218.09,80.36v-8.48c.04-7.26,5.55-13.32,12.77-14.05v36.58c-7.22-.73-12.73-6.79-12.77-14.05Z" fill="#143256"/>
      <path d="M225.58,93.01v-33.77c0-2.57,2.08-4.65,4.65-4.65,2.57,0,4.65,2.08,4.65,4.65v33.77c0,2.57-2.08,4.65-4.65,4.65-2.57,0-4.65-2.08-4.65-4.65Z" fill="#dc001e"/>
      <path d="M318.06,53.92c0,3.41-.36,6.8-1.07,10.14.84,1.15,1.5,2.43,1.96,3.77,4.85-17.15.4-35.59-11.73-48.64-.49.81-1.16,1.5-1.95,2.03,8.24,8.89,12.81,20.58,12.79,32.7Z" fill="#143256"/>
      <path d="M237.55,19.99c1.12.1,2.23-.25,3.09-.97,16.87-14.08,41.39-14.08,58.26,0,1.79,1.5,4.46,1.26,5.96-.53,1.5-1.79,1.26-4.46-.53-5.96-20.01-16.71-49.1-16.71-69.11,0-1.79,1.5-2.03,4.17-.53,5.96.72.86,1.75,1.4,2.87,1.5h0Z" fill="#143256"/>
    </g>
  </g>
</svg>