<?xml version="1.0" encoding="UTF-8"?>
<svg id="katman_2" data-name="katman 2" xmlns="http://www.w3.org/2000/svg" xmlns:xlink="http://www.w3.org/1999/xlink" viewBox="0 0 67.55 67.57">
  <defs>
    <linearGradient id="Adsız_degrade_111" data-name="Adsız degrade 111" x1="25.41" y1="40.06" x2="49.14" y2="40.06" gradientUnits="userSpaceOnUse">
      <stop offset="0" stop-color="#000094"/>
      <stop offset="1" stop-color="#052fc6"/>
    </linearGradient>
    <linearGradient id="Adsız_degrade_111-2" data-name="Adsız degrade 111" x1="18.4" y1="39.06" x2="48.08" y2="39.06" xlink:href="#Adsız_degrade_111"/>
  </defs>
  <g id="katman_1" data-name="katman 1">
    <g>
      <path d="M67.55,33.78c0,17.4-13.15,31.73-30.05,33.58-1.22.13-2.46.2-3.72.2-2.97,0-5.85-.38-8.6-1.1C10.68,62.66,0,49.47,0,33.78,0,15.13,15.12,0,33.77,0s33.77,15.13,33.77,33.78Z" fill="#fff"/>
      <g>
        <path d="M49.14,12.59l-.1,10.53s-4.09-.18-7.33.38c-3.4.59-4.02,3.79-4.06,4.84-.03.7-.06,2.74-.09,5.57-.03,2.82-.05,6.44-.07,10.31-.05,8.25-.08,17.69-.11,23.15-1.19.13-2.4.2-3.62.2-2.89,0-5.69-.37-8.37-1.07.01-3.25.06-13.08.12-22.27.03-3.7.05-7.29.08-10.31.04-3.99.07-6.98.12-7.92.35-7.98,5.13-12.56,14.23-13.21,4.57-.33,9-.2,9.19-.19Z" fill="url(#Adsız_degrade_111)"/>
        <polygon points="46.64 44.22 18.4 44.22 18.4 33.91 48.08 33.91 46.64 44.22" fill="url(#Adsız_degrade_111-2)"/>
      </g>
    </g>
  </g>
</svg>